<?xml version="1.0" standalone="no"?>
<!DOCTYPE svg PUBLIC "-//W3C//DTD SVG 1.1//EN" "http://www.w3.org/Graphics/SVG/1.1/DTD/svg11.dtd" >
<svg xmlns="http://www.w3.org/2000/svg" xmlns:xlink="http://www.w3.org/1999/xlink" version="1.1">
<metadata></metadata>
<defs>
<font id="ge_ssbold" horiz-adv-x="0" >
<font-face units-per-em="2048" ascent="1638" descent="-410" />
<missing-glyph horiz-adv-x="450" />
<glyph unicode="&#x627;&#x653;" horiz-adv-x="563" d="M53 1452q8 71 47 120.5t97 49.5q50 0 127 -29q11 -3 27.5 -9t26 -9t21.5 -5.5t21 -2.5q32 0 52.5 15.5t21.5 47.5h86q-10 -72 -51 -121t-109 -49q-44 0 -121 29q-71 27 -102 27q-55 0 -66 -64h-78zM205 1331h287l10 -1331h-287z" />
<glyph unicode="&#x627;&#x654;" horiz-adv-x="563" d="M117 1413l65 133h76q-20 27 -20 74q0 62 40.5 105.5t104.5 43.5q92 0 147 -75l-61 -90q-14 43 -55 43q-18 0 -31.5 -12t-13.5 -33t14 -38.5t43 -17.5h102v-133h-411zM205 1331h287l10 -1331h-287z" />
<glyph unicode="&#x648;&#x654;" horiz-adv-x="1058" d="M197 381q0 89 27.5 160.5t70 115t98 72.5t107 40t102.5 11q14 0 35 -2t59 -9.5t74 -20t76 -37.5t70.5 -58t52 -84.5t24.5 -113.5v-35q0 -7 1 -72t1 -127q0 -173 -67 -316t-200 -235.5t-312 -107.5q-36 40 -91 103.5t-104 115.5q120 8 248 69t190 150h-102q-80 0 -149 34 t-114.5 88.5t-71 122t-25.5 136.5zM338 872l74 150h84q-23 29 -23 82q0 69 45 117.5t115 48.5q101 0 168 -84l-72 -101q-18 52 -61 52q-21 0 -35.5 -15t-14.5 -39q0 -23 15.5 -42t48.5 -19h115v-150h-459zM467 408q0 -63 32.5 -107.5t92.5 -44.5h117v217q0 37 -30 68.5 t-79 31.5q-62 0 -97.5 -49t-35.5 -116z" />
<glyph unicode="&#x627;&#x655;" horiz-adv-x="563" d="M104 -422l66 131h76q-21 28 -21 76q0 60 41 103.5t105 43.5q88 0 147 -73l-61 -92q-15 45 -56 45q-19 0 -32 -13.5t-13 -34.5t14.5 -38t43.5 -17h102v-131h-412zM205 1331h287l10 -1331h-287z" />
<glyph unicode="&#x64a;&#x654;" horiz-adv-x="1296" d="M-109 526l91 179h100q-29 37 -29 100q0 81 56 139t143 57q119 -3 192 -100l-84 -121q-10 28 -31 43.5t-41 16t-37.5 -11.5t-21.5 -33q-4 -17 -0.5 -36t22.5 -36.5t52 -17.5h137v-179h-549zM72 406h284q4 -266 4 -273q1 -73 29.5 -133t73 -96t94 -55t96.5 -19q52 0 104 19 t96.5 55t71 96.5t23.5 134.5v15h-430q-28 289 67 455.5t294 176.5q173 10 277 -123q24 -30 40 -65l-211 -109q-8 28 -35 47t-57 15q-27 -5 -45 -16.5t-28 -33t-14 -40t-9 -51.5h432l6 -273q4 -156 -74 -290t-212.5 -211.5t-291.5 -77.5q-118 0 -225.5 46t-184 124.5 t-122 185.5t-45.5 225q0 13 -8 271z" />
<glyph unicode="&#x64c;&#x651;" arabic-form="isolated" d="M-53 1942q1 3 3 7t8.5 16.5t14.5 22t21 22.5t27 18.5t33.5 9.5t39.5 -4q45 -12 59 -56t2 -86t-34 -57q19 -4 57.5 1t54.5 13q-27 35 -20.5 87.5t49.5 78.5q44 26 93 15.5t71 -50.5q28 -61 7 -109.5t-71 -74.5q-47 -24 -122.5 -33.5t-125 -7.5t-81.5 6l-31 70 q14 4 37.5 24.5t38 51t-14.5 61.5q-15 16 -36 14.5t-41 -12t-39 -28.5zM16 1530v153h99v-141q0 -12 4 -18.5t7 -7t9 -0.5q12 0 24.5 13t12.5 40v114h94v-114q0 -28 13 -40.5t28 -12.5q2 0 5 0.5t8.5 7t5.5 18.5l-2 141h100v-153q0 -43 -24.5 -76t-84.5 -33q-27 0 -54 15 t-40 41q-13 -26 -41 -41t-55 -15q-48 0 -78.5 34.5t-30.5 74.5zM305 1870q43 16 52 26q9 12 5 31q-3 13 -19 18.5t-36 -1.5q-39 -16 -2 -74z" />
<glyph unicode="&#x64d;&#x651;" arabic-form="isolated" d="M-23 1323q64 82 152 82l348 6q-27 -88 -158 -88q-44 -1 -96.5 -1t-125.5 0.5t-120 0.5zM6 1454q68 84 154 84l348 4q-30 -85 -158 -88h-344zM47 1694v149h100v-139q0 -11 4.5 -17t8.5 -7t10 -1q7 0 14 3.5t14 16.5t7 34v110h96v-110q0 -29 13 -41.5t28 -12.5q2 0 4 0.5 t6 6.5t4 18v139h101v-149q0 -46 -24 -78.5t-85 -32.5q-26 0 -53.5 15t-40.5 40v2q-13 -27 -40.5 -42t-55.5 -15q-47 0 -79 35.5t-32 75.5z" />
<glyph unicode="&#x64e;&#x651;" arabic-form="isolated" d="M4 1757q64 82 150 82l350 4q-15 -43 -53 -64t-107 -22h-340zM33 1530v153h100v-141q0 -12 4 -18.5t7.5 -7t9.5 -0.5q11 0 22.5 13t11.5 40v114h97v-114q0 -28 13 -40.5t28 -12.5q2 0 4.5 0.5t7 7t4.5 18.5v141h100v-153q0 -43 -25 -76t-85 -33q-25 0 -52 15t-40 41 q-13 -26 -42 -41t-55 -15q-48 0 -79 34.5t-31 74.5z" />
<glyph unicode="&#x64f;&#x651;" arabic-form="isolated" d="M-8 1835q42 -8 127 -5.5t98 15.5q-27 35 -20.5 87.5t49.5 78.5q44 26 93 16.5t71 -49.5t16 -76.5t-27 -64.5t-53 -45q-98 -50 -323 -29q-2 0 -9.5 18t-14.5 36zM16 1530v153h99v-141q0 -12 4.5 -18.5t8 -7t9.5 -0.5q11 0 23 13t12 40v114h96v-114q0 -28 12 -40.5 t27 -12.5q2 0 5 0.5t8.5 7t5.5 18.5v141h98v-153q0 -43 -24.5 -76t-84.5 -33q-27 0 -54 15t-38 41h-2q-13 -26 -41 -41t-55 -15q-48 0 -78.5 34.5t-30.5 74.5zM291 1866q18 7 23.5 9.5t17.5 10t14.5 16.5t-0.5 21q-3 14 -19 20t-36 -1q-41 -20 0 -76z" />
<glyph unicode="&#x650;&#x651;" arabic-form="isolated" d="M18 1331q64 82 152 82l348 4q-30 -83 -158 -86h-342zM47 1561v151h100v-141q0 -11 4.5 -17t8.5 -7t10 -1q11 0 23 12.5t12 40.5v113h96v-113q0 -29 12.5 -41t28.5 -12q2 0 4 0.5t6 6.5t4 18v141h101v-151q0 -43 -24.5 -76t-84.5 -33q-27 0 -54 14.5t-40 40.5 q-13 -26 -41 -40.5t-55 -14.5q-47 0 -79 34.5t-32 74.5z" />
<glyph unicode="&#xfe8e;&#x64b;" horiz-adv-x="774" arabic-form="final" d="M106 1438q64 79 152 86h348q-19 -54 -75.5 -71t-188.5 -17q-28 0 -106.5 1t-129.5 1zM137 1569q63 81 150 88h348q-18 -56 -75.5 -73t-190.5 -17q-28 0 -105 1t-127 1zM205 1331h284l7 -983q0 -78 67 -92h232v-256h-336q-100 0 -172.5 68.5t-73.5 191.5z" />
<glyph unicode="&#x627;&#x64b;" horiz-adv-x="563" arabic-form="isolated" d="M66 1438q64 79 151 86h348q-19 -54 -75.5 -71t-188.5 -17q-28 0 -106 1t-129 1zM96 1569q63 81 150 88h348q-18 -56 -75.5 -73t-190.5 -17q-28 0 -105 1t-127 1zM205 1331h287l10 -1331h-287z" />
<glyph unicode="&#xfedf;&#xfee0;&#xfeea;" horiz-adv-x="2330" arabic-form="isolated" d="M72 563q0 82 21.5 148t55 107t78 68.5t87 38.5t85.5 11q108 0 168 -55v55h285l2 -582q0 -41 21.5 -69.5t70.5 -28.5h201q48 0 89.5 27t41.5 77l-4 971h287q1 -55 2 -446.5t2 -446.5q1 -46 16.5 -82.5t38.5 -57t46.5 -31.5t43.5 -11h160q48 0 76 24.5t28 73.5 q0 413 -8 977h289q6 -708 6 -1044q0 -133 -80.5 -210t-230.5 -77h-256q-133 0 -211 121q-42 -57 -110.5 -89t-143.5 -32h-240h-153q-60 0 -112 24t-83 59t-48.5 67.5t-19.5 54.5h-188q-70 0 -126.5 27t-90.5 67t-56.5 90.5t-31 93.5t-8.5 80zM354 565q-4 -36 19.5 -79.5 t68.5 -43.5h127l-2 197q-31 32 -51.5 42.5t-60.5 10.5q-38 0 -67.5 -30.5t-33.5 -96.5zM1200 1530v153h100v-141q0 -12 4 -18.5t7.5 -7t9.5 -0.5q11 0 23 13t12 40v114h96v-114q0 -28 13 -40.5t28 -12.5q2 0 4.5 0.5t7 7t4.5 18.5v141h101v-153q0 -43 -25 -76t-86 -33 q-25 0 -52 15t-40 41q-13 -26 -41.5 -41t-54.5 -15q-48 0 -79.5 34.5t-31.5 74.5z" />
<glyph unicode="&#xfedf;&#xfe82;" horiz-adv-x="1026" arabic-form="isolated" d="M131 1452q8 71 46.5 120.5t96.5 49.5q50 0 127 -29q10 -3 27.5 -9t27 -9t21.5 -5.5t21 -2.5q70 0 73 63h86q-10 -72 -50.5 -121t-108.5 -49q-44 0 -121 29q-71 27 -103 27q-54 0 -65 -64h-78zM154 0v256h163q59 0 116 11.5t114.5 37.5t93 78t35.5 123q0 24 -10 825h288 l11 -917q0 -122 -74.5 -217t-202.5 -146t-287 -51h-247zM188 1331h285l10 -862q-34 -48 -83.5 -63t-125.5 -15h-73z" />
<glyph unicode="&#xfee0;&#xfe82;" horiz-adv-x="1284" arabic-form="final" d="M70 1452q8 71 46.5 120.5t96.5 49.5q50 0 127 -29q11 -3 27.5 -9t26 -9t21.5 -5.5t21 -2.5q32 0 52.5 15.5t21.5 47.5h86q-10 -72 -51 -121t-109 -49q-44 0 -121 29q-71 27 -102 27q-55 0 -66 -64h-77zM154 0v256h163q59 0 116 11.5t114.5 37.5t93 78t35.5 123 q0 24 -10 825h288q11 -870 11 -893q1 -46 16.5 -82.5t38.5 -57t46.5 -31.5t43.5 -11h195v-256h-211q-84 0 -139.5 42t-98.5 118q-75 -76 -194.5 -118t-260.5 -42h-247zM188 1331h285l10 -862q-33 -49 -87 -63.5t-140 -14.5h-55z" />
<glyph unicode="&#xfedf;&#xfe84;" horiz-adv-x="1026" arabic-form="isolated" d="M131 1413l66 133h75q-20 27 -20 74q0 62 40.5 105.5t104.5 43.5q93 0 148 -75l-62 -90q-14 43 -55 43q-18 0 -31.5 -12t-13.5 -33t14 -38.5t43 -17.5h103v-133h-412zM154 0v256h163q59 0 116 11.5t114.5 37.5t93 78t35.5 123q0 24 -10 825h288l11 -917q0 -122 -74.5 -217 t-202.5 -146t-287 -51h-247zM188 1331h285l10 -862q-34 -48 -83.5 -63t-125.5 -15h-73z" />
<glyph unicode="&#xfee0;&#xfe84;" horiz-adv-x="1284" arabic-form="final" d="M111 1413l65 133h76q-21 28 -21 74q0 62 41 105.5t105 43.5q92 0 147 -75l-61 -90q-14 43 -55 43q-18 0 -32 -12t-14 -33t14.5 -38.5t43.5 -17.5h102v-133h-411zM154 0v256h163q59 0 116 11.5t114.5 37.5t93 78t35.5 123q0 24 -10 825h288q11 -870 11 -893 q1 -46 16.5 -82.5t38.5 -57t46.5 -31.5t43.5 -11h195v-256h-211q-84 0 -139.5 42t-98.5 118q-75 -76 -194.5 -118t-260.5 -42h-247zM188 1331h285l10 -862q-33 -49 -87 -63.5t-140 -14.5h-55z" />
<glyph unicode="&#xfedf;&#xfe88;" horiz-adv-x="1026" arabic-form="isolated" d="M94 -422l66 131h76q-21 28 -21 76q0 61 40.5 104t104.5 43q89 0 148 -73l-62 -92q-15 45 -55 45q-19 0 -32 -13.5t-13 -34.5t14 -38t43 -17h103v-131h-412zM154 0v256h163q59 0 116 11.5t114.5 37.5t93 78t35.5 123q0 24 -10 825h288l11 -917q0 -122 -74.5 -217 t-202.5 -146t-287 -51h-247zM188 1331h285l10 -862q-34 -48 -83.5 -63t-125.5 -15h-73z" />
<glyph unicode="&#xfee0;&#xfe88;" horiz-adv-x="1284" arabic-form="final" d="M53 -422l66 131h76q-21 28 -21 76q0 61 40.5 104t104.5 43q89 0 148 -73l-61 -92q-15 45 -56 45q-19 0 -32 -13.5t-13 -34.5t14 -38t43 -17h103v-131h-412zM154 0v256h163q59 0 116 11.5t114.5 37.5t93 78t35.5 123q0 24 -10 825h288q11 -870 11 -893q1 -46 16.5 -82.5 t38.5 -57t46.5 -31.5t43.5 -11h195v-256h-211q-84 0 -139.5 42t-98.5 118q-75 -76 -194.5 -118t-260.5 -42h-247zM188 1331h285l10 -862q-33 -49 -87 -63.5t-140 -14.5h-55z" />
<glyph unicode="&#xfedf;&#xfe8e;" horiz-adv-x="1026" arabic-form="isolated" d="M154 0v256h163q59 0 116 11.5t114.5 37.5t93 78t35.5 123q0 24 -10 825h288l11 -917q0 -122 -74.5 -217t-202.5 -146t-287 -51h-247zM188 1331h285l10 -862q-34 -48 -83.5 -63t-125.5 -15h-73z" />
<glyph unicode="&#xfee0;&#xfe8e;" horiz-adv-x="1284" arabic-form="final" d="M154 0v256h163q59 0 116 11.5t114.5 37.5t93 78t35.5 123q0 24 -10 825h288q11 -870 11 -893q1 -46 16.5 -82.5t38.5 -57t46.5 -31.5t43.5 -11h195v-256h-211q-84 0 -139.5 42t-98.5 118q-75 -76 -194.5 -118t-260.5 -42h-247zM188 1331h285l10 -862q-33 -49 -87 -63.5 t-140 -14.5h-55z" />
<glyph unicode="&#x671;" horiz-adv-x="563" arabic-form="isolated" d="M98 1460v90h58v125h84v-59q75 131 190 131q48 0 83.5 -18.5t54.5 -46t30.5 -69t14.5 -76t3 -77.5h-518zM205 1331h287l10 -1331h-287zM295 1550h217q0 18 -4 37t-21.5 39.5t-46.5 20.5q-38 0 -72 -19.5t-73 -77.5z" />
<glyph unicode="&#x671;" horiz-adv-x="774" arabic-form="final" d="M98 1460v90h58v125h84v-59q75 131 190 131q48 0 83.5 -18.5t54.5 -46t30.5 -69t14.5 -76t3 -77.5h-518zM205 1331h284l7 -983q0 -78 67 -92h232v-256h-336q-100 0 -172.5 68.5t-73.5 191.5zM295 1550h217q0 18 -4 37t-21.5 39.5t-46.5 20.5q-38 0 -72 -19.5t-73 -77.5z " />
<glyph unicode="&#x67e;" horiz-adv-x="1851" arabic-form="final" d="M72 780h282q0 -108 15.5 -197t50 -165t98 -119t152.5 -43h524q24 0 35.5 15t11.5 59q0 86 -1 144t-3.5 139.5t-3.5 166.5h287l4 -348q1 -58 27.5 -100t57.5 -59t58 -17h203v-256h-189q-116 0 -190 90q-62 -90 -191 -90h-641q-101 0 -185.5 26t-144.5 69.5t-106.5 106 t-75 130.5t-46.5 147t-24 152t-5 149zM627 -162h221v-215h-221v215zM780 -451h221v-213h-221v213zM938 -162h223v-215h-223v215z" />
<glyph unicode="&#x67e;" horiz-adv-x="677" arabic-form="initial" d="M-18 0v256h243q48 0 76.5 24.5t28.5 73.5q0 146 -4 424h286q4 -466 4 -491q0 -133 -80.5 -210t-230.5 -77h-323zM-2 -162h248v-237h-248v237zM174 -467h246v-238h-246v238zM346 -162h248v-237h-248v237z" />
<glyph unicode="&#x67e;" horiz-adv-x="960" arabic-form="medial" d="M-18 0v256h239q48 0 89.5 27t41.5 77l-4 420h287q1 -55 2 -171t2 -171q1 -46 16.5 -82.5t38.5 -57t46.5 -31.5t43.5 -11h195v-256h-211q-133 0 -211 121q-42 -57 -110.5 -89t-143.5 -32h-321zM203 -162h248v-237h-248v237zM377 -467h248v-238h-248v238zM551 -162h246 v-237h-246v237z" />
<glyph unicode="&#x6a4;" horiz-adv-x="1884" arabic-form="final" d="M72 780h282q0 -89 9.5 -164t33 -142.5t59.5 -115t92 -75t128 -27.5h250q38 0 100 8q-115 132 -115 271q0 86 34 156.5t92 114.5t131 67.5t153 23.5t152.5 -23.5t130.5 -67.5t92.5 -114.5t34.5 -156.5q0 -138 -113 -271q63 -8 154 -8h131v-256h-242q-177 0 -340 61 q-163 -61 -334 -61h-323q-117 0 -211.5 33t-157.5 92.5t-108 133.5t-69.5 165t-35 177t-10.5 179zM1016 1057v239h248v-239h-248zM1190 1376v238h246v-238h-246zM1192 541q0 -36 12 -70t29.5 -57.5t36.5 -41.5t33 -27t18 -9t17.5 8.5t33 26.5t37.5 41.5t30.5 58t12.5 70.5 q0 63 -36 104t-95 41q-60 0 -94.5 -41t-34.5 -104zM1364 1057v239h248v-239h-248z" />
<glyph unicode="&#x6a4;" horiz-adv-x="1003" arabic-form="initial" d="M-18 0v256h624q26 0 39.5 13.5t13.5 47.5v17h-145q-112 0 -199.5 57t-130.5 144t-39 182q6 209 152 322q119 91 278 86q154 -5 257 -98q108 -97 110 -253v-571q2 -94 -56 -148.5t-161 -54.5h-743zM244 1286v240h248v-240h-248zM418 1606v237h246v-237h-246zM423 700.5 q6 -47.5 39 -81t83 -33.5h112q0 34 -1 104t-1 105q0 44 -24 79t-78 35q-48 0 -82.5 -33.5t-44 -80.5t-3.5 -94.5zM592 1286v240h248v-240h-248z" />
<glyph unicode="&#x6a4;" horiz-adv-x="1179" arabic-form="medial" d="M-18 0v256h165q89 0 152 8q-115 129 -115 271q0 114 59 198.5t150 124t199 39.5q80 0 152.5 -23.5t130 -67.5t91 -114.5t33.5 -156.5q0 -143 -112 -271q47 -8 153 -8h156v-256h-264q-174 0 -340 61q-163 -61 -334 -61h-276zM295 1057v239h248v-239h-248zM463 541 q0 -36 12.5 -70t30.5 -57.5t37 -41.5t32.5 -27t16.5 -9q4 0 17.5 8.5t32.5 26.5t36.5 41.5t30 58t12.5 70.5q0 64 -34 104.5t-95 40.5q-60 0 -94.5 -41t-34.5 -104zM469 1376v238h246v-238h-246zM643 1057v239h248v-239h-248z" />
<glyph unicode="&#x686;" horiz-adv-x="1378" arabic-form="final" d="M72 -2q0 112 48.5 210t145.5 162t223 64h340q-14 67 -43.5 113.5t-68 69t-73 32t-71.5 10.5q-46 0 -98 -21t-81 -41t-52 -40l-104 213q6 6 17.5 15t49 33t77 42.5t99.5 33.5t119 15q84 0 155 -19t122.5 -55t91.5 -80.5t68 -102.5t46 -113t31 -119q18 -80 74 -122t135 -42 h88l2 -256h-172q-224 0 -317 178h-387q-91 0 -139 -47t-48 -131q0 -79 58 -129.5t129 -50.5h305v-256h-353q-184 0 -300.5 126t-116.5 308zM543 16v125h131v-125h-131zM635 -29h131v-125h-131v125zM727 16v125h131v-125h-131z" />
<glyph unicode="&#x686;" horiz-adv-x="1261" arabic-form="initial" d="M-18 0v256h917q-35 125 -121.5 196.5t-197.5 71.5q-49 0 -95.5 -9.5t-78 -23t-56 -27t-36.5 -22.5l-11 -10l-113 203q17 18 46 38.5t77.5 46t119 42t147.5 16.5q128 0 234 -46.5t176 -123t118 -178.5t69.5 -210t22.5 -220h-1218zM328 -162h221v-215h-221v215zM483 -451 h222v-213h-222v213zM639 -162h223v-215h-223v215z" />
<glyph unicode="&#x686;" horiz-adv-x="1347" arabic-form="medial" d="M-18 0v256h899q-36 125 -123 196.5t-197 71.5q-52 0 -99 -9.5t-78 -23t-54.5 -27t-33.5 -22.5l-11 -10l-113 203q17 19 45 40t74.5 46t117.5 41t152 16q123 0 224.5 -41.5t172.5 -115.5t118.5 -165t74.5 -200h213v-256h-1382zM311 -162h224v-215h-224v215zM467 -451h223 v-213h-223v213zM625 -162h221v-215h-221v215z" />
<glyph unicode="&#x698;" horiz-adv-x="1001" arabic-form="final" d="M-96 -217q82 6 166 36t157 78.5t119 122.5t45 158l-6 602h289l4 -346q1 -44 17 -80t39.5 -56.5t47 -31t43.5 -10.5h197v-256h-215q-81 0 -139 45q-42 -204 -193.5 -333t-378.5 -148q-37 41 -90 103.5t-102 115.5zM84 938v240h248v-240h-248zM258 1257v238h244v-238h-244z M432 938v240h248v-240h-248z" />
<glyph unicode="&#x6cc;" horiz-adv-x="677" arabic-form="initial" d="M-18 0v256h243q48 0 76.5 24.5t28.5 73.5q0 146 -4 424h286q4 -466 4 -491q0 -133 -80.5 -210t-230.5 -77h-323zM-6 -162h246v-239h-246v239zM342 -162h246v-239h-246v239z" />
<glyph unicode="&#x6cc;" horiz-adv-x="960" arabic-form="medial" d="M-18 0v256h239q48 0 89.5 27t41.5 77l-4 420h287q1 -55 2 -171t2 -171q1 -46 16.5 -82.5t38.5 -57t46.5 -31.5t43.5 -11h195v-256h-211q-133 0 -211 121q-42 -57 -110.5 -89t-143.5 -32h-321zM205 -162h248v-239h-248v239zM553 -162h248v-239h-248v239z" />
<glyph unicode="&#x622;" horiz-adv-x="774" arabic-form="final" d="M53 1452q8 71 47 120.5t97 49.5q50 0 127 -29q11 -3 27.5 -9t26 -9t21.5 -5.5t21 -2.5q32 0 52.5 15.5t21.5 47.5h86q-10 -72 -51 -121t-109 -49q-44 0 -121 29q-71 27 -102 27q-55 0 -66 -64h-78zM205 1331h284l7 -983q0 -78 67 -92h232v-256h-336q-100 0 -172.5 68.5 t-73.5 191.5z" />
<glyph unicode="&#x623;" horiz-adv-x="774" arabic-form="final" d="M117 1413l65 133h76q-20 27 -20 74q0 62 40.5 105.5t104.5 43.5q92 0 147 -75l-61 -90q-14 43 -55 43q-18 0 -31.5 -12t-13.5 -33t14 -38.5t43 -17.5h102v-133h-411zM205 1331h284l7 -983q0 -78 67 -92h232v-256h-336q-100 0 -172.5 68.5t-73.5 191.5z" />
<glyph unicode="&#x624;" horiz-adv-x="1220" arabic-form="final" d="M199 381q0 89 27.5 160.5t70 115t98 72.5t107 40t102.5 11q14 0 35 -2t58.5 -9.5t73.5 -20t76 -37.5t70 -58t52 -84.5t26 -113.5q0 -49 2 -199h242v-256h-270q-57 -185 -201 -303t-350 -135q-36 40 -91 103.5t-104 115.5q120 8 249 69t190 150h-103q-80 0 -149 34 t-114.5 88.5t-71 122t-25.5 136.5zM340 872l74 150h84q-23 29 -23 82q0 69 45 117.5t115 48.5q101 0 168 -84l-72 -101q-18 52 -61 52q-21 0 -35 -15t-14 -39q0 -23 15 -42t48 -19h115v-150h-459zM467 408q0 -63 33 -107.5t94 -44.5h117v168q0 32 -4 55.5t-14.5 46.5 t-33.5 35t-57 12q-63 0 -99 -49.5t-36 -115.5z" />
<glyph unicode="&#x625;" horiz-adv-x="774" arabic-form="final" d="M186 -442l66 131h76q-21 28 -21 75q0 61 41 104.5t105 43.5q88 0 147 -74l-61 -92q-15 45 -56 45q-19 0 -32 -13t-13 -34t14.5 -38t43.5 -17h102v-131h-412zM205 1331h284l7 -983q0 -78 67 -92h232v-256h-336q-100 0 -172.5 68.5t-73.5 191.5z" />
<glyph unicode="&#x626;" horiz-adv-x="1886" arabic-form="final" d="M-66 526l89 179h100q-27 37 -27 100q0 81 55 139t142 57q119 -3 192 -100l-82 -121q-10 28 -31 43.5t-41 16t-37.5 -11.5t-21.5 -33q-8 -27 8.5 -58.5t63.5 -31.5h139v-179h-549zM94 406h285q2 -131 2 -271q0 -74 28.5 -134t73 -95.5t93.5 -54.5t96 -19q53 0 104.5 19 t96.5 54.5t71.5 95.5t24.5 134v12l-439 3q0 325 147.5 497t393.5 172q50 0 94.5 -6t83.5 -20t72 -28.5t64.5 -40.5t55.5 -47t50 -56t44 -60t42 -67t38 -68t38 -72q19 -35 32 -51.5t41.5 -31.5t69.5 -15h111v-256h-197q-66 0 -117.5 19.5t-88 57.5t-61 78.5t-48.5 98.5 q-124 294 -314 291q-76 0 -128 -38t-79 -101h379v-271q0 -119 -45.5 -226.5t-123 -185t-184 -123.5t-224.5 -46t-225.5 46t-185 124.5t-123 185.5t-46.5 225q0 144 -2 271z" />
<glyph unicode="&#x626;" horiz-adv-x="677" arabic-form="initial" d="M-72 938l88 178h101q-29 37 -29 101q0 82 56 140.5t141 55.5q118 0 194 -100l-84 -119q-13 37 -42.5 50.5t-56 2t-32.5 -40.5q-4 -16 -0.5 -35.5t22.5 -37t52 -17.5h137v-178h-547zM-18 0v256h243q48 0 76.5 24.5t28.5 73.5q0 146 -4 424h286q4 -466 4 -491 q0 -133 -80.5 -210t-230.5 -77h-323z" />
<glyph unicode="&#x626;" horiz-adv-x="960" arabic-form="medial" d="M-18 0v256h239q48 0 89.5 27t41.5 77l-4 420h287q1 -55 2 -171t2 -171q1 -46 16.5 -82.5t38.5 -57t46.5 -31.5t43.5 -11h195v-256h-211q-133 0 -211 121q-42 -57 -110.5 -89t-143.5 -32h-321zM176 940l88 178h103q-29 37 -29 101q0 81 56 139t141 57q121 -3 194 -100 l-84 -121q-14 37 -43.5 51t-55.5 3t-32 -40q-4 -16 -0.5 -35.5t22.5 -37t52 -17.5h137v-178h-549z" />
<glyph unicode="&#x627;" horiz-adv-x="774" arabic-form="final" d="M205 1331h284l7 -983q0 -78 67 -92h232v-256h-336q-100 0 -172.5 68.5t-73.5 191.5z" />
<glyph unicode="&#x628;" horiz-adv-x="1851" arabic-form="final" d="M72 780h282q0 -108 15.5 -197t50 -165t98 -119t152.5 -43h524q24 0 35.5 15t11.5 59q0 86 -1 144t-3.5 139.5t-3.5 166.5h287l4 -348q1 -58 27.5 -100t57.5 -59t58 -17h203v-256h-189q-116 0 -190 90q-62 -90 -191 -90h-641q-101 0 -185.5 26t-144.5 69.5t-106.5 106 t-75 130.5t-46.5 147t-24 152t-5 149zM739 -162h246v-239h-246v239z" />
<glyph unicode="&#x628;" horiz-adv-x="677" arabic-form="initial" d="M-18 0v256h243q48 0 76.5 24.5t28.5 73.5q0 146 -4 424h286q4 -466 4 -491q0 -133 -80.5 -210t-230.5 -77h-323zM162 -162h248v-239h-248v239z" />
<glyph unicode="&#x628;" horiz-adv-x="960" arabic-form="medial" d="M-18 0v256h239q48 0 89.5 27t41.5 77l-4 420h287q1 -55 2 -171t2 -171q1 -46 16.5 -82.5t38.5 -57t46.5 -31.5t43.5 -11h195v-256h-211q-133 0 -211 121q-42 -57 -110.5 -89t-143.5 -32h-321zM373 -162h248v-239h-248v239z" />
<glyph unicode="&#x629;" horiz-adv-x="1161" arabic-form="final" d="M72 563q0 82 21.5 148t55 107t78 68.5t87 38.5t85.5 11q108 0 168 -55v55h285l2 -582q0 -41 21.5 -69.5t70.5 -28.5h234v-256h-344q-60 0 -112 24t-83 59t-48.5 67.5t-19.5 54.5h-188q-70 0 -126.5 27t-90.5 67t-56.5 90.5t-31 93.5t-8.5 80zM213 1092v239h248v-239h-248 zM354 565q-4 -36 19.5 -79.5t68.5 -43.5h127l-2 197q-31 32 -51.5 42.5t-60.5 10.5q-38 0 -67.5 -30.5t-33.5 -96.5zM561 1092v239h248v-239h-248z" />
<glyph unicode="&#x62a;" horiz-adv-x="1851" arabic-form="final" d="M72 780h282q0 -108 15.5 -197t50 -165t98 -119t152.5 -43h524q24 0 35.5 15t11.5 59q0 86 -1 144t-3.5 139.5t-3.5 166.5h287l4 -348q1 -58 27.5 -100t57.5 -59t58 -17h203v-256h-189q-116 0 -190 90q-62 -90 -191 -90h-641q-101 0 -185.5 26t-144.5 69.5t-106.5 106 t-75 130.5t-46.5 147t-24 152t-5 149zM504 827v238h246v-238h-246zM850 827v238h248v-238h-248z" />
<glyph unicode="&#x62a;" horiz-adv-x="677" arabic-form="initial" d="M-18 0v256h243q48 0 76.5 24.5t28.5 73.5q0 146 -4 424h286q4 -466 4 -491q0 -133 -80.5 -210t-230.5 -77h-323zM-6 938v240h246v-240h-246zM342 938v240h246v-240h-246z" />
<glyph unicode="&#x62a;" horiz-adv-x="960" arabic-form="medial" d="M-18 0v256h239q48 0 89.5 27t41.5 77l-4 420h287q1 -55 2 -171t2 -171q1 -46 16.5 -82.5t38.5 -57t46.5 -31.5t43.5 -11h195v-256h-211q-133 0 -211 121q-42 -57 -110.5 -89t-143.5 -32h-321zM190 938v240h248v-240h-248zM539 938v240h247v-238z" />
<glyph unicode="&#x62b;" horiz-adv-x="1851" arabic-form="final" d="M72 780h282q0 -108 15.5 -197t50 -165t98 -119t152.5 -43h524q24 0 35.5 15t11.5 59q0 86 -1 144t-3.5 139.5t-3.5 166.5h287l4 -348q1 -58 27.5 -100t57.5 -59t58 -17h203v-256h-189q-116 0 -190 90q-62 -90 -191 -90h-641q-101 0 -185.5 26t-144.5 69.5t-106.5 106 t-75 130.5t-46.5 147t-24 152t-5 149zM506 829v238h246v-238h-246zM678 1149v237h246v-237h-246zM852 829v238h248v-238h-248z" />
<glyph unicode="&#x62b;" horiz-adv-x="677" arabic-form="initial" d="M-18 0v256h243q48 0 76.5 24.5t28.5 73.5q0 146 -4 424h286q4 -466 4 -491q0 -133 -80.5 -210t-230.5 -77h-323zM-6 938v240h246v-240h-246zM166 1257v240h246v-240h-246zM342 938v240h246v-240h-246z" />
<glyph unicode="&#x62b;" horiz-adv-x="960" arabic-form="medial" d="M-18 0v256h239q48 0 89.5 27t41.5 77l-4 420h287q1 -55 2 -171t2 -171q1 -46 16.5 -82.5t38.5 -57t46.5 -31.5t43.5 -11h195v-256h-211q-133 0 -211 121q-42 -57 -110.5 -89t-143.5 -32h-321zM195 938v240h247v-240h-247zM369 1257v238h243v-238h-243zM543 938v240h248 v-240h-248z" />
<glyph unicode="&#x62c;" horiz-adv-x="1378" arabic-form="final" d="M72 -2q0 112 48.5 210t145.5 162t223 64h340q-14 67 -43.5 113.5t-68 69t-73 32t-71.5 10.5q-46 0 -98 -21t-81 -41t-52 -40l-104 213q6 6 17.5 15t49 33t77 42.5t99.5 33.5t119 15q84 0 155 -19t122.5 -55t91.5 -80.5t68 -102.5t46 -113t31 -119q18 -80 74 -122t135 -42 h88l2 -256h-172q-224 0 -317 178h-387q-91 0 -139 -47t-48 -131q0 -79 58 -129.5t129 -50.5h305v-256h-353q-184 0 -300.5 126t-116.5 308zM559 117h248v-240h-248v240z" />
<glyph unicode="&#x62c;" horiz-adv-x="1261" arabic-form="initial" d="M-18 0v256h917q-35 125 -121.5 196.5t-197.5 71.5q-49 0 -95.5 -9.5t-78 -23t-56 -27t-36.5 -22.5l-11 -10l-113 203q17 18 46 38.5t77.5 46t119 42t147.5 16.5q128 0 234 -46.5t176 -123t118 -178.5t69.5 -210t22.5 -220h-1218zM500 -162h248v-235h-248v235z" />
<glyph unicode="&#x62c;" horiz-adv-x="1347" arabic-form="medial" d="M-18 0v256h899q-36 125 -123 196.5t-197 71.5q-52 0 -99 -9.5t-78 -23t-54.5 -27t-33.5 -22.5l-11 -10l-113 203q17 19 45 40t74.5 46t117.5 41t152 16q123 0 224.5 -41.5t172.5 -115.5t118.5 -165t74.5 -200h213v-256h-1382zM451 -162h247v-239h-247v239z" />
<glyph unicode="&#x62d;" horiz-adv-x="1378" arabic-form="final" d="M72 -2q0 112 48.5 210t145.5 162t223 64h340q-14 67 -43.5 113.5t-68 69t-73 32t-71.5 10.5q-46 0 -98 -21t-81 -41t-52 -40l-104 213q6 6 17.5 15t49 33t77 42.5t99.5 33.5t119 15q84 0 155 -19t122.5 -55t91.5 -80.5t68 -102.5t46 -113t31 -119q18 -80 74 -122t135 -42 h88l2 -256h-172q-224 0 -317 178h-387q-91 0 -139 -47t-48 -131q0 -79 58 -129.5t129 -50.5h305v-256h-353q-184 0 -300.5 126t-116.5 308z" />
<glyph unicode="&#x62d;" horiz-adv-x="1261" arabic-form="initial" d="M-18 0v256h917q-35 125 -121.5 196.5t-197.5 71.5q-49 0 -95.5 -9.5t-78 -23t-56 -27t-36.5 -22.5l-11 -10l-113 203q17 18 46 38.5t77.5 46t119 42t147.5 16.5q128 0 234 -46.5t176 -123t118 -178.5t69.5 -210t22.5 -220h-1218z" />
<glyph unicode="&#x62d;" horiz-adv-x="1347" arabic-form="medial" d="M-18 0v256h899q-36 125 -123 196.5t-197 71.5q-52 0 -99 -9.5t-78 -23t-54.5 -27t-33.5 -22.5l-11 -10l-113 203q17 19 45 40t74.5 46t117.5 41t152 16q123 0 224.5 -41.5t172.5 -115.5t118.5 -165t74.5 -200h213v-256h-1382z" />
<glyph unicode="&#x62e;" horiz-adv-x="1378" arabic-form="final" d="M72 -2q0 112 48.5 210t145.5 162t223 64h340q-14 67 -43.5 113.5t-68 69t-73 32t-71.5 10.5q-46 0 -98 -21t-81 -41t-52 -40l-104 213q6 6 17.5 15t49 33t77 42.5t99.5 33.5t119 15q84 0 155 -19t122.5 -55t91.5 -80.5t68 -102.5t46 -113t31 -119q18 -80 74 -122t135 -42 h88l2 -256h-172q-224 0 -317 178h-387q-91 0 -139 -47t-48 -131q0 -79 58 -129.5t129 -50.5h305v-256h-353q-184 0 -300.5 126t-116.5 308zM496 1069v240h245v-240h-245z" />
<glyph unicode="&#x62e;" horiz-adv-x="1261" arabic-form="initial" d="M-18 0v256h917q-35 125 -121.5 196.5t-197.5 71.5q-49 0 -95.5 -9.5t-78 -23t-56 -27t-36.5 -22.5l-11 -10l-113 203q17 18 46 38.5t77.5 46t119 42t147.5 16.5q128 0 234 -46.5t176 -123t118 -178.5t69.5 -210t22.5 -220h-1218zM455 936v238h247v-238h-247z" />
<glyph unicode="&#x62e;" horiz-adv-x="1347" arabic-form="medial" d="M-18 0v256h899q-36 125 -123 196.5t-197 71.5q-52 0 -99 -9.5t-78 -23t-54.5 -27t-33.5 -22.5l-11 -10l-113 203q17 19 45 40t74.5 46t117.5 41t152 16q123 0 224.5 -41.5t172.5 -115.5t118.5 -165t74.5 -200h213v-256h-1382zM434 940v240h248v-240h-248z" />
<glyph unicode="&#x62f;" horiz-adv-x="1366" arabic-form="final" d="M184 0l140 256h548q-8 65 -39.5 120t-73 88.5t-85.5 52t-82 18.5v243q232 0 376.5 -133t190.5 -389h227v-256h-1202z" />
<glyph unicode="&#x630;" horiz-adv-x="1366" arabic-form="final" d="M184 0l140 256h548q-8 65 -39.5 120t-73 88.5t-85.5 52t-82 18.5v243q232 0 376.5 -133t190.5 -389h227v-256h-1202zM598 938v240h248v-240h-248z" />
<glyph unicode="&#x631;" horiz-adv-x="1001" arabic-form="final" d="M-96 -217q82 6 166 36t157 78.5t119 122.5t45 158l-6 602h289l4 -346q1 -44 17 -80t39.5 -56.5t47 -31t43.5 -10.5h197v-256h-215q-81 0 -139 45q-42 -204 -193.5 -333t-378.5 -148q-37 41 -90 103.5t-102 115.5z" />
<glyph unicode="&#x632;" horiz-adv-x="1001" arabic-form="final" d="M-96 -217q82 6 166 36t157 78.5t119 122.5t45 158l-6 602h289l4 -346q1 -44 17 -80t39.5 -56.5t47 -31t43.5 -10.5h197v-256h-215q-81 0 -139 45q-42 -204 -193.5 -333t-378.5 -148q-37 41 -90 103.5t-102 115.5zM403 938v240h248v-238z" />
<glyph unicode="&#x633;" horiz-adv-x="2600" arabic-form="final" d="M72 551h284q4 -222 4 -426q1 -124 88 -211.5t207 -87.5q122 0 210 88.5t85 212.5l-8 594h289v-324q7 -80 50 -117.5t105 -37.5q93 0 93 96q0 139 -4 385h286l6 -303q0 -90 45 -134t111 -44q90 0 90 96q0 213 -4 442l289 -2q0 -232 2 -338v-2q3 -87 51.5 -134.5 t95.5 -47.5h176v-256h-194q-112 0 -197 98q-78 -107 -258 -114q-179 0 -274 116q-83 -109 -262 -116q-126 0 -209 55q-31 -206 -194 -345.5t-378 -139.5q-158 0 -291 77.5t-209.5 209.5t-76.5 286q0 21 -4 187t-4 237z" />
<glyph unicode="&#x633;" horiz-adv-x="1722" arabic-form="initial" d="M-18 0v256h323l-2 465h287q1 -90 0 -170.5t0 -130.5q3 -91 47.5 -134.5t110.5 -43.5q90 0 90 96q0 62 -1 193t-1 192h286l2 -303q1 -90 46.5 -134t111.5 -44q90 0 90 96q0 93 -1 208t-1 234l285 -2q1 -58 4.5 -238t-0.5 -214q-1 -168 -90 -253.5t-238 -88.5 q-180 0 -270 116q-83 -109 -264 -116q-121 0 -205 53v-37h-610z" />
<glyph unicode="&#x633;" horiz-adv-x="1968" arabic-form="medial" d="M-18 0v256h323l-4 465h289q0 -54 -1 -175.5t1 -125.5q1 -91 45 -134.5t110 -43.5q93 0 93 96q0 139 -4 385h286l6 -303q0 -90 45 -134t111 -44q90 0 90 96q0 213 -4 442l289 -2q0 -232 2 -338v-2q3 -87 51.5 -134.5t95.5 -47.5h176v-256h-194q-112 0 -197 98 q-78 -107 -258 -114q-179 0 -274 116q-83 -109 -262 -116q-121 0 -205 53v-37h-610z" />
<glyph unicode="&#x634;" horiz-adv-x="2600" arabic-form="final" d="M72 551h284q4 -222 4 -426q1 -124 88 -211.5t207 -87.5q122 0 210 88.5t85 212.5l-8 594h289v-324q7 -80 50 -117.5t105 -37.5q93 0 93 96q0 139 -4 385h286l6 -303q0 -90 45 -134t111 -44q90 0 90 96q0 213 -4 442l289 -2q0 -232 2 -338v-2q3 -87 51.5 -134.5 t95.5 -47.5h176v-256h-194q-112 0 -197 98q-78 -107 -258 -114q-179 0 -274 116q-83 -109 -262 -116q-126 0 -209 55q-31 -206 -194 -345.5t-378 -139.5q-158 0 -291 77.5t-209.5 209.5t-76.5 286q0 21 -4 187t-4 237zM1317 938v240h246v-240h-246zM1489 1257v240h246v-240 h-246zM1665 938v240h246v-240h-246z" />
<glyph unicode="&#x634;" horiz-adv-x="1722" arabic-form="initial" d="M-18 0v256h323l-2 465h287q1 -90 0 -170.5t0 -130.5q3 -91 47.5 -134.5t110.5 -43.5q90 0 90 96q0 62 -1 193t-1 192h286l2 -303q1 -90 46.5 -134t111.5 -44q90 0 90 96q0 93 -1 208t-1 234l285 -2q1 -58 4.5 -238t-0.5 -214q-1 -168 -90 -253.5t-238 -88.5 q-180 0 -270 116q-83 -109 -264 -116q-121 0 -205 53v-37h-610zM674 940v238h248v-238h-248zM848 1257v240h246v-237zM1022 940v238h246v-238h-246z" />
<glyph unicode="&#x634;" horiz-adv-x="1968" arabic-form="medial" d="M-18 0v256h323l-4 465h289q0 -54 -1 -175.5t1 -125.5q1 -91 45 -134.5t110 -43.5q93 0 93 96q0 139 -4 385h286l6 -303q0 -90 45 -134t111 -44q90 0 90 96q0 213 -4 442l289 -2q0 -232 2 -338v-2q3 -87 51.5 -134.5t95.5 -47.5h176v-256h-194q-112 0 -197 98 q-78 -107 -258 -114q-179 0 -274 116q-83 -109 -262 -116q-121 0 -205 53v-37h-610zM676 938v240h246v-240h-246zM848 1257v240h246v-240h-246zM1024 938v240h246v-240h-246z" />
<glyph unicode="&#x635;" horiz-adv-x="2568" arabic-form="final" d="M72 551h284q4 -222 4 -426q1 -124 88 -211.5t207 -87.5q122 0 210 88.5t85 212.5l-8 426h289l2 -236q56 114 129.5 202t144 137t144 79t128.5 38.5t99 4.5q93 -9 167 -42.5t122.5 -81t84 -114.5t54 -135t29.5 -149h260v-256h-1374q-42 -192 -201 -319t-363 -127 q-158 0 -291 77.5t-209.5 209.5t-76.5 286q0 21 -4 187t-4 237zM1430 256h626q-2 51 -15 97t-38.5 88.5t-72 68t-107.5 25.5q-38 0 -82 -14t-95.5 -44.5t-108 -87t-107.5 -133.5z" />
<glyph unicode="&#x635;" horiz-adv-x="1796" arabic-form="initial" d="M-18 0v256h323l-2 348h285l2 -317q56 121 130.5 215t146.5 146.5t148 84.5t132.5 41t101.5 4q89 -9 161 -40t120.5 -75.5t84 -108.5t55.5 -126t31.5 -142t15 -144t3.5 -142h-1738zM801 256h626q-2 51 -15 97t-38.5 88.5t-72 68t-107.5 25.5q-38 0 -82 -14t-95.5 -44.5 t-108 -87t-107.5 -133.5z" />
<glyph unicode="&#x635;" horiz-adv-x="1931" arabic-form="medial" d="M-18 0v256h323l-2 348h285l2 -317q56 121 130.5 215t146.5 146.5t148 84.5t132.5 41t101.5 4q93 -9 167 -42.5t122.5 -81t84 -114.5t54 -135t29.5 -149h260v-256h-1984zM801 256h626q-2 51 -15 97t-38.5 88.5t-72 68t-107.5 25.5q-38 0 -82 -14t-95.5 -44.5t-108 -87 t-107.5 -133.5z" />
<glyph unicode="&#x636;" horiz-adv-x="2568" arabic-form="final" d="M72 551h284q4 -222 4 -426q1 -124 88 -211.5t207 -87.5q122 0 210 88.5t85 212.5l-8 426h289l2 -236q56 114 129.5 202t144 137t144 79t128.5 38.5t99 4.5q93 -9 167 -42.5t122.5 -81t84 -114.5t54 -135t29.5 -149h260v-256h-1374q-42 -192 -201 -319t-363 -127 q-158 0 -291 77.5t-209.5 209.5t-76.5 286q0 21 -4 187t-4 237zM1430 256h626q-2 51 -15 97t-38.5 88.5t-72 68t-107.5 25.5q-38 0 -82 -14t-95.5 -44.5t-108 -87t-107.5 -133.5zM1731 940v240h245v-240h-245z" />
<glyph unicode="&#x636;" horiz-adv-x="1796" arabic-form="initial" d="M-18 0v256h323l-2 348h285l2 -317q56 121 130.5 215t146.5 146.5t148 84.5t132.5 41t101.5 4q89 -9 161 -40t120.5 -75.5t84 -108.5t55.5 -126t31.5 -142t15 -144t3.5 -142h-1738zM801 256h626q-2 51 -15 97t-38.5 88.5t-72 68t-107.5 25.5q-38 0 -82 -14t-95.5 -44.5 t-108 -87t-107.5 -133.5zM1124 940v240h248v-240h-248z" />
<glyph unicode="&#x636;" horiz-adv-x="1931" arabic-form="medial" d="M-18 0v256h323l-2 348h285l2 -317q56 121 130.5 215t146.5 146.5t148 84.5t132.5 41t101.5 4q93 -9 167 -42.5t122.5 -81t84 -114.5t54 -135t29.5 -149h260v-256h-1984zM801 256h626q-2 51 -15 97t-38.5 88.5t-72 68t-107.5 25.5q-38 0 -82 -14t-95.5 -44.5t-108 -87 t-107.5 -133.5zM1102 940v240h246v-240h-246z" />
<glyph unicode="&#x637;" horiz-adv-x="1687" arabic-form="final" d="M72 0l92 256h155l-4 961h277l-12 -586q110 82 224 118t189 29q92 -9 165.5 -42.5t122 -81t84 -114.5t54 -135t29.5 -149h258v-256h-1634zM543 256h626q-2 51 -15 97t-38 88.5t-71.5 68t-108.5 25.5q-37 0 -81 -14t-95.5 -44t-108.5 -87t-108 -134z" />
<glyph unicode="&#x637;" horiz-adv-x="1462" arabic-form="initial" d="M-16 0v256h274l-4 961h274l-10 -586q109 82 224 118t190 29q89 -9 160.5 -40.5t119.5 -75.5t83.5 -108t55 -126t31 -142t14.5 -144t3 -142h-1415zM481 256h627q-2 51 -15.5 97t-39 88.5t-72.5 68t-109 25.5q-37 0 -80.5 -14t-95 -44t-108 -87t-107.5 -134z" />
<glyph unicode="&#x637;" horiz-adv-x="1619" arabic-form="medial" d="M-18 0v256h325l-4 961h275l-11 -586q109 82 224 118t190 29q92 -9 165.5 -42.5t122 -81t84 -114.5t54 -135t29.5 -149h206v-256h-1660zM530 256h627q-2 51 -15 97t-39 88.5t-72.5 68t-108.5 25.5q-51 0 -110.5 -23.5t-137 -89t-144.5 -166.5z" />
<glyph unicode="&#x638;" horiz-adv-x="1687" arabic-form="final" d="M72 0l92 256h155l-4 961h277l-12 -586q110 82 224 118t189 29q92 -9 165.5 -42.5t122 -81t84 -114.5t54 -135t29.5 -149h258v-256h-1634zM543 256h626q-2 51 -15 97t-38 88.5t-71.5 68t-108.5 25.5q-37 0 -81 -14t-95.5 -44t-108.5 -87t-108 -134zM860 940v240h248v-240 h-248z" />
<glyph unicode="&#x638;" horiz-adv-x="1454" arabic-form="initial" d="M-16 0v256h274l-4 961h274l-10 -586q109 82 224 118t190 29q89 -9 160.5 -40.5t119.5 -75.5t83.5 -108t55 -126t31 -142t14.5 -144t3 -142h-1415zM481 256h627q-2 51 -15.5 97t-39 88.5t-72.5 68t-109 25.5q-37 0 -80.5 -14t-95 -44t-108 -87t-107.5 -134zM754 940v238 h245v-238h-245z" />
<glyph unicode="&#x638;" horiz-adv-x="1619" arabic-form="medial" d="M-18 0v256h325l-4 961h275l-11 -586q109 82 224 118t190 29q92 -9 165.5 -42.5t122 -81t84 -114.5t54 -135t29.5 -149h206v-256h-1660zM530 256h627q-2 51 -15 97t-39 88.5t-72.5 68t-108.5 25.5q-51 0 -110.5 -23.5t-137 -89t-144.5 -166.5zM840 940v240h247v-240h-247z " />
<glyph unicode="&#x639;" horiz-adv-x="1312" arabic-form="final" d="M72 96q0 100 36.5 190.5t111 158.5t175.5 90q-53 83 -53 188q0 70 23 129t61 98.5t87.5 67.5t102 40.5t105.5 12.5q201 0 332 -160l-152 -194q-73 86 -156 86q-14 0 -30.5 -4.5t-37 -15t-34.5 -35t-14 -58.5q0 -71 62 -109t153 -38h211v-174q0 -50 28.5 -81.5t71.5 -31.5 h176v-256h-219q-70 0 -127.5 24.5t-94.5 66t-59.5 91t-29.5 103.5h-258q-94 0 -143.5 -48t-49.5 -133q0 -79 58 -129.5t129 -50.5h337v-256h-352q-187 0 -318.5 125.5t-131.5 302.5z" />
<glyph unicode="&#x639;" horiz-adv-x="1101" arabic-form="initial" d="M-18 0v256h303q-63 95 -60 197q3 67 27.5 122.5t62 92t86.5 61.5t100.5 36t104.5 11q177 0 328 -151l-150 -193q-63 84 -153 88q-29 2 -72.5 -23.5t-48.5 -76.5q-6 -75 49 -119.5t137 -44.5h252l90 -256h-1056z" />
<glyph unicode="&#x639;" horiz-adv-x="1503" arabic-form="medial" d="M-18 0v256h462q103 0 177 20q-91 99 -189.5 155t-234.5 63v202q143 97 310 138t322 26t296 -73.5t243 -153.5q-123 -215 -311 -377h465v-256h-514q-117 0 -215 84q-180 -84 -347 -84h-464zM616 600q125 -58 238 -188q89 71 145 149q-43 21 -100 35.5t-133 18.5t-150 -15z " />
<glyph unicode="&#x63a;" horiz-adv-x="1312" arabic-form="final" d="M72 96q0 100 36.5 190.5t111 158.5t175.5 90q-53 83 -53 188q0 70 23 129t61 98.5t87.5 67.5t102 40.5t105.5 12.5q201 0 332 -160l-152 -194q-73 86 -156 86q-14 0 -30.5 -4.5t-37 -15t-34.5 -35t-14 -58.5q0 -71 62 -109t153 -38h211v-174q0 -50 28.5 -81.5t71.5 -31.5 h176v-256h-219q-70 0 -127.5 24.5t-94.5 66t-59.5 91t-29.5 103.5h-258q-94 0 -143.5 -48t-49.5 -133q0 -79 58 -129.5t129 -50.5h337v-256h-352q-187 0 -318.5 125.5t-131.5 302.5zM596 1225v239h248v-239h-248z" />
<glyph unicode="&#x63a;" horiz-adv-x="1101" arabic-form="initial" d="M-18 0v256h303q-63 95 -60 197q3 67 27.5 122.5t62 92t86.5 61.5t100.5 36t104.5 11q177 0 328 -151l-150 -193q-63 84 -153 88q-29 2 -72.5 -23.5t-48.5 -76.5q-6 -75 49 -119.5t137 -44.5h252l90 -256h-1056zM473 936v240h248v-240h-248z" />
<glyph unicode="&#x63a;" horiz-adv-x="1503" arabic-form="medial" d="M-18 0v256h462q103 0 177 20q-91 99 -189.5 155t-234.5 63v202q143 97 310 138t322 26t296 -73.5t243 -153.5q-123 -215 -311 -377h465v-256h-514q-117 0 -215 84q-180 -84 -347 -84h-464zM616 600q125 -58 238 -188q89 71 145 149q-43 21 -100 35.5t-133 18.5t-150 -15z M666 1020v237h247v-237h-247z" />
<glyph unicode="&#x641;" horiz-adv-x="1884" arabic-form="final" d="M72 780h282q0 -89 9.5 -164t33 -142.5t59.5 -115t92 -75t128 -27.5h250q38 0 100 8q-115 132 -115 271q0 86 34 156.5t92 114.5t131 67.5t153 23.5t152.5 -23.5t130.5 -67.5t92.5 -114.5t34.5 -156.5q0 -138 -113 -271q63 -8 154 -8h133v-256h-244q-177 0 -340 61 q-163 -61 -334 -61h-323q-117 0 -211.5 33t-157.5 92.5t-108 133.5t-69.5 165t-35 177t-10.5 179zM1190 1057v239h248v-239h-248zM1192 541q0 -36 12 -70t29.5 -57.5t36.5 -41.5t33 -27t18 -9t17.5 8.5t33 26.5t37.5 41.5t30.5 58t12.5 70.5q0 63 -36 104t-95 41 q-60 0 -94.5 -41t-34.5 -104z" />
<glyph unicode="&#x641;" horiz-adv-x="1003" arabic-form="initial" d="M-18 0v256h624q26 0 39.5 13.5t13.5 47.5v17h-145q-112 0 -199.5 57t-130.5 144t-39 182q6 209 152 322q119 91 278 86q154 -5 257 -98q108 -97 110 -253v-571q2 -94 -56 -148.5t-161 -54.5h-743zM423 700.5q6 -47.5 39 -81t83 -33.5h112q0 34 -1 104t-1 105q0 44 -24 79 t-78 35q-48 0 -82.5 -33.5t-44 -80.5t-3.5 -94.5zM428 1286v240h246v-240h-246z" />
<glyph unicode="&#x641;" horiz-adv-x="1179" arabic-form="medial" d="M-20 0v256h167q89 0 152 8q-115 129 -115 271q0 114 59 198.5t150 124t199 39.5q80 0 152.5 -23.5t130 -67.5t91 -114.5t33.5 -156.5q0 -143 -112 -271q47 -8 153 -8h160v-256h-268q-174 0 -340 61q-163 -61 -334 -61h-278zM461 1057v239h248v-239h-248zM463 541 q0 -36 12.5 -70t30.5 -57.5t37 -41.5t32.5 -27t16.5 -9q4 0 17.5 8.5t32.5 26.5t36.5 41.5t30 58t12.5 70.5q0 64 -34 104.5t-95 40.5q-60 0 -94.5 -41t-34.5 -104z" />
<glyph unicode="&#x642;" horiz-adv-x="1542" arabic-form="final" d="M68 467h286l2 -260q1 -103 49 -188.5t128 -133t174 -47.5q89 0 166.5 47t107.5 115h-92q-171 0 -272 110.5t-101 270.5q0 199 141 314q116 95 275.5 96.5t268.5 -89.5q122 -103 122 -282v-164h236v-256h-267q-49 -190 -209.5 -317t-377.5 -127q-176 0 -318.5 75 t-228 220.5t-86.5 336.5zM629 948v238h248v-238h-248zM802 364q6 -45 38 -76.5t82 -31.5h108q-4 136 -4 199q0 39 -25 73.5t-71 34.5q-47 0 -81 -31.5t-43.5 -77t-3.5 -90.5zM977 948v238h248v-238h-248z" />
<glyph unicode="&#x642;" horiz-adv-x="1003" arabic-form="initial" d="M-18 0v256h624q26 0 39.5 13.5t13.5 47.5v17h-145q-112 0 -199.5 57t-130.5 144t-39 182q6 209 152 322q119 91 278 86q154 -5 257 -98q108 -97 110 -253v-571q2 -94 -56 -148.5t-161 -54.5h-743zM252 1288v240h246v-240h-246zM423 700.5q6 -47.5 39 -81t83 -33.5h112 q0 34 -1 104t-1 105q0 44 -24 79t-78 35q-48 0 -82.5 -33.5t-44 -80.5t-3.5 -94.5zM600 1288v240h246v-240h-246z" />
<glyph unicode="&#x642;" horiz-adv-x="1179" arabic-form="medial" d="M-20 0v256h167q89 0 152 8q-115 129 -115 271q0 114 59 198.5t150 124t199 39.5q80 0 152.5 -23.5t130 -67.5t91 -114.5t33.5 -156.5q0 -143 -112 -271q47 -8 153 -8h160v-256h-268q-174 0 -340 61q-163 -61 -334 -61h-278zM291 1057v239h244v-239h-244zM463 541 q0 -36 12.5 -70t30.5 -57.5t37 -41.5t32.5 -27t16.5 -9q4 0 17.5 8.5t32.5 26.5t36.5 41.5t30 58t12.5 70.5q0 64 -34 104.5t-95 40.5q-60 0 -94.5 -41t-34.5 -104zM639 1057v239h244v-239h-244z" />
<glyph unicode="&#x643;" horiz-adv-x="1851" arabic-form="final" d="M72 780h282q0 -108 15.5 -197t50 -165t98 -119t152.5 -43h524q24 0 35.5 15t11.5 59q0 101 -16 1001h286l13 -899q1 -58 27.5 -100t57.5 -59t58 -17h209v-256h-195q-116 0 -190 90q-62 -90 -191 -90h-641q-101 0 -185.5 26t-144.5 69.5t-106.5 106t-75 130.5t-46.5 147 t-24 152t-5 149zM535 705l77 159h90q-24 32 -24 88q0 74 49 125t127 51q104 -3 172 -90l-76 -106q-9 24 -27 37.5t-36 13.5t-33.5 -10t-19.5 -29q-4 -25 10.5 -52.5t54.5 -27.5h123v-159h-487z" />
<glyph unicode="&#x643;" horiz-adv-x="1282" arabic-form="initial" d="M-18 0v256h944q-32 134 -139.5 203.5t-250 58t-274.5 -101.5l-106 207l589 565l197 -184l-254 -238q117 -10 209.5 -59t152 -122t98.5 -171.5t55 -200t16 -213.5h-1237z" />
<glyph unicode="&#x643;" horiz-adv-x="1437" arabic-form="medial" d="M-18 0v256h970q-32 135 -134.5 203.5t-243.5 57t-285 -100.5l-107 207l590 565l197 -184l-254 -238q113 -9 203 -51.5t150.5 -112.5t98.5 -155.5t58 -190.5h231v-256h-1474z" />
<glyph unicode="&#x644;" horiz-adv-x="1554" arabic-form="final" d="M72 551h284q4 -222 4 -426q0 -123 88 -211t207 -88q122 0 209 88.5t86 212.5l-8 1204h289l2 -903q0 -82 48.5 -127t94.5 -45h195v-256h-211q-80 0 -131 39q-19 -136 -99.5 -246.5t-205 -174.5t-267.5 -64q-158 0 -291 77.5t-209.5 209.5t-76.5 286q0 21 -4 187t-4 237z " />
<glyph unicode="&#x644;" horiz-adv-x="677" arabic-form="initial" d="M-18 0v256h243q48 0 76.5 24.5t28.5 73.5q0 413 -8 977h288q6 -708 6 -1044q0 -133 -80.5 -210t-230.5 -77h-323z" />
<glyph unicode="&#x644;" horiz-adv-x="960" arabic-form="medial" d="M-18 0v256h239q48 0 89.5 27t41.5 77l-4 971h287q1 -55 2 -446.5t2 -446.5q1 -46 16.5 -82.5t38.5 -57t46.5 -31.5t43.5 -11h195v-256h-211q-133 0 -211 121q-42 -57 -110.5 -89t-143.5 -32h-321z" />
<glyph unicode="&#x645;" horiz-adv-x="1675" arabic-form="final" d="M72 270q-1 79 21.5 137t65.5 90t95 47t117 15h204q41 111 142 176.5t250 65.5q342 0 413 -332q47 -216 314 -213v-256h-33q-240 -3 -358 145q-114 -143 -336 -143q-163 0 -267.5 79t-136.5 210h-119q-57 0 -72.5 -26.5t-15.5 -102.5l11 -598h-287zM831 401 q0 -46 11.5 -83.5t43.5 -65t81 -27.5q50 0 82 27.5t43.5 65t11.5 83.5q0 72 -32 123t-105 51q-71 0 -103.5 -51t-32.5 -123z" />
<glyph unicode="&#x645;" horiz-adv-x="1093" arabic-form="initial" d="M-18 0v256h239q-20 64 -20 141q0 177 108 288.5t307 111.5t307.5 -111t108.5 -287t-108.5 -287.5t-307.5 -111.5h-634zM479 397q0 -72 32 -122t105 -50q72 0 105 50.5t33 121.5q0 74 -33 125t-105 51q-73 0 -105 -50.5t-32 -125.5z" />
<glyph unicode="&#x645;" horiz-adv-x="1163" arabic-form="medial" d="M-18 0v256h182q18 154 125.5 248t288.5 94q182 0 288.5 -94t124.5 -248h189v-256h-230q-47 -94 -142 -147.5t-230 -53.5q-134 0 -230 53.5t-143 147.5h-223zM442 199q0 -73 32 -123.5t104 -50.5t104.5 50.5t32.5 123.5q0 33 -7 62t-22 55t-43 41.5t-65 15.5 q-71 0 -103.5 -51t-32.5 -123z" />
<glyph unicode="&#x646;" horiz-adv-x="1554" arabic-form="final" d="M72 778h284q4 -226 4 -653q1 -124 88 -211.5t207 -87.5q122 0 209 88.5t86 212.5l-8 653h289l2 -352q0 -82 48.5 -127t94.5 -45h195v-256h-211q-63 0 -131 39q-19 -136 -99.5 -246.5t-205 -174.5t-267.5 -64q-158 0 -291 77.5t-209.5 209.5t-76.5 286q0 21 -4 300.5 t-4 350.5zM528 971v235h246v-235h-246z" />
<glyph unicode="&#x646;" horiz-adv-x="677" arabic-form="initial" d="M-18 0v256h243q48 0 76.5 24.5t28.5 73.5q0 146 -4 424h286q4 -466 4 -491q0 -133 -80.5 -210t-230.5 -77h-323zM342 938v240h248v-240h-248z" />
<glyph unicode="&#x646;" horiz-adv-x="960" arabic-form="medial" d="M-18 0v256h239q48 0 89.5 27t41.5 77l-4 420h287q1 -55 2 -171t2 -171q1 -46 16.5 -82.5t38.5 -57t46.5 -31.5t43.5 -11h195v-256h-211q-133 0 -211 121q-42 -57 -110.5 -89t-143.5 -32h-321zM362 938v240h248v-240h-248z" />
<glyph unicode="&#x647;" horiz-adv-x="1161" arabic-form="final" d="M72 563q0 82 21.5 148t55 107t78 68.5t87 38.5t85.5 11q108 0 168 -55v55h285l2 -582q0 -41 21.5 -69.5t70.5 -28.5h234v-256h-344q-60 0 -112 24t-83 59t-48.5 67.5t-19.5 54.5h-188q-70 0 -126.5 27t-90.5 67t-56.5 90.5t-31 93.5t-8.5 80zM354 565q-4 -36 19.5 -79.5 t68.5 -43.5h127l-2 197q-31 32 -51.5 42.5t-60.5 10.5q-38 0 -67.5 -30.5t-33.5 -96.5z" />
<glyph unicode="&#x647;" horiz-adv-x="1603" arabic-form="initial" d="M-18 0v256h428q-55 63 -72 156.5t16 199.5q-41 -14 -73.5 -27.5t-44.5 -20.5l-13 -7q-22 64 -73 207q2 1 26.5 12.5t50 22.5t66 27t86 28.5t98 24.5t113.5 18t121 6q133 -1 247 -32.5t197.5 -84.5t150.5 -126t110.5 -153.5t72.5 -170t41 -172.5t12 -164h-1560zM575 483 q0 -83 43.5 -131.5t98.5 -48.5q59 0 97 47t38 133q0 84 -42 132.5t-99 48.5q-52 0 -94 -48.5t-42 -132.5zM1044 256h216q-21 84 -67 163.5t-101 119.5q18 -65 3 -153t-51 -130z" />
<glyph unicode="&#x647;" horiz-adv-x="1703" arabic-form="medial" d="M-18 0v256h428q-55 63 -72 156.5t16 199.5q-41 -14 -73.5 -27.5t-44.5 -20.5l-13 -7q-22 64 -73 207q2 1 26.5 12.5t50 22.5t66 27t86 28.5t98 24.5t113.5 18t121 6q145 -1 267.5 -39t208.5 -99t153 -146t107 -174t64 -189h211v-256h-1740zM575 483q0 -83 43.5 -131.5 t98.5 -48.5q59 0 97 47t38 133q0 84 -42 132.5t-99 48.5q-52 0 -94 -48.5t-42 -132.5zM1044 256h216q-21 84 -67 163.5t-101 119.5q18 -65 3 -153t-51 -130z" />
<glyph unicode="&#x648;" horiz-adv-x="1220" arabic-form="final" d="M199 381q0 89 27.5 160.5t70 115t98 72.5t107 40t102.5 11q14 0 35 -2t58.5 -9.5t73.5 -20t76 -37.5t70 -58t52 -84.5t26 -113.5q0 -49 2 -199h242v-256h-270q-57 -185 -201 -303t-350 -135q-36 40 -91 103.5t-104 115.5q120 8 249 69t190 150h-103q-80 0 -149 34 t-114.5 88.5t-71 122t-25.5 136.5zM467 408q0 -63 33 -107.5t94 -44.5h117v168q0 32 -4 55.5t-14.5 46.5t-33.5 35t-57 12q-63 0 -99 -49.5t-36 -115.5z" />
<glyph unicode="&#x649;" horiz-adv-x="1886" arabic-form="final" d="M94 406h285q2 -131 2 -271q0 -74 28.5 -134t73 -95.5t93.5 -54.5t96 -19q53 0 104.5 19t96.5 54.5t71.5 95.5t24.5 134v12l-439 3q0 325 147.5 497t393.5 172q50 0 94.5 -6t83.5 -20t72 -28.5t64.5 -40.5t55.5 -47t50 -56t44 -60t42 -67t38 -68t38 -72q19 -35 32 -51.5 t41.5 -31.5t69.5 -15h115v-256h-201q-66 0 -117.5 19.5t-88 57.5t-61 78.5t-48.5 98.5q-124 294 -314 291q-76 0 -128 -38t-79 -101h379v-271q0 -119 -45.5 -226.5t-123 -185t-184 -123.5t-224.5 -46t-225.5 46t-185 124.5t-123 185.5t-46.5 225q0 144 -2 271z" />
<glyph unicode="&#x64a;" horiz-adv-x="1867" arabic-form="final" d="M94 406h285q2 -131 2 -271q0 -74 28.5 -134t73 -95.5t93.5 -54.5t96 -19q53 0 104.5 19t96.5 54.5t71.5 95.5t24.5 134v12l-439 3q0 325 147.5 497t393.5 172q50 0 94.5 -6t83.5 -20t72 -28.5t64.5 -40.5t55.5 -47t50 -56t44 -60t42 -67t38 -68t38 -72q19 -35 32 -51.5 t41.5 -31.5t69.5 -15h90v-256h-176q-66 0 -117.5 19.5t-88 57.5t-61 78.5t-48.5 98.5q-124 294 -314 291q-76 0 -128 -38t-79 -101h379v-271q0 -119 -45.5 -226.5t-123 -185t-184 -123.5t-224.5 -46t-225.5 46t-185 124.5t-123 185.5t-46.5 225q0 144 -2 271zM350 -608h248 v-238h-248v238zM698 -608h248v-238h-248v238z" />
<glyph unicode="&#x64a;" horiz-adv-x="677" arabic-form="initial" d="M-18 0v256h243q48 0 76.5 24.5t28.5 73.5q0 146 -4 424h286q4 -466 4 -491q0 -133 -80.5 -210t-230.5 -77h-323zM-6 -162h246v-239h-246v239zM342 -162h246v-239h-246v239z" />
<glyph unicode="&#x64a;" horiz-adv-x="960" arabic-form="medial" d="M-18 0v256h239q48 0 89.5 27t41.5 77l-4 420h287q1 -55 2 -171t2 -171q1 -46 16.5 -82.5t38.5 -57t46.5 -31.5t43.5 -11h195v-256h-211q-133 0 -211 121q-42 -57 -110.5 -89t-143.5 -32h-321zM205 -162h248v-239h-248v239zM553 -162h248v-239h-248v239z" />
<glyph unicode=" "  horiz-adv-x="450" />
<glyph unicode="&#x09;" horiz-adv-x="450" />
<glyph unicode="&#xa0;" horiz-adv-x="450" />
<glyph unicode="!" horiz-adv-x="522" d="M72 1331h258l6 -989h-258zM80 0v242h258v-242h-258z" />
<glyph unicode="&#x22;" horiz-adv-x="708" d="M141 856v412h178v-412h-178zM387 856v412h178v-412h-178z" />
<glyph unicode="$" horiz-adv-x="948" d="M74 768q-1 77 29 139t82 101t112.5 62.5t130.5 33.5l-2 90h76l2 -86q143 0 342 -70l-76 -200q-153 59 -262 45l2 -219q143 -48 189 -71q136 -68 166 -188q8 -35 9 -75q1 -153 -97.5 -247t-256.5 -110v-96h-76v90q-151 0 -346 64l66 209q13 -3 60.5 -14.5t80.5 -18.5 t73 -11.5t62 -0.5l-4 235q-130 34 -188 63q-173 88 -174 275zM360 768q0 -50 72 -78v174q-75 -23 -72 -96zM512 406l4 -199q77 24 74 104q-3 66 -78 95z" />
<glyph unicode="'" horiz-adv-x="434" d="M72 1087v418h286l-172 -418h-114z" />
<glyph unicode="(" horiz-adv-x="620" d="M45 567q0 118 23 221t71.5 196.5t105.5 172.5t142 174l199 -82q-146 -144 -235 -324.5t-89 -369.5q0 -292 305 -649l-198 -80q-324 372 -324 741z" />
<glyph unicode=")" horiz-adv-x="655" d="M72 1249l196 82q85 -95 142 -174t105.5 -172.5t71.5 -196.5t23 -221q0 -372 -321 -741l-201 80q305 357 305 649q0 188 -88.5 369t-232.5 325z" />
<glyph unicode="*" horiz-adv-x="983" d="M158 268v156l207 -18l-119 151l160 86l86 -176l94 176l147 -84l-119 -151l211 16v-152l-204 11l127 -160l-162 -72l-92 166l-88 -178l-156 86l119 156z" />
<glyph unicode="+" horiz-adv-x="1097" d="M72 328v237h348v328h256v-328h350v-237h-348v-330h-256v330h-350z" />
<glyph unicode="-" horiz-adv-x="1097" d="M72 328v237h954v-235z" />
<glyph unicode="." horiz-adv-x="444" d="M72 0v258h270v-258h-270z" />
<glyph unicode="/" horiz-adv-x="784" d="M82 74l512 1206l174 -86l-514 -1206z" />
<glyph unicode=":" horiz-adv-x="419" d="M72 0v231h245v-231h-245zM72 360v234h245v-234h-245z" />
<glyph unicode="&#x3c;" horiz-adv-x="1110" d="M172 457l479 479h305l-479 -479l479 -477h-305z" />
<glyph unicode="=" horiz-adv-x="1097" d="M72 184v228h954v-228h-954zM72 502v227h954v-227h-954z" />
<glyph unicode="&#x3e;" horiz-adv-x="1110" d="M174 -20h305l479 477l-479 479h-305l479 -479z" />
<glyph unicode="[" horiz-adv-x="630" d="M74 1260h465v-158h-238l10 -1106h246v-160h-473z" />
<glyph unicode="\" horiz-adv-x="784" d="M16 1253l183 78l555 -1298l-185 -68z" />
<glyph unicode="]" horiz-adv-x="630" d="M74 1104v160h473l10 -1426h-467v162h240l-11 1104h-245z" />
<glyph unicode="_" horiz-adv-x="782" d="M33 -33v-213h715v213h-715z" />
<glyph unicode="{" horiz-adv-x="788" d="M74 530q139 -90 139 -163v-334q0 -14 4.5 -28t9 -24t16 -23.5t17.5 -20t22.5 -19.5t20.5 -16t23 -16l18 -13q63 -55 236 -55l108 4q2 8 2 26q0 21 -2 27q-138 2 -192 34.5t-45 123.5v334q0 87 -119 163q119 91 119 164v334q0 101 49 129q47 35 186 35v14q0 31 -2 47 q-132 0 -235 -22t-169.5 -74t-66.5 -129v-334q0 -49 -35 -92q-35 -45 -100 -72h-4z" />
<glyph unicode="|" horiz-adv-x="335" d="M70 -199h190v1465h-190v-1465z" />
<glyph unicode="}" horiz-adv-x="788" d="M72 -152q0 21 2 27q138 2 192 34.5t45 123.5v334q0 87 119 163q-119 91 -119 164v334q0 101 -49 129q-47 35 -186 35v14q0 31 2 47q132 0 235 -22t169.5 -74t66.5 -129v-334q0 -49 35 -92q35 -45 100 -72h4q-139 -90 -139 -163v-334q0 -14 -4.5 -28t-9 -24t-16 -23.5 t-17.5 -20t-22.5 -19.5t-20.5 -16t-23 -16l-18 -13q-63 -55 -236 -55l-108 4q-2 8 -2 26z" />
<glyph unicode="&#xab;" horiz-adv-x="825" d="M61 326q0 115 43 201t136 192l182 -43q-80 -66 -130 -164t-50 -190q0 -81 47 -168.5t121 -161.5l-179 -51q-170 199 -170 385zM403 326q0 116 43.5 202.5t137.5 190.5l180 -43q-80 -66 -129 -164t-49 -190q0 -80 46.5 -168t119.5 -162l-179 -51q-170 199 -170 385z" />
<glyph unicode="&#xad;" horiz-adv-x="1097" d="M72 328v237h954v-235z" />
<glyph unicode="&#xbb;" horiz-adv-x="825" d="M61 676l181 43q94 -104 137 -190.5t43 -202.5q0 -186 -170 -385l-178 51q73 74 119.5 162t46.5 168q0 92 -49.5 190t-129.5 164zM403 676l183 43q92 -106 135 -192t43 -201q0 -186 -170 -385l-178 51q73 73 119.5 161t46.5 169q0 92 -49.5 190t-129.5 164z" />
<glyph unicode="&#xd7;" horiz-adv-x="1087" d="M72 174l293 272l-293 275l180 168l293 -275l293 275l178 -168l-291 -275l291 -272l-178 -168l-293 273l-293 -273z" />
<glyph unicode="&#xf7;" horiz-adv-x="1036" d="M72 330v235h893v-235h-893zM354 80q0 68 48 116t116 48t116 -48t48 -116t-48 -116t-116 -48t-116 48t-48 116zM354 815q0 67 48 115.5t116 48.5t116 -48.5t48 -115.5t-48 -115.5t-116 -48.5t-116 48.5t-48 115.5z" />
<glyph unicode="&#x60c;" horiz-adv-x="516" d="M72 -2v225q0 42 18 84t53 82t62.5 66.5t70.5 62.5h138q-76 -68 -121 -127t-45 -119q0 -33 15.5 -41.5t51.5 -5.5v-227h-243z" />
<glyph unicode="&#x61b;" horiz-adv-x="516" d="M72 0v231h245v-231h-245zM72 362v226q0 41 17.5 82.5t53.5 82.5t62.5 66.5t70.5 63.5h138q-76 -68 -121 -127t-45 -119q0 -33 16 -42.5t51 -6.5v-226h-243z" />
<glyph unicode="&#x61f;" horiz-adv-x="964" d="M72 897q0 109 60 195.5t154.5 132t200.5 45.5q114 0 207 -50t189 -143l-168 -178q-57 62 -105.5 90.5t-117.5 28.5q-52 0 -102 -32t-50 -97q0 -28 17.5 -54t45 -49t61 -48t67.5 -56.5t61.5 -69t45 -91.5t17.5 -118v-102h-252v111q0 37 -18.5 68.5t-47.5 55t-64 47.5 t-70.5 52.5t-64.5 62.5t-47.5 85.5t-18.5 113.5zM401 0v242h256v-242h-256z" />
<glyph unicode="&#x621;" horiz-adv-x="1019" d="M164 0l127 256h143q-39 51 -39 143q0 117 78 201t199 84q175 0 286 -145l-120 -174q-14 42 -44 64t-63 22q-35 0 -59.5 -23t-24.5 -63q0 -41 25.5 -75t83.5 -34h196v-256h-788z" />
<glyph unicode="&#x627;" horiz-adv-x="563" d="M205 1331h287l10 -1331h-287z" />
<glyph unicode="&#x628;" horiz-adv-x="1585" d="M72 780h282q0 -89 9.5 -164t33 -142.5t59.5 -115t92 -75t128 -27.5h518q25 0 37 16.5t12 57.5q-1 72 -4.5 197t-5.5 253h287q4 -215 4 -561q0 -110 -63.5 -164.5t-160.5 -54.5h-636q-117 0 -211.5 33t-157.5 92.5t-108 133.5t-69.5 165t-35 177t-10.5 179zM739 -160h246 v-237h-246v237z" />
<glyph unicode="&#x629;" horiz-adv-x="966" d="M72 401q0 176 108.5 288t306.5 112q199 0 308.5 -112t109.5 -288t-109.5 -287.5t-308.5 -111.5t-307 111.5t-108 287.5zM174 961v237h246v-237h-246zM352 401q0 -47 11 -84t42.5 -64.5t81.5 -27.5q72 0 105 51.5t33 124.5q0 71 -33 122.5t-105 51.5q-50 0 -81.5 -27.5 t-42.5 -64t-11 -82.5zM522 961v237h246v-237h-246z" />
<glyph unicode="&#x62a;" horiz-adv-x="1585" d="M72 780h282q0 -89 9.5 -164t33 -142.5t59.5 -115t92 -75t128 -27.5h518q25 0 37 16.5t12 57.5q-1 72 -4.5 197t-5.5 253h287q4 -215 4 -561q0 -110 -63.5 -164.5t-160.5 -54.5h-636q-117 0 -211.5 33t-157.5 92.5t-108 133.5t-69.5 165t-35 177t-10.5 179zM504 827v238 h246v-238h-246zM850 827v238h248v-238h-248z" />
<glyph unicode="&#x62b;" horiz-adv-x="1585" d="M72 780h282q0 -89 9.5 -164t33 -142.5t59.5 -115t92 -75t128 -27.5h518q25 0 37 16.5t12 57.5q-1 72 -4.5 197t-5.5 253h287q4 -215 4 -561q0 -110 -63.5 -164.5t-160.5 -54.5h-636q-117 0 -211.5 33t-157.5 92.5t-108 133.5t-69.5 165t-35 177t-10.5 179zM506 829v238 h246v-238h-246zM678 1149v237h246v-237h-246zM852 829v238h248v-238h-248z" />
<glyph unicode="&#x62c;" horiz-adv-x="1208" d="M72 -2q0 112 48.5 210t145.5 162t223 64h340q-14 67 -43.5 114t-67.5 69.5t-73 32t-72 9.5q-117 -2 -231 -102l-104 213q6 6 17.5 15t49 33t77 42.5t99.5 33.5t119 15q100 0 184 -30.5t139.5 -79.5t97 -114.5t63 -130.5t30.5 -134l33 -242h-610q-95 0 -141 -46t-46 -132 q0 -79 58 -129.5t129 -50.5h305v-256h-353q-184 0 -300.5 126t-116.5 308zM559 117h248v-240h-248v240z" />
<glyph unicode="&#x62d;" horiz-adv-x="1208" d="M72 -2q0 112 48.5 210t145.5 162t223 64h340q-14 67 -43.5 114t-67.5 69.5t-73 32t-72 9.5q-117 -2 -231 -102l-104 213q6 6 17.5 15t49 33t77 42.5t99.5 33.5t119 15q100 0 184 -30.5t139.5 -79.5t97 -114.5t63 -130.5t30.5 -134l33 -242h-610q-95 0 -141 -46t-46 -132 q0 -79 58 -129.5t129 -50.5h305v-256h-353q-184 0 -300.5 126t-116.5 308z" />
<glyph unicode="&#x62e;" horiz-adv-x="1208" d="M72 -2q0 112 48.5 210t145.5 162t223 64h340q-14 67 -43.5 114t-67.5 69.5t-73 32t-72 9.5q-117 -2 -231 -102l-104 213q6 6 17.5 15t49 33t77 42.5t99.5 33.5t119 15q100 0 184 -30.5t139.5 -79.5t97 -114.5t63 -130.5t30.5 -134l33 -242h-610q-95 0 -141 -46t-46 -132 q0 -79 58 -129.5t129 -50.5h305v-256h-353q-184 0 -300.5 126t-116.5 308zM496 1067v240h245v-240h-245z" />
<glyph unicode="&#x62f;" horiz-adv-x="1241" d="M184 0l140 256h548q-8 65 -39.5 120t-73 88.5t-85.5 52t-82 18.5v243q284 0 436 -197.5t152 -572.5v-8h-996z" />
<glyph unicode="&#x630;" horiz-adv-x="1241" d="M184 0l140 256h548q-8 65 -39.5 120t-73 88.5t-85.5 52t-82 18.5v243q284 0 436 -197.5t152 -572.5v-8h-996zM598 936v240h248v-240h-248z" />
<glyph unicode="&#x631;" horiz-adv-x="743" d="M-96 -217q82 6 165.5 36t156.5 78.5t119 122.5t46 158l-2 602h285l8 -579q-11 -269 -166 -442.5t-420 -194.5q-37 41 -90 103.5t-102 115.5z" />
<glyph unicode="&#x632;" horiz-adv-x="743" d="M-96 -217q82 6 165.5 36t156.5 78.5t119 122.5t46 158l-2 602h285l8 -579q-11 -269 -166 -442.5t-420 -194.5q-37 41 -90 103.5t-102 115.5zM401 938v240h246v-240h-246z" />
<glyph unicode="&#x633;" horiz-adv-x="2377" d="M72 551h284q4 -222 4 -426q1 -124 88 -211.5t207 -87.5q122 0 210 88.5t85 212.5l-8 594h287l4 -340q11 -71 53 -105t100 -34q91 0 91 96q0 62 -1 193t-1 192h286l2 -303q1 -90 46.5 -134t111.5 -44q90 0 90 96q0 93 -1 208t-1 234l285 -2q1 -58 4.5 -238t-0.5 -214 q-1 -168 -90 -253.5t-238 -88.5q-180 0 -270 116q-83 -109 -264 -116q-124 0 -207 55q-31 -206 -194 -345.5t-378 -139.5q-158 0 -291 77.5t-209.5 209.5t-76.5 286q0 21 -4 187t-4 237z" />
<glyph unicode="&#x634;" horiz-adv-x="2377" d="M72 551h284q4 -222 4 -426q1 -124 88 -211.5t207 -87.5q122 0 210 88.5t85 212.5l-8 594h287l4 -340q11 -71 53 -105t100 -34q91 0 91 96q0 62 -1 193t-1 192h286l2 -303q1 -90 46.5 -134t111.5 -44q90 0 90 96q0 93 -1 208t-1 234l285 -2q1 -58 4.5 -238t-0.5 -214 q-1 -168 -90 -253.5t-238 -88.5q-180 0 -270 116q-83 -109 -264 -116q-124 0 -207 55q-31 -206 -194 -345.5t-378 -139.5q-158 0 -291 77.5t-209.5 209.5t-76.5 286q0 21 -4 187t-4 237zM1313 940v238h248v-238h-248zM1487 1257v240h246v-237zM1661 940v238h246v-238h-246z " />
<glyph unicode="&#x635;" horiz-adv-x="2422" d="M72 551h284q4 -222 4 -426q1 -124 88 -211.5t207 -87.5q122 0 210 88.5t85 212.5l-8 426h289l2 -236q56 114 129.5 202t144 137t144 79t128.5 38.5t99 4.5q89 -9 161 -40t120.5 -75.5t84 -108.5t55.5 -126t31.5 -142t15 -144t3.5 -142h-1128q-42 -192 -201 -319 t-363 -127q-158 0 -291 77.5t-209.5 209.5t-76.5 286q0 21 -4 187t-4 237zM1430 256h626q-2 51 -15 97t-38.5 88.5t-72 68t-107.5 25.5q-38 0 -82 -14t-95.5 -44.5t-108 -87t-107.5 -133.5z" />
<glyph unicode="&#x636;" horiz-adv-x="2422" d="M72 551h284q4 -222 4 -426q1 -124 88 -211.5t207 -87.5q122 0 210 88.5t85 212.5l-8 426h289l2 -236q56 114 129.5 202t144 137t144 79t128.5 38.5t99 4.5q89 -9 161 -40t120.5 -75.5t84 -108.5t55.5 -126t31.5 -142t15 -144t3.5 -142h-1128q-42 -192 -201 -319 t-363 -127q-158 0 -291 77.5t-209.5 209.5t-76.5 286q0 21 -4 187t-4 237zM1430 256h626q-2 51 -15 97t-38.5 88.5t-72 68t-107.5 25.5q-38 0 -82 -14t-95.5 -44.5t-108 -87t-107.5 -133.5zM1753 940v240h248v-240h-248z" />
<glyph unicode="&#x637;" horiz-adv-x="1523" d="M72 0l92 256h155l-4 961h277l-12 -586q110 82 224 118t189 29q89 -9 160.5 -40t120 -75.5t84 -108.5t55 -126t31 -142t15 -144t3.5 -142h-1390zM543 256h626q-2 51 -15 97t-38 88.5t-71.5 68t-108.5 25.5q-37 0 -81 -14t-95.5 -44t-108.5 -87t-108 -134z" />
<glyph unicode="&#x638;" horiz-adv-x="1523" d="M72 0l92 256h155l-4 961h277l-12 -586q110 82 224 118t189 29q89 -9 160.5 -40t120 -75.5t84 -108.5t55 -126t31 -142t15 -144t3.5 -142h-1390zM543 256h626q-2 51 -15 97t-38 88.5t-71.5 68t-108.5 25.5q-37 0 -81 -14t-95.5 -44t-108.5 -87t-108 -134zM860 938v240h248 v-240h-248z" />
<glyph unicode="&#x639;" horiz-adv-x="1122" d="M72 96q0 100 36.5 190.5t111 158.5t175.5 90q-53 83 -53 188q0 70 23 129t61 98.5t87.5 67.5t102 40.5t105.5 12.5q201 0 332 -160l-152 -194q-60 86 -156 86q-14 0 -30.5 -4.5t-37 -15t-34.5 -35t-14 -58.5q0 -147 202 -147h230v-258h-518q-94 0 -143.5 -48t-49.5 -133 q0 -79 58 -129.5t129 -50.5h337v-256h-352q-187 0 -318.5 125.5t-131.5 302.5z" />
<glyph unicode="&#x63a;" horiz-adv-x="1122" d="M72 96q0 100 36.5 190.5t111 158.5t175.5 90q-53 83 -53 188q0 70 23 129t61 98.5t87.5 67.5t102 40.5t105.5 12.5q201 0 332 -160l-152 -194q-60 86 -156 86q-14 0 -30.5 -4.5t-37 -15t-34.5 -35t-14 -58.5q0 -147 202 -147h230v-258h-518q-94 0 -143.5 -48t-49.5 -133 q0 -79 58 -129.5t129 -50.5h337v-256h-352q-187 0 -318.5 125.5t-131.5 302.5zM596 1227v237h248v-237h-248z" />
<glyph unicode="&#x640;" horiz-adv-x="243" d="M-18 0v256h280v-256h-280z" />
<glyph unicode="&#x641;" horiz-adv-x="1593" d="M72 780h282q0 -89 9.5 -164t33 -142.5t59.5 -115t92 -75t128 -27.5h3h4h4h3h4h3h4h3h4h3h4h3h4h3h4h3h4h3h4h3h4h3h4h3h4h3h4h3h4h4h3h4h3h4h3h4h3h4h4h3h4h3h4h3h4h3h4h4h3h4h3h4h3h4h4h3h4h3h4h4h3h4h3h4h4h3h4h4h3h4h3h4h4h3h4h4h3h4h4h3h4h4h3h4h4h3h4h4h3h4h4h3h4h4 h4h3h4h4h4h3h4h4h4h3h4h4h4h4h3h4h4h4h4h4h3h4h4h4h4h4h4h4h4h4h4h4h4h4h4h4h4h5h4h4h5h4h5h4h9q27 0 40 13.5t13 47.5v17h-145q-112 0 -199 57t-130 143.5t-40 182.5q7 209 153 322q119 91 277 86q155 -5 258 -98q108 -97 109 -253q1 -79 1 -177t-0.5 -217t-0.5 -177 q2 -94 -56 -148.5t-161 -54.5h-651q-117 0 -211.5 33t-157.5 92.5t-108 133.5t-69.5 165t-35 177t-10.5 179zM1014 700.5q6 -47.5 39 -81t84 -33.5h112q-4 136 -4 209q0 45 -23.5 79.5t-78.5 34.5q-48 0 -82.5 -33.5t-43.5 -80.5t-3 -94.5zM1018 1286v240h248v-240h-248z " />
<glyph unicode="&#x642;" horiz-adv-x="1374" d="M70 465h274l2 -258q1 -159 104 -267t250 -108q90 0 166.5 47t112.5 121h-96q-84 0 -155.5 32.5t-118 86.5t-72 122t-25.5 140q0 157 82.5 262t200 128.5t234.5 0t199.5 -121t82.5 -236.5v-203q0 -141 -39.5 -260t-114.5 -207.5t-192.5 -138t-266.5 -49.5q-176 0 -317 75 t-225 220t-84 337zM614 940v240h246v-240h-246zM792 366.5q6 -46.5 38.5 -78.5t82.5 -32h113q0 36 -1 101t-1 100q0 40 -27 76t-75 36t-82.5 -32t-44 -78t-3.5 -92.5zM961 940v240h247v-240h-247z" />
<glyph unicode="&#x643;" horiz-adv-x="1585" d="M72 780h282q0 -89 9.5 -164t33 -142.5t59.5 -115t92 -75t128 -27.5h518q25 0 37 16.5t12 57.5q-2 99 -5 495t-5 506h287q4 -215 4 -1112q0 -110 -63.5 -164.5t-160.5 -54.5h-636q-117 0 -211.5 33t-157.5 92.5t-108 133.5t-69.5 165t-35 177t-10.5 179zM535 705l77 159 h90q-24 32 -24 88q0 74 49 125t127 51q104 -3 172 -90l-76 -106q-9 24 -27 37.5t-36 13.5t-33.5 -10t-19.5 -29q-4 -25 10.5 -52.5t54.5 -27.5h123v-159h-487z" />
<glyph unicode="&#x644;" horiz-adv-x="1296" d="M72 551h284q4 -222 4 -426q1 -124 88 -211.5t207 -87.5q122 0 209 88.5t86 212.5l-8 1204h289l4 -1206q0 -154 -77.5 -285.5t-210.5 -208.5t-290 -77q-158 0 -291 77.5t-209.5 209.5t-76.5 286q0 21 -4 187t-4 237z" />
<glyph unicode="&#x645;" horiz-adv-x="1445" d="M72 270q-1 79 21.5 136.5t65.5 90t95.5 47.5t116.5 15l204 -2q41 112 141 176t251 64q200 0 308.5 -110t108.5 -286t-108.5 -288.5t-308.5 -112.5q-163 0 -267.5 80t-136.5 211h-119q-57 0 -72.5 -26.5t-15.5 -102.5l11 -598h-287zM831 401q0 -46 11.5 -83.5t43.5 -65 t81 -27.5q50 0 82 27.5t43.5 65t11.5 83.5q0 72 -32 122t-105 50q-49 0 -81 -27t-43.5 -63.5t-11.5 -81.5z" />
<glyph unicode="&#x646;" horiz-adv-x="1296" d="M72 778h284q4 -226 4 -653q1 -124 88 -211.5t207 -87.5q122 0 209 88.5t86 212.5l-8 653h289l4 -655q1 -154 -76.5 -285.5t-211 -208.5t-290.5 -77q-158 0 -291 77.5t-209.5 209.5t-76.5 286q0 21 -4 300.5t-4 350.5zM528 971v235h246v-235h-246z" />
<glyph unicode="&#x647;" horiz-adv-x="966" d="M72 401q0 176 108.5 288t306.5 112q199 0 308.5 -112t109.5 -288t-109.5 -287.5t-308.5 -111.5t-307 111.5t-108 287.5zM352 401q0 -47 11 -84t42.5 -64.5t81.5 -27.5q72 0 105 51.5t33 124.5q0 71 -33 122.5t-105 51.5q-50 0 -81.5 -27.5t-42.5 -64t-11 -82.5z" />
<glyph unicode="&#x648;" horiz-adv-x="1058" d="M197 381q0 89 27.5 160.5t70 115t98 72.5t107 40t102.5 11q15 0 36.5 -2t60.5 -9.5t76 -20t78 -37.5t71 -58t49.5 -84.5t19.5 -113.5v-35q0 -7 1 -72t1 -127q0 -173 -67 -316t-200 -235.5t-312 -107.5q-36 40 -91 103.5t-104 115.5q120 8 248 69t190 150h-102 q-80 0 -149 34t-114.5 88.5t-71 122t-25.5 136.5zM467 408q0 -63 32.5 -107.5t92.5 -44.5h117v217q0 37 -30 68.5t-79 31.5q-62 0 -97.5 -49t-35.5 -116z" />
<glyph unicode="&#x649;" horiz-adv-x="1296" d="M72 406h284q4 -266 4 -273q1 -73 29.5 -133t73 -96t94 -55t96.5 -19q52 0 104 19t96.5 55t71 96.5t23.5 134.5v15h-430q-28 289 67 455.5t294 176.5q173 10 277 -123q24 -30 40 -65l-211 -109q-8 28 -35 47t-57 15q-27 -5 -45 -16.5t-28 -33t-14 -40t-9 -51.5h432l6 -273 q4 -156 -74 -290t-212.5 -211.5t-291.5 -77.5q-118 0 -225.5 46t-184 124.5t-122 185.5t-45.5 225q0 13 -8 271z" />
<glyph unicode="&#x64a;" horiz-adv-x="1296" d="M72 406h284q4 -266 4 -273q1 -73 29.5 -133t73 -96t94 -55t96.5 -19q52 0 104 19t96.5 55t71 96.5t23.5 134.5v15h-430q-28 289 67 455.5t294 176.5q173 10 277 -123q24 -30 40 -65l-211 -109q-8 28 -35 47t-57 15q-27 -5 -45 -16.5t-28 -33t-14 -40t-9 -51.5h432l6 -273 q4 -156 -74 -290t-212.5 -211.5t-291.5 -77.5q-118 0 -225.5 46t-184 124.5t-122 185.5t-45.5 225q0 13 -8 271zM373 -608h245v-238h-245v238zM719 -608h248v-238h-248v238z" />
<glyph unicode="&#x64b;" d="M-6 1438q64 79 151 82l349 4q-30 -86 -158 -86q-44 -1 -95.5 -1t-125 0.5t-121.5 0.5zM25 1569q63 81 149 84l348 4q-14 -44 -50.5 -65.5t-104.5 -22.5h-342z" />
<glyph unicode="&#x64c;" d="M-96 1501q1 3 3 7t9 16.5t15 22t21 22.5t27 18.5t33 9.5t39 -4q45 -12 59 -55t2 -84.5t-34 -58.5q20 -4 59 1t53 13q-27 35 -20.5 87.5t49.5 78.5q44 26 93 16t71 -49q28 -62 7 -111t-71 -75q-47 -24 -122 -33.5t-125 -7.5t-80 6q-2 0 -10 17.5t-16 35.5l-7 17 q16 4 40 24.5t37.5 51t-16.5 61.5q-40 40 -116 -27zM264 1430q43 17 51.5 28.5t3.5 28.5q-3 13 -19 18.5t-36 -2.5q-40 -17 0 -73z" />
<glyph unicode="&#x64d;" d="M-6 -647q65 81 151 84l349 2q-30 -83 -158 -86q-44 -1 -95.5 -1t-125 0.5t-121.5 0.5zM25 -514q64 82 149 82l348 4q-27 -83 -155 -86q-44 -1 -96 -1t-125 0.5t-121 0.5z" />
<glyph unicode="&#x64e;" d="M-27 1518q65 84 150 84l348 4q-27 -85 -156 -88h-342z" />
<glyph unicode="&#x64f;" d="M-53 1491q43 -7 128 -4t99 16q-28 35 -22.5 87.5t49.5 78.5q46 26 95 15.5t71 -50.5q27 -62 6.5 -110.5t-70.5 -73.5q-47 -24 -122 -31.5t-121 -5t-80 7.5q-2 0 -10 17.5t-16 35.5zM246 1524q3 1 12 4.5t11.5 4.5t10.5 4.5t9 5.5t7.5 7t5.5 8.5t2 10t-1 12.5 q-3 13 -19 18t-36 -2q-41 -19 -2 -73z" />
<glyph unicode="&#x650;" d="M-27 -526q64 82 150 82l348 4q-26 -83 -156 -86h-342z" />
<glyph unicode="&#x651;" d="M33 1530v153h100v-141q0 -12 4 -18.5t7.5 -7t9.5 -0.5q11 0 22.5 13t11.5 40v114h97v-114q0 -28 13 -40.5t28 -12.5q2 0 4.5 0.5t7 7t4.5 18.5v141h100v-153q0 -43 -25 -76t-85 -33q-25 0 -52 15t-40 41q-13 -26 -42 -41t-55 -15q-48 0 -79 34.5t-31 74.5z" />
<glyph unicode="&#x652;" d="M27 1577q-2 78 38.5 125t110.5 47q74 1 119 -50t45 -118q2 -78 -38.5 -124.5t-113.5 -47.5q-74 -1 -116.5 49.5t-44.5 118.5zM141 1612.5q-11 -35.5 2 -70t43 -33.5q31 0 43 35.5t-2 70.5t-45 34q-30 -1 -41 -36.5z" />
<glyph unicode="&#x653;" d="M-18 1452q8 71 46.5 120.5t96.5 49.5q50 0 127 -29q11 -3 27.5 -9t26 -9t21.5 -5.5t21 -2.5q32 0 52.5 15.5t21.5 47.5h86q-10 -72 -51 -121t-109 -49q-44 0 -121 29q-71 27 -102 27q-55 0 -66 -64h-77z" />
<glyph unicode="&#x654;" d="M45 1413l66 133h75q-20 27 -20 74q0 62 41.5 106t107.5 43q91 -3 144 -75l-62 -90q-9 27 -31 37.5t-42 2t-25 -29.5q-6 -20 7 -44t48 -24h103v-133h-412z" />
<glyph unicode="&#x655;" d="M33 -422l65 131h76q-20 27 -20 76q0 62 41.5 105t107.5 42q87 -3 143 -73l-61 -92q-9 28 -31 39t-42 2.5t-25 -29.5q-6 -21 7 -45.5t48 -24.5h102v-131h-411z" />
<glyph unicode="&#x660;" horiz-adv-x="655" d="M180 90v350l295 133v-348z" />
<glyph unicode="&#x661;" horiz-adv-x="563" d="M135 1284h285l8 -1157l-283 -129z" />
<glyph unicode="&#x662;" horiz-adv-x="1044" d="M137 887q-3 211 107.5 304t322.5 93h342v-242h-254q-95 0 -142.5 -20.5t-68.5 -76t-20 -165.5q0 -25 10 -653l-284 -131z" />
<glyph unicode="&#x663;" horiz-adv-x="1204" d="M135 1284h291q2 -240 2 -362v-2q12 -18 22 -24.5t33 -6.5q8 0 13.5 2.5t8.5 8.5t4.5 12.5t1.5 18.5t-0.5 22t-1.5 28t-1 31q0 17 -2 111.5t-4 160.5h243q7 -364 7 -369q1 -2 5 -7t5.5 -6.5t6 -4.5t8.5 -4.5t11 -2.5t15 -1q11 0 17 4.5t7.5 16.5t1 24t-2 35.5t-1.5 42.5 q0 17 -2 111.5t-4 160.5h246q0 -59 2 -192.5t2 -169.5q0 -62 -8 -100.5t-35 -84.5q-28 -49 -88 -73t-131 -12.5t-123 59.5q-48 -56 -131 -54.5t-125 50.5l6 -578l-287 -135z" />
<glyph unicode="&#x664;" horiz-adv-x="1040" d="M137 383q0 206 150 315q-103 99 -103 230q0 75 24 135.5t68 101.5t103 68.5t130.5 38.5t149.5 9.5t162 -15.5v-232q-6 1 -16 3t-41 7t-55.5 7t-59.5 3.5t-53 -3.5q-25 -6 -33.5 -8.5t-31.5 -12t-33 -20t-19.5 -30t-9.5 -44.5q0 -130 340 -94v-240q-81 10 -151 7 t-122.5 -18.5t-82.5 -61t-31 -119.5q-1 -44 21 -76t58.5 -48t72.5 -23t73 -7h258l-151 -256h-146q-203 0 -337 113t-134 270z" />
<glyph unicode="&#x665;" horiz-adv-x="1097" d="M135 514q0 59 25 129t72.5 142t129 137.5t183.5 105.5q106 -41 190 -107.5t131.5 -138.5t72 -141t24.5 -127q0 -155 -99 -261t-252 -118q-90 -6 -135 0q-153 15 -247.5 117.5t-94.5 261.5zM401 541q0 -67 33 -106.5t78 -47.5q11 -3 29.5 -3t31.5 2l13 1q44 9 76 48 t32 106q0 56 -46 126.5t-101 100.5q-54 -32 -99.5 -100.5t-46.5 -126.5z" />
<glyph unicode="&#x666;" horiz-adv-x="1044" d="M135 1042v242h332q219 0 327 -90t111 -297v-9q0 -9 0.5 -31.5t0.5 -57t0.5 -94.5t1 -136t1 -190t0.5 -248l-274 -133q-1 313 -2.5 507.5t-2.5 232.5l-1 38q-1 158 -54.5 212t-201.5 54h-238z" />
<glyph unicode="&#x667;" horiz-adv-x="1200" d="M135 1104l223 194l242 -776l242 776l223 -194l-338 -1102h-254z" />
<glyph unicode="&#x668;" horiz-adv-x="1200" d="M135 197l340 1101h252l338 -1101l-223 -195l-242 776l-240 -776z" />
<glyph unicode="&#x669;" horiz-adv-x="1130" d="M135 899q0 159 119.5 274t284.5 115q117 0 205.5 -39t141 -108.5t78.5 -157.5t27 -195l4 -665l-286 -129q-2 397 -4 559q-85 -50 -187 -47q-178 3 -280.5 111.5t-102.5 281.5zM417 932q-6 -31 2.5 -62t24.5 -56.5t45 -41.5t64 -16q58 1 94.5 41.5t36.5 95.5 q0 67 -34.5 110.5t-96.5 43.5q-40 0 -70.5 -16.5t-45 -42t-20.5 -56.5z" />
<glyph unicode="&#x66a;" horiz-adv-x="827" d="M72 74l512 1206l172 -86l-512 -1206zM115 979v258h276v-258h-276zM455 72v258h274v-258h-274z" />
<glyph unicode="&#x66b;" horiz-adv-x="434" d="M0 -154q76 68 121 127t45 119q0 33 -16 41.5t-52 5.5v228h244v-226q0 -42 -18 -84t-53.5 -82.5t-63 -66t-70.5 -62.5h-137z" />
<glyph unicode="&#x66c;" horiz-adv-x="434" d="M0 -154q76 68 121 127t45 119q0 33 -16 41.5t-52 5.5v228h244v-226q0 -42 -18 -84t-53.5 -82.5t-63 -66t-70.5 -62.5h-137z" />
<glyph unicode="&#x66d;" horiz-adv-x="1024" d="M115 502l239 -191l-106 -284l35 -27l233 193l232 -193l34 31l-104 282l237 189l-18 41l-283 -41l-77 293h-41l-80 -293l-283 43z" />
<glyph unicode="&#x670;" d="M47 1442h131v438h-131v-438z" />
<glyph unicode="&#x67e;" horiz-adv-x="1585" d="M72 780h282q0 -89 9.5 -164t33 -142.5t59.5 -115t92 -75t128 -27.5h518q25 0 37 16.5t12 57.5q-1 72 -4.5 197t-5.5 253h287q4 -215 4 -561q0 -110 -63.5 -164.5t-160.5 -54.5h-636q-117 0 -211.5 33t-157.5 92.5t-108 133.5t-69.5 165t-35 177t-10.5 179zM627 -162h221 v-215h-221v215zM780 -451h221v-213h-221v213zM938 -162h223v-215h-223v215z" />
<glyph unicode="&#x686;" horiz-adv-x="1208" d="M72 -2q0 112 48.5 210t145.5 162t223 64h340q-14 67 -43.5 114t-67.5 69.5t-73 32t-72 9.5q-117 -2 -231 -102l-104 213q6 6 17.5 15t49 33t77 42.5t99.5 33.5t119 15q100 0 184 -30.5t139.5 -79.5t97 -114.5t63 -130.5t30.5 -134l33 -242h-610q-95 0 -141 -46t-46 -132 q0 -79 58 -129.5t129 -50.5h305v-256h-353q-184 0 -300.5 126t-116.5 308zM543 16v125h131v-125h-131zM635 -29h131v-125h-131v125zM727 16v125h131v-125h-131z" />
<glyph unicode="&#x698;" horiz-adv-x="743" d="M-96 -217q82 6 165.5 36t156.5 78.5t119 122.5t46 158l-2 602h285l8 -579q-11 -269 -166 -442.5t-420 -194.5q-37 41 -90 103.5t-102 115.5zM76 938v240h248v-240h-248zM250 1257v238h244v-238h-244zM424 938v240h248v-240h-248z" />
<glyph unicode="&#x6a4;" horiz-adv-x="1593" d="M72 780h282q0 -89 9.5 -164t33 -142.5t59.5 -115t92 -75t128 -27.5h3h4h4h3h4h3h4h3h4h3h4h3h4h3h4h3h4h3h4h3h4h3h4h3h4h3h4h3h4h4h3h4h3h4h3h4h3h4h4h3h4h3h4h3h4h3h4h4h3h4h3h4h3h4h4h3h4h3h4h4h3h4h3h4h4h3h4h4h3h4h3h4h4h3h4h4h3h4h4h3h4h4h3h4h4h3h4h4h3h4h4h3h4h4 h4h3h4h4h4h3h4h4h4h3h4h4h4h4h3h4h4h4h4h4h3h4h4h4h4h4h4h4h4h4h4h4h4h4h4h4h4h5h4h4h5h4h5h4h9q27 0 40 13.5t13 47.5v17h-145q-112 0 -199 57t-130 143.5t-40 182.5q7 209 153 322q119 91 277 86q155 -5 258 -98q108 -97 109 -253q1 -79 1 -177t-0.5 -217t-0.5 -177 q2 -94 -56 -148.5t-161 -54.5h-651q-117 0 -211.5 33t-157.5 92.5t-108 133.5t-69.5 165t-35 177t-10.5 179zM842 1288v240h248v-240h-248zM1014 700.5q6 -47.5 39 -81t84 -33.5h112q-4 136 -4 209q0 45 -23.5 79.5t-78.5 34.5q-48 0 -82.5 -33.5t-43.5 -80.5t-3 -94.5z M1014 1608v237h248v-237h-248zM1190 1288v240h248v-240h-248z" />
<glyph unicode="&#x6f0;" horiz-adv-x="655" d="M180 90v350l295 133v-348z" />
<glyph unicode="&#x6f1;" horiz-adv-x="563" d="M135 1284h285l8 -1157l-283 -129z" />
<glyph unicode="&#x6f2;" horiz-adv-x="1044" d="M137 887q-3 211 107.5 304t322.5 93h342v-242h-254q-95 0 -142.5 -20.5t-68.5 -76t-20 -165.5q0 -25 10 -653l-284 -131z" />
<glyph unicode="&#x6f3;" horiz-adv-x="1204" d="M135 1284h291q2 -240 2 -362v-2q12 -18 22 -24.5t33 -6.5q8 0 13.5 2.5t8.5 8.5t4.5 12.5t1.5 18.5t-0.5 22t-1.5 28t-1 31q0 17 -2 111.5t-4 160.5h243q7 -364 7 -369q1 -2 5 -7t5.5 -6.5t6 -4.5t8.5 -4.5t11 -2.5t15 -1q11 0 17 4.5t7.5 16.5t1 24t-2 35.5t-1.5 42.5 q0 17 -2 111.5t-4 160.5h246q0 -59 2 -192.5t2 -169.5q0 -62 -8 -100.5t-35 -84.5q-28 -49 -88 -73t-131 -12.5t-123 59.5q-48 -56 -131 -54.5t-125 50.5l6 -578l-287 -135z" />
<glyph unicode="&#x6f4;" horiz-adv-x="1040" d="M137 383q0 206 150 315q-103 99 -103 230q0 75 24 135.5t68 101.5t103 68.5t130.5 38.5t149.5 9.5t162 -15.5v-232q-6 1 -16 3t-41 7t-55.5 7t-59.5 3.5t-53 -3.5q-25 -6 -33.5 -8.5t-31.5 -12t-33 -20t-19.5 -30t-9.5 -44.5q0 -130 340 -94v-240q-81 10 -151 7 t-122.5 -18.5t-82.5 -61t-31 -119.5q-1 -44 21 -76t58.5 -48t72.5 -23t73 -7h258l-151 -256h-146q-203 0 -337 113t-134 270z" />
<glyph unicode="&#x6f5;" horiz-adv-x="1097" d="M135 514q0 59 25 129t72.5 142t129 137.5t183.5 105.5q106 -41 190 -107.5t131.5 -138.5t72 -141t24.5 -127q0 -155 -99 -261t-252 -118q-90 -6 -135 0q-153 15 -247.5 117.5t-94.5 261.5zM401 541q0 -67 33 -106.5t78 -47.5q11 -3 29.5 -3t31.5 2l13 1q44 9 76 48 t32 106q0 56 -46 126.5t-101 100.5q-54 -32 -99.5 -100.5t-46.5 -126.5z" />
<glyph unicode="&#x6f6;" horiz-adv-x="1044" d="M135 1042v242h332q219 0 327 -90t111 -297v-9q0 -9 0.5 -31.5t0.5 -57t0.5 -94.5t1 -136t1 -190t0.5 -248l-274 -133q-1 313 -2.5 507.5t-2.5 232.5l-1 38q-1 158 -54.5 212t-201.5 54h-238z" />
<glyph unicode="&#x6f7;" horiz-adv-x="1200" d="M135 1104l223 194l242 -776l242 776l223 -194l-338 -1102h-254z" />
<glyph unicode="&#x6f8;" horiz-adv-x="1200" d="M135 197l340 1101h252l338 -1101l-223 -195l-242 776l-240 -776z" />
<glyph unicode="&#x6f9;" horiz-adv-x="1130" d="M135 899q0 159 119.5 274t284.5 115q117 0 205.5 -39t141 -108.5t78.5 -157.5t27 -195l4 -665l-286 -129q-2 397 -4 559q-85 -50 -187 -47q-178 3 -280.5 111.5t-102.5 281.5zM417 932q-6 -31 2.5 -62t24.5 -56.5t45 -41.5t64 -16q58 1 94.5 41.5t36.5 95.5 q0 67 -34.5 110.5t-96.5 43.5q-40 0 -70.5 -16.5t-45 -42t-20.5 -56.5z" />
<glyph unicode="&#x2000;" horiz-adv-x="1019" />
<glyph unicode="&#x2001;" horiz-adv-x="2039" />
<glyph unicode="&#x2002;" horiz-adv-x="1019" />
<glyph unicode="&#x2003;" horiz-adv-x="2039" />
<glyph unicode="&#x2004;" horiz-adv-x="679" />
<glyph unicode="&#x2005;" horiz-adv-x="509" />
<glyph unicode="&#x2006;" horiz-adv-x="339" />
<glyph unicode="&#x2007;" horiz-adv-x="339" />
<glyph unicode="&#x2008;" horiz-adv-x="254" />
<glyph unicode="&#x2009;" horiz-adv-x="407" />
<glyph unicode="&#x200a;" horiz-adv-x="113" />
<glyph unicode="&#x200c;" horiz-adv-x="40" d="M0 0h41v1479h-41v-1479z" />
<glyph unicode="&#x200d;" horiz-adv-x="40" d="M-104 1358l28 -27l76 76v-1407h41v1407l76 -76l28 27l-96 98l96 96l-28 29l-97 -98l-96 98l-28 -29l98 -96z" />
<glyph unicode="&#x200e;" horiz-adv-x="40" d="M0 0h41v1438h160l-78 -78l29 -29l122 125l-122 125l-29 -29l74 -73h-197v-1479z" />
<glyph unicode="&#x200f;" horiz-adv-x="40" d="M-233 1456l122 -125l29 29l-78 78h160v-1438h41v1479h-197l74 73l-29 29z" />
<glyph unicode="&#x2010;" horiz-adv-x="929" d="M49 393h862v80h-862v-80z" />
<glyph unicode="&#x2011;" horiz-adv-x="1097" d="M72 328v237h954v-235z" />
<glyph unicode="&#x2012;" horiz-adv-x="1097" d="M72 328v237h954v-235z" />
<glyph unicode="&#x2013;" horiz-adv-x="1167" d="M72 328v237h1024v-235z" />
<glyph unicode="&#x2014;" horiz-adv-x="2191" d="M72 328v237h2048v-235z" />
<glyph unicode="&#x201c;" horiz-adv-x="702" d="M55 938v225q0 41 18 82.5t54.5 82t63 66t71.5 62.5h135q-75 -65 -120.5 -124.5t-45.5 -119.5q0 -32 17 -42t53 -7v-225h-246zM365 938v225q0 42 18 84t54 82.5t63 66t71 62.5h134q-76 -68 -121 -127t-45 -119q0 -32 16.5 -41t54.5 -6v-227h-245z" />
<glyph unicode="&#x201d;" horiz-adv-x="702" d="M-4 938q76 68 121 127t45 119q0 33 -16 42t-54 7v223h246q0 -58 1 -125t1 -98q0 -41 -18 -82.5t-55.5 -83.5t-63 -66t-70.5 -63h-137zM305 938q50 46 79.5 77t58 79t28.5 90q0 33 -16.5 42.5t-53.5 6.5v225h246v-225q0 -41 -18.5 -83t-54 -82.5t-63.5 -67t-71 -62.5h-135 z" />
<glyph unicode="&#x202f;" horiz-adv-x="407" />
<glyph unicode="&#x205f;" horiz-adv-x="509" />
<glyph unicode="&#x2421;" horiz-adv-x="1452" d="M78 117h194q42 0 84 10q162 40 162 260q0 217 -162 254q-27 8 -94 8h-184v-532zM150 180v406h112q57 0 90 -11q94 -37 94 -188q0 -114 -53 -170q-40 -37 -129 -37h-114zM582 117h399v63h-326v180h293v64h-293v162h314v63h-387v-532zM1047 117h333v63h-260v469h-73v-532z " />
<glyph unicode="&#x25fc;" horiz-adv-x="1024" d="M0 0z" />
<glyph unicode="&#xfd3e;" horiz-adv-x="620" d="M45 567q0 118 23 221t71.5 196.5t105.5 172.5t142 174l199 -82q-146 -144 -235 -324.5t-89 -369.5q0 -292 305 -649l-198 -80q-324 372 -324 741z" />
<glyph unicode="&#xfd3f;" horiz-adv-x="655" d="M72 1249l196 82q85 -95 142 -174t105.5 -172.5t71.5 -196.5t23 -221q0 -372 -321 -741l-201 80q305 357 305 649q0 188 -88.5 369t-232.5 325z" />
<glyph unicode="&#xfeff;" />
<glyph horiz-adv-x="681" />
<glyph horiz-adv-x="573" />
<glyph horiz-adv-x="559" />
<glyph />
</font>
</defs>
</svg>
