<?xml version="1.0" standalone="no"?>
<!DOCTYPE svg PUBLIC "-//W3C//DTD SVG 1.1//EN" "http://www.w3.org/Graphics/SVG/1.1/DTD/svg11.dtd" >
<svg xmlns="http://www.w3.org/2000/svg" xmlns:xlink="http://www.w3.org/1999/xlink" version="1.1">
<metadata></metadata>
<defs>
<font id="ge_ssultralight" horiz-adv-x="0" >
<font-face units-per-em="2048" ascent="1638" descent="-410" />
<missing-glyph horiz-adv-x="450" />
<glyph unicode="&#x627;&#x653;" horiz-adv-x="385" d="M-12 1450h49q6 79 80 82q42 3 108 -29q73 -30 117 -30q59 0 97 42.5t46 112.5h-53q-5 -36 -30.5 -62t-59.5 -26q-31 0 -104 33q-70 33 -121 33q-58 0 -93.5 -46t-35.5 -110zM205 1329l10 -1329h107l-11 1329h-106z" />
<glyph unicode="&#x627;&#x654;" horiz-adv-x="385" d="M55 1448h332v59h-78q-53 0 -83.5 29t-30.5 70q0 102 84 102q50 0 75 -41l27 47q-44 47 -105 47q-66 0 -104.5 -42t-38.5 -109q0 -60 43 -103h-92zM205 1329l10 -1329h107l-11 1329h-106z" />
<glyph unicode="&#x648;&#x654;" horiz-adv-x="899" d="M209 354q0 -144 84.5 -249t210.5 -105h201q-39 -141 -159.5 -244t-256.5 -106q19 -45 45 -92q213 21 364 204q39 46 64.5 88.5t40 78t21.5 86t9 90.5t4 115q1 34 1 52v164q0 316 -303 316q-140 0 -233 -110.5t-93 -287.5zM299 874h418v72h-96q-66 0 -106 38.5t-40 100.5 q0 56 28 86.5t81 30.5q58 0 94 -51l33 59q-52 58 -129 58q-85 0 -135 -52.5t-50 -138.5q0 -72 56 -131h-115zM326 375q0 137 63 224t162 87q169 0 172 -203q4 -246 4 -299q0 -18 -1 -45t-1 -39h-184q-96 0 -155.5 81.5t-59.5 193.5z" />
<glyph unicode="&#x627;&#x655;" horiz-adv-x="385" d="M74 -424h332v59h-78q-53 0 -83 29t-32 70q-3 99 86 102q46 3 76 -41l24 47q-41 47 -102 47q-67 0 -106 -42t-39 -109q0 -60 43 -103h-93zM205 1329l10 -1329h107l-11 1329h-106z" />
<glyph unicode="&#x64a;&#x654;" horiz-adv-x="1234" d="M70 553h383v70h-91q-63 0 -96 36q-28 28 -28 70q-6 109 90 109q50 3 88 -47l30 59q-47 50 -120 53q-74 0 -120 -46.5t-46 -115.5q0 -67 45 -118h-96zM119 371q2 -70 2 -238q0 -241 155 -409q156 -170 373 -170q219 0 375 170q158 172 152 405l-7 248h-503q-3 297 208 297 q122 0 168 -117l84 39q-83 170 -256 170q-328 0 -313 -494h504l2 -137q3 -194 -119 -334q-121 -139 -297 -139t-295 137q-121 139 -127 330q-2 80 -2 242h-104z" />
<glyph unicode="&#x64c;&#x651;" arabic-form="isolated" d="M-31 1915q44 35 76 35q24 0 40.5 -20t16.5 -46q0 -53 -77 -112q21 -62 26 -62q46 -6 90 -6q119 0 190.5 45.5t71.5 108.5q0 29 -18 59q-30 47 -88 47q-29 0 -49 -14q-47 -38 -47 -86q0 -9 4 -29q6 -27 37 -63q-72 -28 -176 -7q92 53 92 136q0 65 -68 86q-8 2 -22 2 q-58 0 -99 -74zM25 1487q0 -39 24 -66q26 -33 76 -30q57 3 86 69q35 -71 84 -74t76 31q22 28 22 70v158h-57v-142q0 -31 -11 -44t-36 -11q-49 0 -49 88v111l-60 -2v-111q0 -86 -51 -86q-23 -1 -34 12.5t-11 42.5v144l-59 -2v-158zM250 1855q0 36 33 50q16 8 36 8 q46 0 46 -43q0 -53 -84 -80q-5 6 -12 16t-9 13q-10 17 -10 36z" />
<glyph unicode="&#x64d;&#x651;" arabic-form="isolated" d="M20 1401h269q85 0 100 61l-280 -6q-65 -6 -89 -55zM51 1739q0 -43 26.5 -70t74.5 -27q56 3 86 70q35 -74 84 -74q48 -3 75 31q23 30 23 70v159h-58v-141q0 -32 -11 -45.5t-36 -13.5q-49 3 -49 88v112h-59v-112q0 -85 -51 -88q-47 0 -47 59v141h-58v-159zM61 1518h267 q88 3 100 61l-281 -4q-63 -9 -86 -57z" />
<glyph unicode="&#x64e;&#x651;" arabic-form="isolated" d="M31 1769h268q86 3 98 62l-280 -4q-62 -6 -86 -58zM33 1507q0 -43 26 -69.5t74 -26.5q54 3 84 68q35 -71 84 -74q49 0 76 35q24 27 24 67v160h-61v-141q3 -60 -43 -60q-51 0 -51 88v113h-60v-113q0 -88 -51 -88q-45 0 -45 60v141h-57v-160z" />
<glyph unicode="&#x64f;&#x651;" arabic-form="isolated" d="M-2 1798q19 -59 25 -65q73 -13 120 -13q108 0 168 45q70 52 70 109q0 26 -16 55q-27 49 -91 49q-24 0 -45 -12q-51 -29 -51 -86q0 -9 4 -25q2 -25 33 -67q-24 -8 -72 -8q-66 0 -145 18zM18 1497q0 -43 27 -69.5t76 -26.5q55 0 84 69q34 -73 84 -73q53 -3 76 30 q24 27 24 70v160h-59v-141q0 -60 -45 -60q-49 3 -49 88v113h-64v-113q0 -85 -49 -88q-45 0 -45 60v141h-60v-160zM227 1870q0 36 35 51q13 8 33 8q36 0 45 -33q15 -63 -86 -90q-2 4 -7.5 11.5t-7 10.5t-5 9t-4.5 10t-2 10t-1 13z" />
<glyph unicode="&#x650;&#x651;" arabic-form="isolated" d="M57 1325q269 0 269 -2q88 3 100 61l-281 -4q-61 -6 -88 -55zM70 1536q0 -43 26.5 -69.5t75.5 -26.5q55 0 84 69q34 -73 84 -73q50 -3 76 30q24 27 24 70v160h-61l2 -142q0 -59 -45 -59q-49 3 -49 88v113h-64v-113q0 -85 -49 -88q-45 0 -45 59v142h-59v-160z" />
<glyph unicode="&#xfe8e;&#x64b;" horiz-adv-x="641" arabic-form="final" d="M55 1458q269 0 269 -2q87 3 100 64l-281 -4q-64 -9 -88 -58zM96 1575h269q85 0 98 63l-281 -6q-63 -6 -86 -57zM205 1329l6 -1106q0 -102 72 -168q58 -55 127 -55h252v98h-222q-45 0 -81.5 42t-36.5 98l-11 1091h-106z" />
<glyph unicode="&#x627;&#x64b;" horiz-adv-x="385" arabic-form="isolated" d="M55 1458q269 0 269 -2q87 3 100 64l-281 -4q-64 -9 -88 -58zM96 1575h269q86 3 98 63l-281 -6q-63 -6 -86 -57zM205 1329l10 -1329h107l-11 1329h-106z" />
<glyph unicode="&#xfedf;&#xfee0;&#xfeea;" horiz-adv-x="1935" arabic-form="isolated" d="M70 518q0 -274 231 -274h303q0 -105 53.5 -174.5t145.5 -69.5h225q89 0 160.5 50t95.5 136q14 -77 76 -131.5t139 -54.5h148q108 6 165.5 75t57.5 187q-4 856 -4 1067h-109q4 -848 4 -1065q0 -83 -38 -123.5t-119 -40.5h-58l-61 -2q-73 -2 -132.5 71.5t-62.5 174.5 q-12 624 -12 985h-109q1 -91 7 -480t6 -587q0 -68 -54.5 -116t-130.5 -48l-190 2l-4 -2q-103 0 -103 133l-2 633h-104v-102q-117 117 -248 117q-121 0 -198.5 -99t-77.5 -262zM182 510q0 130 55 209.5t146 79.5q65 0 125.5 -40t85.5 -100l2 -323h-277q-137 0 -137 174z M1020 1522q0 -42 25 -69.5t67 -27.5q64 0 92 68q38 -74 86 -74q43 0 71 29t28 74v159h-60l2 -143q0 -31 -11.5 -44t-35.5 -13q-51 0 -51 88v112h-59v-112q0 -88 -50 -88q-47 0 -47 59v141h-57v-159z" />
<glyph unicode="&#xfedf;&#xfe82;" horiz-adv-x="806" arabic-form="isolated" d="M51 1450h49q6 79 80 82h8q36 0 101 -27q68 -32 117 -32q59 0 97 42.5t46 112.5h-53q-5 -36 -30.5 -62t-59.5 -26q-32 0 -105 33q-70 33 -121 33q-58 0 -93.5 -46t-35.5 -110zM154 0h137q221 0 337.5 109t116.5 307l-10 913h-106q3 -243 5.5 -472.5t3.5 -328t1 -112.5 q0 -177 -135 -258q-97 -60 -228 -60h-122v-98zM246 1329q8 -732 8 -1085q64 6 108 35l-10 1050h-106z" />
<glyph unicode="&#xfee0;&#xfe82;" horiz-adv-x="1112" arabic-form="final" d="M51 1450h49q6 82 88 82q22 0 108 -29.5t110 -29.5q59 0 97 42.5t46 112.5h-53q-5 -36 -30.5 -62t-59.5 -26q-10 0 -103 33t-123 33q-58 0 -93.5 -46t-35.5 -110zM154 0h137q351 0 434 262q7 -34 18 -76q13 -63 64 -120q66 -66 151 -66h170v98h-184q-70 0 -125 64 q-68 71 -71 182q-12 877 -13 985h-106q3 -243 5.5 -472.5t3.5 -328t1 -112.5q0 -180 -135 -258q-97 -60 -228 -60h-122v-98zM246 1329q8 -732 8 -1081q75 0 108 22l-10 1059h-106z" />
<glyph unicode="&#xfedf;&#xfe84;" horiz-adv-x="806" arabic-form="isolated" d="M135 1448h332v59h-78q-52 0 -83.5 29.5t-31.5 69.5q0 52 19.5 77t64.5 25q52 0 76 -41l27 47q-44 47 -105 47q-66 0 -104.5 -42t-38.5 -109q0 -60 43 -103h-92zM154 0h137q221 0 337.5 109t116.5 307l-10 913h-106q3 -243 5.5 -472.5t3.5 -328t1 -112.5q0 -177 -135 -258 q-97 -60 -228 -60h-122v-98zM246 1329q8 -732 8 -1085q64 6 108 35l-10 1050h-106z" />
<glyph unicode="&#xfee0;&#xfe84;" horiz-adv-x="1112" arabic-form="final" d="M113 1448h331v59h-77q-52 0 -83.5 29.5t-31.5 69.5q0 52 19.5 77t64.5 25q52 0 76 -41l26 47q-44 47 -104 47q-66 0 -105 -42t-39 -109q0 -60 43 -103h-92zM154 0h137q351 0 434 262q7 -34 18 -76q13 -63 64 -120q66 -66 151 -66h170v98h-184q-70 0 -125 64 q-68 71 -71 182q-12 877 -13 985h-106q3 -243 5.5 -472.5t3.5 -328t1 -112.5q0 -180 -135 -258q-97 -60 -228 -60h-122v-98zM246 1329q8 -732 8 -1081q75 0 108 22l-10 1059h-106z" />
<glyph unicode="&#xfedf;&#xfe88;" horiz-adv-x="806" arabic-form="isolated" d="M94 -424h332v59h-78q-52 0 -83.5 29.5t-31.5 69.5q0 102 86 102q48 0 76 -41l25 47q-41 47 -103 47q-67 0 -106 -42t-39 -109q0 -60 43 -103h-92zM154 0h137q221 0 337.5 109t116.5 307l-10 913h-106q3 -243 5.5 -472.5t3.5 -328t1 -112.5q0 -177 -135 -258 q-97 -60 -228 -60h-122v-98zM246 1329q8 -732 8 -1085q64 6 108 35l-10 1050h-106z" />
<glyph unicode="&#xfee0;&#xfe88;" horiz-adv-x="1112" arabic-form="final" d="M94 -424h332v59h-78q-52 0 -83.5 29.5t-31.5 69.5q0 102 86 102q48 0 76 -41l25 47q-41 47 -103 47q-67 0 -106 -42t-39 -109q0 -60 43 -103h-92zM154 0h137q351 0 434 262q7 -34 18 -76q13 -63 64 -120q66 -66 151 -66h170v98h-184q-70 0 -125 64q-68 71 -71 182 q-12 877 -13 985h-106q3 -243 5.5 -472.5t3.5 -328t1 -112.5q0 -180 -135 -258q-97 -60 -228 -60h-122v-98zM246 1329q8 -732 8 -1081q75 0 108 22l-10 1059h-106z" />
<glyph unicode="&#xfedf;&#xfe8e;" horiz-adv-x="806" arabic-form="isolated" d="M154 0h137q221 0 337.5 109t116.5 307l-10 913h-106q3 -243 5.5 -472.5t3.5 -328t1 -112.5q0 -177 -135 -258q-97 -60 -228 -60h-122v-98zM246 1329q8 -732 8 -1081q75 0 108 22l-10 1059h-106z" />
<glyph unicode="&#xfee0;&#xfe8e;" horiz-adv-x="1112" arabic-form="final" d="M154 0h137q351 0 434 262q7 -34 18 -76q13 -63 64 -120q66 -66 151 -66h170v98h-184q-70 0 -125 64q-68 71 -71 182q-12 877 -13 985h-106q3 -243 5.5 -472.5t3.5 -328t1 -112.5q0 -180 -135 -258q-97 -60 -228 -60h-122v-98zM246 1329q8 -732 8 -1081q75 0 108 22 l-10 1059h-106z" />
<glyph unicode="&#x671;" horiz-adv-x="385" arabic-form="isolated" d="M45 1448h410q0 210 -131 225q-38 3 -86 -22q-61 -33 -97 -109v72h-39v-127h-57v-39zM152 1491q64 144 172 141q52 -6 73 -73q8 -23 11 -68h-256zM205 1329l10 -1329h107l-11 1329h-106z" />
<glyph unicode="&#x671;" horiz-adv-x="641" arabic-form="final" d="M45 1448h410q0 107 -35.5 166t-104.5 59q-51 0 -99.5 -36.5t-74.5 -94.5v72h-39v-127h-57v-39zM152 1491q64 141 167 141q80 0 89 -141h-256zM205 1329l6 -1106q0 -102 72 -168q58 -55 127 -55h252v98h-222q-45 0 -81.5 42t-36.5 98l-11 1091h-106z" />
<glyph unicode="&#x67e;" horiz-adv-x="1685" arabic-form="final" d="M70 748l4 -134q9 -264 106 -424q117 -190 357 -190h598q169 0 184 174q15 -66 67 -115q59 -59 146 -59h172v98h-186q-69 0 -127 64q-65 71 -68 182q-4 360 -4 404h-113q2 -111 2 -510q0 -138 -108 -138h-557q-132 0 -230 88q-140 131 -149 426l-4 134h-90zM639 -168v-133 h109v133h-109zM731 -344v-133h109v133h-109zM821 -168v-133h109v133h-109z" />
<glyph unicode="&#x67e;" horiz-adv-x="534" arabic-form="initial" d="M-18 0h241q123 0 189 72q59 71 59 190l-4 486h-109q4 -458 4 -484q3 -164 -157 -164h-223v-100zM121 -168v-133h108v133h-108zM213 -344v-133h109v133h-109zM303 -168v-133h109v133h-109z" />
<glyph unicode="&#x67e;" horiz-adv-x="827" arabic-form="medial" d="M-18 0h217q79 0 147 41q87 49 113 145q12 -69 63 -120q66 -66 152 -66h172v98h-187q-69 0 -127 64q-64 70 -67 182q-4 184 -4 404h-109q1 -84 2 -247t2 -239q3 -82 -69 -129q-53 -35 -115 -35l-190 2v-100zM268 -205v-133h109v133h-109zM360 -383v-131h109v131h-109z M451 -205v-133h108v133h-108z" />
<glyph unicode="&#x6a4;" horiz-adv-x="1615" arabic-form="final" d="M70 748l4 -134q9 -264 106 -424q117 -190 357 -190h333q125 0 263 63q135 -63 260 -63h243l2 98h-274q-52 3 -129 23q229 168 229 422q0 169 -100 262q-93 90 -231 90q-142 0 -232 -90q-102 -95 -102 -262q0 -253 231 -422q-80 -20 -129 -23l-358 2q-132 0 -230 88 q-140 131 -149 426l-4 134h-90zM909 543q0 116 58 192q61 88 166 88q104 0 165 -88q56 -77 56 -192q0 -143 -90 -262q-79 -97 -131 -97q-55 0 -134 97q-90 119 -90 262zM971 1057h110v133h-110v-133zM1077 1257h109v132h-109v-132zM1184 1057h110v133h-110v-133z" />
<glyph unicode="&#x6a4;" horiz-adv-x="835" arabic-form="initial" d="M-18 0h600q183 0 192 160v499q0 323 -307 320q-117 0 -205 -82q-115 -103 -121 -299q-6 -146 78 -256q82 -104 217 -104h236v-33q0 -105 -103 -105h-587v-100zM260 610q4 140 66.5 222.5t156.5 82.5q176 0 179 -206l4 -373h-193q-99 0 -160 82q-56 73 -53 192zM305 1145 h111v131h-111v-131zM414 1343h108v134h-108v-134zM520 1145h111v131h-111v-131z" />
<glyph unicode="&#x6a4;" horiz-adv-x="964" arabic-form="medial" d="M-25 98l2 -98h244q123 0 258 63q138 -63 264 -63h244l2 98h-276q-49 3 -129 23q231 169 231 422q0 169 -100 262q-96 90 -234 90t-231 -90q-103 -95 -103 -262q0 -252 232 -422q-77 -20 -129 -23h-275zM260 543q0 115 53 192q64 88 168 88q105 0 166 -88q58 -76 58 -192 q0 -143 -93 -262q-79 -97 -133 -97q-50 0 -129 97q-90 119 -90 262zM317 1057h111v133h-111v-133zM426 1257h109v132h-109v-132zM532 1057h111v133h-111v-133z" />
<glyph unicode="&#x686;" horiz-adv-x="1288" arabic-form="final" d="M70 -35q0 -170 116 -289q117 -120 281 -120h268v106l-252 -2q-124 0 -213 92q-88 88 -88 219t88 219q90 93 213 93h383q18 -123 88 -199q78 -84 191 -84h162v98h-168q-56 0 -105 43q-57 48 -63 125q-43 611 -445 635q-133 6 -276 -76l39 -77q144 60 233 57 q270 -9 338 -416h-424q-150 0 -258 -129t-108 -295zM416 -18h108v131h-108v-131zM506 -66v-133h110v133h-110zM596 -18h111v131h-111v-131z" />
<glyph unicode="&#x686;" horiz-adv-x="1042" arabic-form="initial" d="M-18 0h999q-3 327 -113 522q-136 244 -422 244q-168 0 -307 -80l43 -88q136 74 273 74q170 0 286 -152q120 -156 123 -420h-882v-100zM342 -168v-133h111v133h-111zM434 -344v-133h109v133h-109zM524 -168v-133h109v133h-109z" />
<glyph unicode="&#x686;" horiz-adv-x="1167" arabic-form="medial" d="M-18 0h905h297v100h-205q-21 295 -133 461q-138 205 -400 205q-168 0 -307 -80l43 -88q136 74 273 74q170 0 286 -152q120 -156 123 -420h-882v-100zM342 -168v-133h111v133h-111zM434 -344v-133h109v133h-109zM524 -168v-133h109v133h-109z" />
<glyph unicode="&#x698;" horiz-adv-x="815" arabic-form="final" d="M-96 -350q25 -59 43 -92q222 21 360 190q137 168 146 416q17 -63 65 -107q60 -57 144 -57h172v98h-187q-69 0 -127 64q-67 70 -67 182l-4 404h-109l2 -578q0 -213 -119 -356q-128 -155 -319 -164zM123 956h110v131h-110v-131zM231 1155h109v133h-109v-133zM338 956h111 v131h-111v-131z" />
<glyph unicode="&#x6cc;" horiz-adv-x="534" arabic-form="initial" d="M-18 0h241q123 0 189 72q59 71 59 190l-4 486h-109q4 -458 4 -484q3 -164 -157 -164h-223v-100zM88 -203v-133h109v133h-109zM303 -203v-133h109v133h-109z" />
<glyph unicode="&#x6cc;" horiz-adv-x="827" arabic-form="medial" d="M-18 0h217q79 0 147 41q87 49 113 145q12 -69 63 -120q66 -66 152 -66h172v98h-187q-69 0 -127 64q-64 70 -67 182q-4 184 -4 404h-109q1 -84 2 -247t2 -239q3 -82 -69 -129q-53 -35 -115 -35l-190 2v-100zM252 -203v-133h108v133h-108zM467 -203v-133h108v133h-108z" />
<glyph unicode="&#x622;" horiz-adv-x="641" arabic-form="final" d="M10 1450h49q6 82 88 82q22 0 108 -29.5t110 -29.5q59 0 97 42.5t46 112.5h-53q-5 -36 -30.5 -62t-59.5 -26q-10 0 -103 33t-123 33q-58 0 -93.5 -46t-35.5 -110zM205 1329l6 -1106q0 -102 72 -168q58 -55 127 -55h252v98h-222q-45 0 -81.5 42t-36.5 98l-11 1091h-106z " />
<glyph unicode="&#x623;" horiz-adv-x="641" arabic-form="final" d="M55 1448h332v59h-78q-52 0 -83 29.5t-31 69.5q0 52 19.5 77t64.5 25q51 0 75 -41l27 47q-44 47 -105 47q-66 0 -104.5 -42t-38.5 -109q0 -60 43 -103h-92zM205 1329l6 -1106q0 -102 72 -168q58 -55 127 -55h252v98h-222q-45 0 -81.5 42t-36.5 98l-11 1091h-106z" />
<glyph unicode="&#x624;" horiz-adv-x="1087" arabic-form="final" d="M209 354q0 -144 84.5 -249t210.5 -105h201q-39 -141 -159.5 -244t-256.5 -106q19 -45 45 -92q171 17 308.5 142.5t178.5 299.5h285v100h-270v4q-1 15 -0.5 28t1.5 56t1 84v164q0 316 -303 316q-140 0 -233 -110.5t-93 -287.5zM279 874h417v72h-96q-66 0 -105.5 38.5 t-39.5 100.5q0 56 27.5 86.5t80.5 30.5q58 0 94 -51l33 59q-52 58 -129 58q-85 0 -134.5 -52.5t-49.5 -138.5q0 -73 55 -131h-115zM326 375q0 137 63 224t162 87q45 0 76 -12t50.5 -36t30 -61t14.5 -86t4.5 -110.5t-0.5 -136.5q-1 -93 -1 -144h-184q-96 0 -155.5 81.5 t-59.5 193.5z" />
<glyph unicode="&#x625;" horiz-adv-x="569" arabic-form="final" d="M-80 -424h332v59h-78q-53 0 -83 29t-32 70q-3 99 86 102q46 3 76 -41l25 47q-41 47 -103 47q-67 0 -106 -42t-39 -109q0 -60 43 -103h-92zM133 1329l6 -1106q3 -105 72 -168q58 -55 127 -55h252v98h-221q-45 0 -82 42t-37 98l-10 1091h-107z" />
<glyph unicode="&#x626;" horiz-adv-x="1673" arabic-form="final" d="M70 365q0 -17 4 -127q4 -102 4 -105q0 -235 153 -405q153 -172 373 -172q235 0 385 170q145 168 139 405l-8 242h-364q0 122 70 200.5t180 77.5q144 -3 217 -151q31 -68 80 -275q23 -104 90 -168q57 -57 133 -57h166v100l-142 -2q-119 0 -149 146q-50 246 -107 342 q-95 164 -286 164q-361 0 -367 -482h379l6 -133q6 -194 -111 -332q-121 -145 -311 -145q-176 0 -301 143q-123 141 -123 330q0 45 -2 100t-2 134h-106zM72 553h383v70h-90q-64 0 -97 36q-27 27 -30 70q-3 109 92 109q51 0 86 -47l33 59q-48 51 -121 51q-76 1 -121 -44.5 t-45 -115.5q0 -67 45 -118h-98z" />
<glyph unicode="&#x626;" horiz-adv-x="532" arabic-form="initial" d="M-20 0h243q123 0 189 72q59 71 59 190q-4 466 -4 486h-109q4 -458 4 -484q3 -164 -157 -164h-225v-100zM80 954h381l-2 72h-90q-60 0 -95 35q-27 30 -30 72q-3 105 94 108q49 0 84 -47l33 59q-49 52 -119 52q-78 3 -125 -50q-43 -46 -43 -110q0 -68 45 -119h-96z" />
<glyph unicode="&#x626;" horiz-adv-x="827" arabic-form="medial" d="M-18 0h217q79 0 147 41q87 49 113 145q12 -69 63 -120q66 -66 152 -66h172v98h-187q-69 0 -127 64q-64 70 -67 182q-4 184 -4 404h-109q1 -84 2 -247t2 -239q3 -82 -69 -129q-53 -35 -115 -35l-190 2v-100zM193 954h380v72h-90q-59 0 -94 35q-28 31 -31 72q-6 105 93 108 q51 0 86 -47l32 59q-52 52 -120 52q-76 1 -121 -45t-45 -115q0 -67 43 -119h-95z" />
<glyph unicode="&#x627;" horiz-adv-x="641" arabic-form="final" d="M205 1329l6 -1106q0 -102 72 -168q58 -55 127 -55h252v98h-222q-45 0 -81.5 42t-36.5 98l-11 1091h-106z" />
<glyph unicode="&#x628;" horiz-adv-x="1683" arabic-form="final" d="M70 748l4 -134q6 -270 104 -424q120 -190 359 -190h596q171 0 186 174q15 -65 65 -115q62 -59 146 -59h172v98h-186q-69 0 -127 64q-65 71 -68 182q-4 360 -4 404h-113q4 -222 4 -510q0 -138 -110 -138h-557q-134 0 -228 88q-142 130 -151 426l-2 134h-90zM711 -203v-133 h110v133h-110z" />
<glyph unicode="&#x628;" horiz-adv-x="534" arabic-form="initial" d="M-18 0h241q123 0 189 72q59 71 59 190l-4 486h-109q4 -458 4 -484q3 -164 -157 -164h-223v-100zM303 -203v-133h109v133h-109z" />
<glyph unicode="&#x628;" horiz-adv-x="827" arabic-form="medial" d="M-18 0h217q79 0 147 41q87 49 113 145q12 -69 63 -120q66 -66 152 -66h172v98h-187q-69 0 -127 64q-64 70 -67 182q-4 184 -4 404h-109q1 -84 2 -247t2 -239q3 -82 -69 -129q-53 -35 -115 -35l-190 2v-100zM358 -203v-133h109v133h-109z" />
<glyph unicode="&#x629;" horiz-adv-x="1009" arabic-form="final" d="M70 518q0 -274 231 -274h303q-3 -94 45 -164q53 -80 154 -80h225v98h-225q-103 0 -103 133l-2 633h-104v-102q-117 117 -248 117q-105 0 -180 -78q-96 -96 -96 -283zM182 510q0 135 60 217q57 72 141 72q70 0 131 -43q57 -42 80 -97l2 -323h-277q-137 0 -137 174z M283 1081h108v131h-108v-131zM496 1081h110v131h-110v-131z" />
<glyph unicode="&#x62a;" horiz-adv-x="1685" arabic-form="final" d="M70 748l4 -134q6 -270 104 -424q120 -190 359 -190h596q171 0 186 174q15 -65 65 -115q62 -59 146 -59h172v98h-186q-69 0 -127 64q-65 71 -68 182q-4 360 -4 404h-113q4 -222 4 -510q0 -138 -110 -138h-557q-134 0 -228 88q-142 130 -151 426l-2 134h-90zM518 858h109 v133h-109v-133zM731 858h109v133h-109v-133z" />
<glyph unicode="&#x62a;" horiz-adv-x="532" arabic-form="initial" d="M-18 0h241q123 0 189 72q59 71 59 190l-4 486h-109q4 -458 4 -484q3 -164 -157 -164h-223v-100zM139 952h111v133h-111v-133zM354 952h111v133h-111v-133z" />
<glyph unicode="&#x62a;" horiz-adv-x="827" arabic-form="medial" d="M-18 0h217q79 0 147 41q87 49 113 145q12 -69 63 -120q66 -66 152 -66h172v98h-187q-69 0 -127 64q-64 70 -67 182q-4 184 -4 404h-109q1 -84 2 -247t2 -239q3 -82 -69 -129q-53 -35 -115 -35l-190 2v-100zM238 952h108v133h-108v-133zM453 952h108v133h-108v-133z" />
<glyph unicode="&#x62b;" horiz-adv-x="1685" arabic-form="final" d="M70 748l4 -134q6 -270 104 -424q120 -190 359 -190h596q171 0 186 174q15 -65 65 -115q62 -59 146 -59h172v98h-186q-69 0 -127 64q-65 71 -68 182q-4 360 -4 404h-113q4 -222 4 -510q0 -138 -110 -138h-557q-134 0 -228 88q-142 130 -151 426l-2 134h-90zM528 856h109 v133h-109v-133zM633 1055h110v133h-110v-133zM741 856h109v133h-109v-133z" />
<glyph unicode="&#x62b;" horiz-adv-x="532" arabic-form="initial" d="M-18 0h241q123 0 189 72q59 71 59 190l-4 486h-109q4 -458 4 -484q3 -164 -157 -164h-223v-100zM139 954h111v133h-111v-133zM248 1155h108v131h-108v-131zM354 954h111v133h-111v-133z" />
<glyph unicode="&#x62b;" horiz-adv-x="827" arabic-form="medial" d="M-18 0h217q79 0 147 41q87 49 113 145q12 -69 63 -120q66 -66 152 -66h172v98h-187q-69 0 -127 64q-64 70 -67 182q-4 184 -4 404h-109q1 -84 2 -247t2 -239q3 -82 -69 -129q-53 -35 -115 -35l-190 2v-100zM244 954h108v131h-108v-131zM350 1155h109v131h-109v-131z M457 954h110v131h-110v-131z" />
<glyph unicode="&#x62c;" horiz-adv-x="1288" arabic-form="final" d="M70 -35q0 -170 116 -289q117 -120 281 -120h268v106l-252 -2q-124 0 -213 92q-88 88 -88 219t88 219q90 93 213 93h383q18 -123 88 -199q78 -84 191 -84h162v98h-168q-56 0 -105 43q-57 48 -63 125q-43 611 -445 635q-133 6 -276 -76l39 -77q144 60 233 57 q270 -9 338 -416h-424q-150 0 -258 -129t-108 -295zM510 29v-133h111v133h-111z" />
<glyph unicode="&#x62c;" horiz-adv-x="1042" arabic-form="initial" d="M-18 0h999q-3 327 -113 522q-136 244 -422 244q-168 0 -307 -80l43 -88q136 74 273 74q170 0 286 -152q120 -156 123 -420h-882v-100zM420 -203v-133h110v133h-110z" />
<glyph unicode="&#x62c;" horiz-adv-x="1167" arabic-form="medial" d="M-18 0h905h297v100h-205q-21 295 -133 461q-138 205 -400 205q-168 0 -307 -80l43 -88q136 74 273 74q170 0 286 -152q120 -156 123 -420h-882v-100zM420 -203v-133h110v133h-110z" />
<glyph unicode="&#x62d;" horiz-adv-x="1288" arabic-form="final" d="M70 -35q0 -170 116 -289q117 -120 281 -120h268v106l-252 -2q-124 0 -213 92q-88 88 -88 219t88 219q90 93 213 93h383q18 -123 88 -199q78 -84 191 -84h162v98h-168q-56 0 -105 43q-57 48 -63 125q-43 611 -445 635q-133 6 -276 -76l39 -77q144 60 233 57 q270 -9 338 -416h-424q-150 0 -258 -129t-108 -295z" />
<glyph unicode="&#x62d;" horiz-adv-x="1042" arabic-form="initial" d="M-18 0h999q-3 327 -113 522q-136 244 -422 244q-168 0 -307 -80l43 -88q136 74 273 74q170 0 286 -152q120 -156 123 -420h-882v-100z" />
<glyph unicode="&#x62d;" horiz-adv-x="1167" arabic-form="medial" d="M-18 0h905h297v100h-205q-21 295 -133 461q-138 205 -400 205q-168 0 -307 -80l43 -88q136 74 273 74q170 0 286 -152q120 -156 123 -420h-882v-100z" />
<glyph unicode="&#x62e;" horiz-adv-x="1288" arabic-form="final" d="M70 -35q0 -170 116 -289q117 -120 281 -120h268v106l-252 -2q-124 0 -213 92q-88 88 -88 219t88 219q90 93 213 93h383q18 -123 88 -199q78 -84 191 -84h162v98h-168q-56 0 -105 43q-57 48 -63 125q-43 611 -445 635q-133 6 -276 -76l39 -77q144 60 233 57 q270 -9 338 -416h-424q-150 0 -258 -129t-108 -295zM518 1106h109v131h-109v-131z" />
<glyph unicode="&#x62e;" horiz-adv-x="1042" arabic-form="initial" d="M-18 0h999q-3 327 -113 522q-136 244 -422 244q-168 0 -307 -80l43 -88q136 74 273 74q170 0 286 -152q120 -156 123 -420h-882v-100zM412 967h108v133h-108v-133z" />
<glyph unicode="&#x62e;" horiz-adv-x="1167" arabic-form="medial" d="M-18 0h905h297v100h-205q-21 295 -133 461q-138 205 -400 205q-168 0 -307 -80l43 -88q136 74 273 74q170 0 286 -152q120 -156 123 -420h-882v-100zM412 967h108v133h-108v-133z" />
<glyph unicode="&#x62f;" horiz-adv-x="1085" arabic-form="final" d="M184 0h920v100h-227q-15 300 -138 480q-105 153 -247 168v-93q108 -15 192 -170q89 -165 98 -385h-567z" />
<glyph unicode="&#x630;" horiz-adv-x="1085" arabic-form="final" d="M184 0h920v100h-227q-15 300 -138 480q-105 153 -247 168v-93q108 -15 192 -170q89 -165 98 -385h-567zM492 952h110v133h-110v-133z" />
<glyph unicode="&#x631;" horiz-adv-x="815" arabic-form="final" d="M-96 -350q25 -59 43 -92q222 21 360 190q137 168 146 416q17 -63 65 -107q60 -57 144 -57h172v98h-187q-69 0 -127 64q-67 70 -67 182l-4 404h-109l2 -578q0 -213 -119 -356q-128 -155 -319 -164z" />
<glyph unicode="&#x632;" horiz-adv-x="815" arabic-form="final" d="M-96 -350q25 -59 43 -92q222 21 360 190q137 168 146 416q17 -63 65 -107q60 -57 144 -57h172v98h-187q-69 0 -127 64q-67 70 -67 182l-4 404h-109l2 -578q0 -213 -119 -356q-128 -155 -319 -164zM338 954h111v133h-111v-133z" />
<glyph unicode="&#x633;" horiz-adv-x="2551" arabic-form="final" d="M70 553q6 -354 6 -418q0 -239 153 -409q156 -172 373 -172q218 0 371 170q156 169 153 411v10l4 -4q79 -163 263 -166q182 -3 256 187q71 -191 278 -191q98 0 165.5 56t84.5 153q15 -66 66 -117q60 -63 147 -63h172v98h-186q-65 0 -121 56q-71 65 -74 159q-4 362 -2 435 h-108q1 -121 2 -242.5t1.5 -184t0.5 -83.5q0 -80 -50 -127q-45 -39 -112 -39q-107 0 -184 71q-77 74 -80 185q-4 294 -2 356h-109q1 -99 2 -205t1.5 -161.5t0.5 -79.5q0 -78 -43.5 -122t-112.5 -44q-255 0 -258 256q-2 231 -2 356h-102v-547q3 -194 -123 -332 q-127 -139 -299 -139q-176 0 -301 137q-123 138 -123 330l-2 420h-106z" />
<glyph unicode="&#x633;" horiz-adv-x="1548" arabic-form="initial" d="M-18 0h450l-2 145l4 -4q79 -163 262 -166q182 -3 256 187q71 -191 279 -191q113 0 183.5 74.5t70.5 192.5q0 199 -2 510h-109q1 -121 2 -242.5t1.5 -184t0.5 -83.5q0 -81 -49 -127q-45 -39 -112 -39q-108 0 -185 71q-77 74 -80 185q-4 294 -2 356h-108q1 -99 2 -205 t1.5 -161.5t0.5 -79.5q0 -78 -43.5 -122t-112.5 -44q-255 0 -258 256q-2 231 -2 356h-102l2 -584h-348v-100z" />
<glyph unicode="&#x633;" horiz-adv-x="1839" arabic-form="medial" d="M-18 0h450l-2 147l6 -6q79 -163 262 -166q182 -3 256 187q71 -191 279 -191q98 0 165.5 56t84.5 153q15 -67 65 -117q60 -63 148 -63h172v98h-187q-64 0 -120 56q-71 65 -74 159q-4 362 -2 435h-109q1 -121 2 -242.5t1.5 -184t0.5 -83.5q0 -81 -49 -127q-45 -39 -112 -39 q-108 0 -185 71q-77 74 -80 185q-4 294 -2 356h-108q1 -99 2 -205t1.5 -161.5t0.5 -79.5q0 -78 -43.5 -122t-112.5 -44q-255 0 -258 256q-2 231 -2 356h-102v-584h-348v-100z" />
<glyph unicode="&#x634;" horiz-adv-x="2551" arabic-form="final" d="M70 553q6 -354 6 -418q0 -239 153 -409q156 -172 373 -172q218 0 371 170q156 169 153 411v10l4 -4q79 -163 263 -166q182 -3 256 187q71 -191 278 -191q98 0 165.5 56t84.5 153q15 -66 66 -117q60 -63 147 -63h172v98h-186q-65 0 -121 56q-71 65 -74 159q-4 362 -2 435 h-108q1 -121 2 -242.5t1.5 -184t0.5 -83.5q0 -80 -50 -127q-45 -39 -112 -39q-107 0 -184 71q-77 74 -80 185q-4 294 -2 356h-109q1 -99 2 -205t1.5 -161.5t0.5 -79.5q0 -78 -43.5 -122t-112.5 -44q-255 0 -258 256q-2 231 -2 356h-102v-547q3 -194 -123 -332 q-127 -139 -299 -139q-176 0 -301 137q-123 138 -123 330l-2 420h-106zM1427 954h111v133h-111v-133zM1536 1155h109v131h-109v-131zM1642 954h111v133h-111v-133z" />
<glyph unicode="&#x634;" horiz-adv-x="1548" arabic-form="initial" d="M-18 0h450l-2 145l4 -4q79 -163 262 -166q182 -3 256 187q71 -191 279 -191q113 0 183.5 74.5t70.5 192.5q0 199 -2 510h-109q1 -121 2 -242.5t1.5 -184t0.5 -83.5q0 -81 -49 -127q-45 -39 -112 -39q-108 0 -185 71q-77 74 -80 185q-4 294 -2 356h-108q1 -99 2 -205 t1.5 -161.5t0.5 -79.5q0 -78 -43.5 -122t-112.5 -44q-255 0 -258 256q-2 231 -2 356h-102l2 -584h-348v-100zM729 954h111v133h-111v-133zM838 1155h108v131h-108v-131zM944 954h111v133h-111v-133z" />
<glyph unicode="&#x634;" horiz-adv-x="1839" arabic-form="medial" d="M-18 0h450l-2 147l6 -6q79 -163 262 -166q182 -3 256 187q71 -191 279 -191q98 0 165.5 56t84.5 153q15 -67 65 -117q60 -63 148 -63h172v98h-187q-64 0 -120 56q-71 65 -74 159q-4 362 -2 435h-109q1 -121 2 -242.5t1.5 -184t0.5 -83.5q0 -81 -49 -127q-45 -39 -112 -39 q-108 0 -185 71q-77 74 -80 185q-4 294 -2 356h-108q1 -99 2 -205t1.5 -161.5t0.5 -79.5q0 -78 -43.5 -122t-112.5 -44q-255 0 -258 256q-2 231 -2 356h-102v-584h-348v-100zM729 954h111v133h-111v-133zM838 1155h108v131h-108v-131zM944 954h111v133h-111v-133z" />
<glyph unicode="&#x635;" horiz-adv-x="2488" arabic-form="final" d="M70 553q6 -354 6 -418q0 -239 153 -409q156 -172 373 -172q218 0 371 170q111 120 141 276h1430v100h-381q-9 275 -86 426q-102 200 -334 224q-142 15 -293 -74q-205 -120 -326 -404l-2 281h-104l6 -416q3 -194 -123 -332q-127 -139 -299 -139q-176 0 -301 137 q-123 138 -123 330l-2 420h-106zM1126 100v21q221 538 578 538q339 0 354 -559h-932z" />
<glyph unicode="&#x635;" horiz-adv-x="1546" arabic-form="initial" d="M-18 0h1486q-6 318 -65 475q-94 248 -356 275q-142 15 -293 -74q-202 -118 -324 -402l-2 279h-111l5 -453h-340v-100zM430 100v23q220 536 578 536q357 0 354 -559h-932z" />
<glyph unicode="&#x635;" horiz-adv-x="1828" arabic-form="medial" d="M-18 0h1871v100h-380q-9 273 -87 426q-102 200 -333 224q-142 15 -293 -74q-211 -126 -330 -416l-2 293h-111l5 -453h-340v-100zM430 100v9q225 550 584 550q339 0 354 -559h-938z" />
<glyph unicode="&#x636;" horiz-adv-x="2488" arabic-form="final" d="M70 553q6 -354 6 -418q0 -239 153 -409q156 -172 373 -172q218 0 371 170q111 120 141 276h1430v100h-381q-9 275 -86 426q-102 200 -334 224q-142 15 -293 -74q-205 -120 -326 -404l-2 281h-104l6 -416q3 -194 -123 -332q-127 -139 -299 -139q-176 0 -301 137 q-123 138 -123 330l-2 420h-106zM1126 100v21q221 538 578 538q339 0 354 -559h-932zM1622 967h109v133h-109v-133z" />
<glyph unicode="&#x636;" horiz-adv-x="1546" arabic-form="initial" d="M-18 0h1486q-6 318 -65 475q-94 248 -356 275q-142 15 -293 -74q-202 -118 -324 -402l-2 279h-111l5 -453h-340v-100zM430 100v23q220 536 578 536q357 0 354 -559h-932zM926 967h108v133h-108v-133z" />
<glyph unicode="&#x636;" horiz-adv-x="1828" arabic-form="medial" d="M-18 0h1871v100h-380q-9 273 -87 426q-102 200 -333 224q-142 15 -293 -74q-211 -126 -330 -416l-2 293h-111l5 -453h-340v-100zM430 100v9q225 550 584 550q339 0 354 -559h-938zM932 967h108v133h-108v-133z" />
<glyph unicode="&#x637;" horiz-adv-x="1710" arabic-form="final" d="M70 0h1104h348h209v100h-308q-27 610 -419 650q-10 2 -37 2q-143 0 -283 -93q-195 -131 -319 -432l16 987h-107l7 -1114h-156zM377 100q135 340 340 475q137 91 287 82q204 -15 280 -288q31 -119 37 -269h-944z" />
<glyph unicode="&#x637;" horiz-adv-x="1431" arabic-form="initial" d="M-25 0h1395q-3 317 -72 483q-102 240 -350 267q-12 2 -35 2q-144 0 -284 -93q-198 -133 -318 -432l15 987h-105l2 -1114h-248v-100zM324 100q132 339 335 475q138 91 291 82q201 -15 277 -288q34 -112 37 -269h-940z" />
<glyph unicode="&#x637;" horiz-adv-x="1542" arabic-form="medial" d="M-18 0h1581v100h-234q-27 609 -418 650q-12 2 -37 2q-144 0 -284 -93q-198 -133 -318 -432l17 987h-107l4 -1114h-204v-100zM285 100q132 339 338 475q137 91 288 82q203 -15 279 -288q34 -112 37 -269h-942z" />
<glyph unicode="&#x638;" horiz-adv-x="1710" arabic-form="final" d="M70 0h1104h348h209v100h-308q-27 610 -419 650q-10 2 -37 2q-143 0 -283 -93q-195 -131 -319 -432l16 987h-107l7 -1114h-156zM377 100q135 340 340 475q137 91 287 82q204 -15 280 -288q31 -119 37 -269h-944zM799 967h110v133h-110v-133z" />
<glyph unicode="&#x638;" horiz-adv-x="1431" arabic-form="initial" d="M-20 0h1390q-3 317 -72 483q-102 240 -350 267q-12 2 -35 2q-144 0 -284 -93q-198 -133 -318 -432l15 987h-105l2 -1114h-243v-100zM324 100q132 339 335 475q138 91 291 82q201 -15 277 -288q34 -112 37 -269h-940zM799 967h110v133h-110v-133z" />
<glyph unicode="&#x638;" horiz-adv-x="1542" arabic-form="medial" d="M-18 0h1581v100h-234q-27 609 -418 650q-12 2 -37 2q-144 0 -284 -93q-198 -133 -318 -432l17 987h-107l4 -1114h-204v-100zM285 100q132 339 338 475q137 91 288 82q203 -15 279 -288q34 -112 37 -269h-942zM737 967h111v133h-111v-133z" />
<glyph unicode="&#x639;" horiz-adv-x="1103" arabic-form="final" d="M70 78q0 -167 112 -285q113 -125 283 -125h258v109l-258 -2q-124 0 -203.5 86t-79.5 217q0 132 74 221q77 89 139 92q86 4 281 4q3 -161 88 -274q89 -121 225 -121h133l-2 100h-141q-96 0 -154 107q-51 86 -51 188h66v99h-152q-80 0 -145 53q-73 64 -76 158 q-3 113 65 172q50 44 119 38q83 -3 135 -61l56 70q-83 95 -211 92q-107 -3 -187 -80q-88 -85 -88 -213q0 -61 35 -133q25 -56 70 -98q-184 -6 -293 -130q-98 -113 -98 -284z" />
<glyph unicode="&#x639;" horiz-adv-x="925" arabic-form="initial" d="M-18 0h882l-41 100h-241q-112 0 -195 80q-82 82 -82 209q-3 148 90 232q69 63 140 63q112 0 190 -96l63 67q-98 116 -262 119q-141 0 -237 -96q-102 -102 -105 -266q-3 -168 138 -312h-340v-100z" />
<glyph unicode="&#x639;" horiz-adv-x="1245" arabic-form="medial" d="M-18 0h327q168 0 357 109q89 -109 204 -109h392v100h-418q-61 -3 -109 54q301 217 432 452q-73 73 -176 129q-178 90 -379 90q-199 3 -366 -69q-103 -47 -150 -94v-146q269 -21 512 -332q-167 -86 -303 -86l-323 2v-100zM164 600q132 74 205 96q110 35 252 35 q153 0 268 -47q41 -17 160 -94q-109 -184 -373 -365q-200 290 -512 375z" />
<glyph unicode="&#x63a;" horiz-adv-x="1103" arabic-form="final" d="M70 78q0 -167 112 -285q113 -125 283 -125h258v109l-258 -2q-124 0 -203.5 86t-79.5 217q0 132 74 221q77 89 139 92q86 4 281 4q3 -161 88 -274q89 -121 225 -121h133l-2 100h-141q-96 0 -154 107q-51 86 -51 188h66v99h-152q-80 0 -145 53q-73 64 -76 158 q-3 113 65 172q50 44 119 38q83 -3 135 -61l56 70q-83 95 -211 92q-107 -3 -187 -80q-88 -85 -88 -213q0 -61 35 -133q25 -56 70 -98q-184 -6 -293 -130q-98 -113 -98 -284zM573 1178h111v133h-111v-133z" />
<glyph unicode="&#x63a;" horiz-adv-x="925" arabic-form="initial" d="M-18 0h882l-41 100h-241q-112 0 -195 80q-82 82 -82 209q-3 148 90 232q69 63 140 63q112 0 190 -96l63 67q-98 116 -262 119q-141 0 -237 -96q-102 -102 -105 -266q-3 -168 138 -312h-340v-100zM459 979h110v131h-110v-131z" />
<glyph unicode="&#x63a;" horiz-adv-x="1245" arabic-form="medial" d="M-18 0h327q168 0 357 109q89 -109 204 -109h392v100h-418q-61 -3 -109 54q301 217 432 452q-73 73 -176 129q-178 90 -379 90q-199 3 -366 -69q-103 -47 -150 -94v-146q269 -21 512 -332q-167 -86 -303 -86l-323 2v-100zM164 600q132 74 205 96q110 35 252 35 q153 0 268 -47q41 -17 160 -94q-109 -184 -373 -365q-200 290 -512 375zM569 991h111v133h-111v-133z" />
<glyph unicode="&#x641;" horiz-adv-x="1615" arabic-form="final" d="M70 748l4 -134q9 -264 106 -424q117 -190 357 -190h333q125 0 263 63q135 -63 260 -63h239v98h-268q-52 3 -129 23q229 168 229 422q0 169 -100 262q-93 90 -231 90q-142 0 -232 -90q-102 -95 -102 -262q0 -253 231 -422q-80 -20 -129 -23l-358 2q-132 0 -230 88 q-140 131 -149 426l-4 134h-90zM909 543q0 116 58 192q61 88 166 88q104 0 165 -88q56 -77 56 -192q0 -143 -90 -262q-79 -97 -131 -97q-55 0 -134 97q-90 119 -90 262zM1069 1057h109v133h-109v-133z" />
<glyph unicode="&#x641;" horiz-adv-x="835" arabic-form="initial" d="M-18 0h600q183 0 192 160v499q0 323 -307 320q-117 0 -205 -82q-115 -103 -121 -299q-6 -146 78 -256q82 -104 217 -104h236v-33q0 -105 -103 -105h-587v-100zM260 610q4 140 66.5 222.5t156.5 82.5q176 0 179 -206l4 -373h-193q-99 0 -160 82q-56 73 -53 192zM424 1145 h108v131h-108v-131z" />
<glyph unicode="&#x641;" horiz-adv-x="964" arabic-form="medial" d="M-20 0h241q123 0 258 63q138 -63 264 -63h238v98h-268q-49 3 -129 23q231 169 231 422q0 169 -100 262q-96 90 -234 90t-231 -90q-103 -95 -103 -262q0 -252 232 -422q-77 -20 -129 -23h-270v-98zM260 543q0 115 53 192q64 88 168 88q105 0 166 -88q58 -76 58 -192 q0 -143 -93 -262q-79 -97 -133 -97q-50 0 -129 97q-90 119 -90 262zM428 1057h111v133h-111v-133z" />
<glyph unicode="&#x642;" horiz-adv-x="1466" arabic-form="final" d="M70 193q0 -287 186 -467q170 -170 393 -170q220 0 369 122q151 118 186 322h281v100h-273v336q0 316 -305 316q-116 0 -205 -80q-111 -99 -120 -297q-3 -149 80 -264q82 -111 215 -111h217q-38 -164 -154.5 -252t-286.5 -88q-199 0 -338 154t-139 379v249h-106v-249z M698 385q6 142 74 225q63 78 154 78q173 0 176 -205l4 -383h-193q-98 0 -157 86q-61 89 -58 199zM748 920h108v133h-108v-133zM961 920h108v133h-108v-133z" />
<glyph unicode="&#x642;" horiz-adv-x="835" arabic-form="initial" d="M-18 0h600q183 0 192 160v499q0 323 -307 320q-117 0 -205 -82q-115 -103 -121 -299q-6 -146 78 -256q82 -104 217 -104h236v-33q0 -105 -103 -105h-587v-100zM260 610q4 140 66.5 222.5t156.5 82.5q176 0 179 -206l4 -373h-193q-99 0 -160 82q-56 73 -53 192zM307 1145 h109v131h-109v-131zM520 1145h111v131h-111v-131z" />
<glyph unicode="&#x642;" horiz-adv-x="964" arabic-form="medial" d="M-20 0h241q123 0 258 63q138 -63 264 -63h238v98h-268q-49 3 -129 23q231 169 231 422q0 169 -100 262q-96 90 -234 90t-231 -90q-103 -95 -103 -262q0 -252 232 -422q-77 -20 -129 -23h-270v-98zM260 543q0 115 53 192q64 88 168 88q105 0 166 -88q58 -76 58 -192 q0 -143 -93 -262q-79 -97 -133 -97q-50 0 -129 97q-90 119 -90 262zM317 1057h111v133h-111v-133zM532 1057h111v133h-111v-133z" />
<glyph unicode="&#x643;" horiz-adv-x="1685" arabic-form="final" d="M70 748l4 -134q9 -264 106 -424q117 -190 357 -190h602q159 0 180 174q15 -66 67 -115q59 -59 146 -59h172l-2 98h-184q-69 0 -127 64q-65 71 -68 182q-3 293 -8 985h-113q6 -334 6 -1091q0 -138 -108 -138h-557q-132 0 -230 88q-140 131 -149 426l-4 134h-90zM483 653 h381v70h-90q-60 0 -94 37q-28 28 -31 69q-3 108 92 111q52 0 86 -49l33 61q-49 52 -121 52q-76 0 -121 -46t-45 -116q0 -68 45 -119h-96z" />
<glyph unicode="&#x643;" horiz-adv-x="1085" arabic-form="initial" d="M-20 0h1044q-3 321 -115 522q-139 244 -420 244q-85 3 -149 -33l326 365l-70 69l-420 -481l47 -90q134 76 275 76q170 0 286 -152q116 -155 125 -420h-929v-100z" />
<glyph unicode="&#x643;" horiz-adv-x="1267" arabic-form="medial" d="M-18 0h1304v100h-248q-21 290 -135 459q-139 207 -397 207q-86 3 -150 -33l328 365l-70 69l-419 -481l47 -90q134 76 274 76q169 0 285 -152q119 -155 125 -420h-944v-100z" />
<glyph unicode="&#x644;" horiz-adv-x="1488" arabic-form="final" d="M70 553q6 -354 6 -418q0 -239 153 -409q156 -172 373 -172t373 170q151 164 151 411v25q18 -62 70 -105q58 -55 139 -55h170v98h-176q-77 0 -135 64q-64 70 -64 182l-12 985h-108l14 -1192v-8q0 -189 -123 -324q-127 -139 -299 -139q-176 0 -301 137q-125 140 -125 330 v420h-106z" />
<glyph unicode="&#x644;" horiz-adv-x="532" arabic-form="initial" d="M-18 0h241q120 0 189 72q59 71 59 190q-4 856 -4 1067h-109q4 -848 4 -1065q0 -164 -157 -164h-223v-100z" />
<glyph unicode="&#x644;" horiz-adv-x="827" arabic-form="medial" d="M-18 0h217q79 0 147 41q87 49 113 145q12 -69 63 -120q66 -66 152 -66h172v98h-187q-69 0 -127 64q-64 70 -67 182q-9 434 -12 985h-109q9 -556 12 -1067q0 -83 -69 -129q-50 -33 -115 -33h-190v-100z" />
<glyph unicode="&#x645;" horiz-adv-x="1443" arabic-form="final" d="M70 270l10 -714h108l-8 688q0 99 29.5 138.5t109.5 39.5h144q-9 -167 78 -289q95 -133 262 -133q227 0 303 211q102 -205 321 -211h31v98q-123 0 -211.5 89t-113.5 241q-21 141 -105 234q-93 106 -240 106q-248 0 -309 -240h-160q-252 0 -249 -258zM582 385 q0 145 58.5 228t156.5 83q90 0 155 -80q70 -85 70 -231q0 -145 -60 -230t-155 -85q-92 0 -156 82q-69 87 -69 233z" />
<glyph unicode="&#x645;" horiz-adv-x="942" arabic-form="initial" d="M-18 0h571q154 -2 241 100t87 285q0 155 -88 262q-95 121 -254 121q-154 0 -241 -101.5t-87 -281.5q0 -176 106 -285h-335v-100zM330 383q0 146 61 225q59 74 154 74q93 0 155 -74q72 -84 72 -225q0 -146 -61 -225q-59 -74 -154 -74q-91 0 -156 74q-71 83 -71 225z" />
<glyph unicode="&#x645;" horiz-adv-x="1077" arabic-form="medial" d="M-18 0h270q95 -188 297 -188q216 0 293 188h252v100h-226q9 47 9 97q0 151 -91 262q-95 121 -251 121q-154 0 -241 -101.5t-87 -281.5q0 -45 10 -97h-235v-100zM326 195q0 144 59.5 227.5t157.5 83.5q88 0 153 -80q72 -87 72 -231q0 -145 -60 -230.5t-155 -85.5 q-92 0 -156 82q-71 89 -71 234z" />
<glyph unicode="&#x646;" horiz-adv-x="1488" arabic-form="final" d="M70 553q6 -354 6 -418q0 -239 153 -409q156 -172 373 -172t373 170q154 167 151 411v25q18 -62 70 -105q58 -55 139 -55h170v98h-184q-69 0 -127 64q-67 73 -70 182l2 209h-104l2 -416q3 -194 -123 -332q-127 -139 -299 -139q-176 0 -301 137q-123 138 -123 330l-2 420 h-106zM541 858h108v133h-108v-133z" />
<glyph unicode="&#x646;" horiz-adv-x="532" arabic-form="initial" d="M-18 0h241q123 0 189 72q59 71 59 190l-4 486h-109q4 -458 4 -484q3 -164 -157 -164h-223v-100zM352 952h111v133h-111v-133z" />
<glyph unicode="&#x646;" horiz-adv-x="827" arabic-form="medial" d="M-18 0h217q79 0 147 41q87 49 113 145q12 -69 63 -120q66 -66 152 -66h172v98h-187q-69 0 -127 64q-64 70 -67 182q-4 184 -4 404h-109q1 -84 2 -247t2 -239q3 -82 -69 -129q-53 -35 -115 -35l-190 2v-100zM346 952h109v133h-109v-133z" />
<glyph unicode="&#x647;" horiz-adv-x="1009" arabic-form="final" d="M70 518q0 -274 231 -274h303q-3 -94 45 -164q53 -80 154 -80h225v98h-225q-103 0 -103 133l-2 633h-104v-102q-117 117 -248 117q-105 0 -180 -78q-96 -96 -96 -283zM182 510q0 135 60 217q57 72 141 72q70 0 131 -43q57 -42 80 -97l2 -323h-277q-137 0 -137 174z" />
<glyph unicode="&#x647;" horiz-adv-x="1185" arabic-form="initial" d="M-18 0h1142q-6 311 -133 506q-158 242 -491 242q-197 0 -385 -78l24 -84q51 26 180 57q-102 -114 -102 -278q0 -146 107 -265h-342v-100zM322 375q0 131 51.5 206.5t134.5 75.5q79 0 135 -71q62 -80 62 -211q0 -132 -51.5 -207.5t-135.5 -75.5q-78 0 -135 72 q-61 76 -61 211zM711 100q92 115 92 260q0 173 -90 269q129 -41 217 -207q86 -157 80 -322h-299z" />
<glyph unicode="&#x647;" horiz-adv-x="1320" arabic-form="medial" d="M-18 0h946h356h53v100h-217q-27 279 -157 443q-159 202 -463 205q-194 3 -385 -78l24 -88q62 33 180 61q-102 -114 -102 -278q0 -146 107 -265h-342v-100zM322 375q0 131 51.5 206.5t134.5 75.5q79 0 135 -71q62 -80 62 -211q0 -132 -51.5 -207.5t-135.5 -75.5 q-78 0 -135 72q-61 76 -61 211zM711 100q92 115 92 260q0 173 -90 269q129 -41 217 -207q86 -157 80 -322h-299z" />
<glyph unicode="&#x648;" horiz-adv-x="1087" arabic-form="final" d="M209 375q0 -155 81.5 -265t213.5 -110h201q-39 -141 -159.5 -244t-256.5 -106q19 -45 45 -92q171 17 308.5 142.5t178.5 299.5h285v100h-270v4q-1 15 -0.5 28t1.5 56t1 84v164q0 316 -303 316q-134 0 -230 -105.5t-96 -271.5zM326 375q0 137 63 224t162 87q45 0 76 -12 t50.5 -36t30 -61t14.5 -86t4.5 -110.5t-0.5 -136.5q-1 -93 -1 -144h-184q-96 0 -155.5 81.5t-59.5 193.5z" />
<glyph unicode="&#x649;" horiz-adv-x="1673" arabic-form="final" d="M70 365q0 -17 4 -127q4 -102 4 -105q0 -235 153 -405q153 -172 373 -172q235 0 385 170q145 168 139 405l-8 242h-364q0 122 70 200.5t180 77.5q144 -3 217 -151q31 -68 80 -275q23 -104 90 -168q57 -57 133 -57h166v100l-142 -2q-119 0 -149 146q-50 246 -107 342 q-95 164 -286 164q-361 0 -367 -482h379l6 -133q6 -194 -111 -332q-121 -145 -311 -145q-176 0 -301 143q-123 141 -123 330q0 45 -2 100t-2 134h-106z" />
<glyph unicode="&#x64a;" horiz-adv-x="1673" arabic-form="final" d="M70 365q0 -17 4 -127q4 -102 4 -105q0 -235 153 -405q153 -172 373 -172q235 0 385 170q145 168 139 405l-8 242h-364q0 122 70 200.5t180 77.5q144 -3 217 -151q31 -68 80 -275q23 -104 90 -168q57 -57 133 -57h166v100l-142 -2q-119 0 -149 146q-50 246 -107 342 q-95 164 -286 164q-361 0 -367 -482h379l6 -133q6 -194 -111 -332q-121 -145 -311 -145q-176 0 -301 143q-123 141 -123 330q0 45 -2 100t-2 134h-106zM467 -649v-133h111v133h-111zM684 -649v-133h109v133h-109z" />
<glyph unicode="&#x64a;" horiz-adv-x="534" arabic-form="initial" d="M-18 0h241q123 0 189 72q59 71 59 190l-4 486h-109q4 -458 4 -484q3 -164 -157 -164h-223v-100zM88 -203v-133h109v133h-109zM303 -203v-133h109v133h-109z" />
<glyph unicode="&#x64a;" horiz-adv-x="827" arabic-form="medial" d="M-18 0h217q79 0 147 41q87 49 113 145q12 -69 63 -120q66 -66 152 -66h172v98h-187q-69 0 -127 64q-64 70 -67 182q-4 184 -4 404h-109q1 -84 2 -247t2 -239q3 -82 -69 -129q-53 -35 -115 -35l-190 2v-100zM252 -203v-133h108v133h-108zM467 -203v-133h108v133h-108z" />
<glyph unicode=" "  horiz-adv-x="450" />
<glyph unicode="&#x09;" horiz-adv-x="450" />
<glyph unicode="&#xa0;" horiz-adv-x="450" />
<glyph unicode="!" horiz-adv-x="430" d="M88 1329l8 -1106h107l-8 1106h-107zM98 0h107v131h-107v-131z" />
<glyph unicode="&#x22;" horiz-adv-x="528" d="M133 856v412h96v-412h-96zM297 856v412h96v-412h-96z" />
<glyph unicode="$" horiz-adv-x="866" d="M96 70q149 -90 346 -90l2 -162h50l-11 164q145 24 228 127q72 96 69 210q-3 130 -92 216q-56 59 -205 135l-4 497q114 0 242 -88l41 78q-128 79 -285 88l-2 115h-49l2 -113q-140 -15 -229 -110q-79 -85 -82 -203q-3 -133 94 -227q73 -73 233 -142l-2 -506q-173 0 -301 84 zM223 924q3 189 205 241l6 -477q-111 51 -158 98q-53 53 -53 138zM485 543q89 -49 129 -99q45 -51 45 -137q3 -172 -167 -239z" />
<glyph unicode="'" d="M-156 1268h39l117 389h-156v-389z" />
<glyph unicode="(" horiz-adv-x="557" d="M88 543q0 -222 88 -408q69 -149 238 -346l57 57q-276 292 -276 711q0 344 260 662l-62 57q-305 -367 -305 -733z" />
<glyph unicode=")" horiz-adv-x="557" d="M96 1221q277 -294 277 -711q0 -344 -260 -662l59 -59q307 368 307 733q0 224 -88 410q-71 154 -237 344z" />
<glyph unicode="*" horiz-adv-x="980" d="M203 305l252 19l-142 -220l74 -47l105 248l112 -237l78 38l-152 220l250 -17v78l-256 -22l146 215l-68 43l-110 -246l-107 248l-76 -47l146 -220l-252 29v-82z" />
<glyph unicode="+" horiz-adv-x="1017" d="M80 403h387v-403h82v403h389v86h-389v404h-82v-404h-387v-86z" />
<glyph unicode="-" horiz-adv-x="1017" d="M80 403h858v84h-858v-84z" />
<glyph unicode="." horiz-adv-x="364" d="M88 0h154v160h-154v-160z" />
<glyph unicode="/" horiz-adv-x="782" d="M80 0l96 -45l533 1270l-99 43z" />
<glyph unicode=":" horiz-adv-x="364" d="M88 0h154v160h-154v-160zM88 313h154v160h-154v-160z" />
<glyph unicode="&#x3c;" horiz-adv-x="1110" d="M254 457l479 -477h141l-479 477l479 479h-141z" />
<glyph unicode="=" horiz-adv-x="1017" d="M86 246h858v82h-858v-82zM86 481h858v84h-858v-84z" />
<glyph unicode="&#x3e;" horiz-adv-x="1110" d="M256 -20h121l479 477l-479 479h-121l479 -479z" />
<glyph unicode="[" horiz-adv-x="514" d="M88 1247l10 -1427h336v71h-229l-10 1283h233v73h-340z" />
<glyph unicode="\" horiz-adv-x="782" d="M80 1225l530 -1270l99 45l-533 1268z" />
<glyph unicode="]" horiz-adv-x="514" d="M88 1174h229l11 -1283h-232v-71h338l-10 1427h-336v-73z" />
<glyph unicode="_" horiz-adv-x="782" d="M33 -33v-110h715v110h-715z" />
<glyph unicode="{" horiz-adv-x="647" d="M74 530q139 -90 139 -163v-334q0 -111 70 -160q63 -55 235 -55l47 4q2 8 2 26q0 21 -2 27q-138 2 -192 34.5t-45 123.5v334q0 87 -119 163q119 91 119 164v334q0 101 49 129q47 35 186 35v14q0 31 -2 47q-188 0 -268 -52t-80 -173v-334q0 -49 -35 -92q-35 -45 -100 -72 h-4z" />
<glyph unicode="|" horiz-adv-x="204" d="M70 -199h67v1465h-67v-1465z" />
<glyph unicode="}" horiz-adv-x="655" d="M72 -152q0 21 2 27q138 2 192 34.5t45 123.5v334q0 87 119 163q-119 91 -119 164v334q0 101 -49 129q-47 35 -186 35v14q0 31 2 47q188 0 268 -52t80 -173v-334q0 -49 35 -92q35 -45 100 -72h4q-139 -90 -139 -163v-334q0 -111 -70 -160q-63 -55 -235 -55l-47 4 q-2 8 -2 26z" />
<glyph unicode="&#xab;" horiz-adv-x="616" d="M125 326q0 -172 147 -344l45 22q-122 152 -122 315q0 197 131 340l-45 23q-156 -178 -156 -356zM334 326q0 -170 145 -344l47 22q-123 153 -123 315q0 196 129 340l-43 23q-155 -177 -155 -356z" />
<glyph unicode="&#xad;" horiz-adv-x="1017" d="M80 403h858v84h-858v-84z" />
<glyph unicode="&#xbb;" horiz-adv-x="616" d="M127 659q129 -144 129 -340q0 -161 -121 -315l45 -22q146 175 146 344q0 176 -154 356zM340 659q127 -145 127 -340q0 -161 -121 -315l45 -22q146 175 146 344q0 178 -156 356z" />
<glyph unicode="&#xd7;" horiz-adv-x="927" d="M86 111l57 -60l322 340l321 -340l56 60l-322 335l322 336l-56 60l-321 -338l-322 338l-57 -60l324 -336z" />
<glyph unicode="&#xf7;" horiz-adv-x="1017" d="M80 403h858v86h-858v-86zM416 145q0 -41 27.5 -69.5t66.5 -28.5t66.5 28.5t27.5 69.5t-27.5 69t-66.5 28t-66.5 -28t-27.5 -69zM416 748q0 -41 28 -70t66 -29t66 29t28 70q0 38 -28 67t-66 29t-66 -29t-28 -67z" />
<glyph unicode="&#x60c;" horiz-adv-x="374" d="M88 0h152v133q-65 3 -68 82q-3 94 80 197q-69 -37 -111 -90q-53 -71 -53 -148v-174z" />
<glyph unicode="&#x61b;" horiz-adv-x="374" d="M88 0h154v160h-154v-160zM88 313h152v133q-65 6 -68 84q-3 92 80 195q-63 -29 -111 -90q-53 -71 -53 -146v-176z" />
<glyph unicode="&#x61f;" horiz-adv-x="866" d="M98 918q-3 -129 88 -220q147 -119 162 -131q87 -78 84 -176l-2 -168h107v160q0 118 -86 201l-160 135q-86 83 -86 201q0 109 82 176q76 67 178 67q143 0 270 -121l49 64q-94 73 -151 102q-79 39 -176 39q-146 0 -250 -90q-106 -90 -109 -239zM432 0h107v131h-107v-131z " />
<glyph unicode="&#x621;" horiz-adv-x="968" d="M188 0h709v113h-162q-113 0 -188.5 66t-75.5 167q0 112 52 178t149 66q111 0 166 -80l47 84q-91 94 -217 94q-141 0 -227.5 -90t-86.5 -244q0 -56 36.5 -131t80.5 -110h-225z" />
<glyph unicode="&#x627;" horiz-adv-x="385" d="M205 1329l10 -1329h107l-11 1329h-106z" />
<glyph unicode="&#x628;" horiz-adv-x="1382" d="M70 748l4 -134q9 -264 106 -424q117 -190 357 -190h598q186 0 186 211q0 437 -2 537h-113q2 -111 2 -510q0 -138 -108 -138h-557q-132 0 -230 88q-140 131 -149 426l-4 134h-90zM711 -203v-133h110v133h-110z" />
<glyph unicode="&#x629;" horiz-adv-x="800" d="M70 385q0 -151 90 -264q95 -121 254 -121q154 0 239.5 101t85.5 284q0 155 -88 262q-95 121 -254 121q-154 0 -240.5 -101.5t-86.5 -281.5zM190 383q0 145 60 229t156 84q91 0 155 -82q72 -87 72 -231t-60.5 -228.5t-156.5 -84.5q-89 0 -154 80q-72 90 -72 233zM236 971 h108v133h-108v-133zM449 971h108v133h-108v-133z" />
<glyph unicode="&#x62a;" horiz-adv-x="1382" d="M70 748l4 -134q9 -264 106 -424q117 -190 357 -190h598q186 0 186 211q0 437 -2 537h-113q2 -111 2 -510q0 -138 -108 -138h-557q-132 0 -230 88q-140 131 -149 426l-4 134h-90zM518 858h109v133h-109v-133zM731 858h109v133h-109v-133z" />
<glyph unicode="&#x62b;" horiz-adv-x="1382" d="M70 748l4 -134q9 -264 106 -424q117 -190 357 -190h598q186 0 186 211q0 437 -2 537h-113q2 -111 2 -510q0 -138 -108 -138h-557q-132 0 -230 88q-140 131 -149 426l-4 134h-90zM518 856h109v133h-109v-133zM623 1055h110v133h-110v-133zM731 856h109v133h-109v-133z" />
<glyph unicode="&#x62c;" horiz-adv-x="1054" d="M70 -35q0 -170 116 -289q117 -120 281 -120h268v104h-252q-125 0 -213 88t-88 217q0 131 86 223q89 95 215 95l510 2q-15 592 -436 616q-107 3 -184 -29q-18 -8 -51 -26t-39 -21l34 -77q149 64 238 55q130 -9 211 -96q91 -105 125 -318h-455q-160 0 -264 -131 q-102 -123 -102 -293zM541 29v-133h108v133h-108z" />
<glyph unicode="&#x62d;" horiz-adv-x="1054" d="M70 -35q0 -170 116 -289q117 -120 281 -120h268v104h-252q-125 0 -213 88t-88 217q0 131 86 223q89 95 215 95l510 2q-15 592 -436 616q-107 3 -184 -29q-18 -8 -51 -26t-39 -21l34 -77q149 64 238 55q130 -9 211 -96q91 -105 125 -318h-455q-160 0 -264 -131 q-102 -123 -102 -293z" />
<glyph unicode="&#x62e;" horiz-adv-x="1054" d="M70 -35q0 -170 116 -289q117 -120 281 -120h268v104h-252q-125 0 -213 88t-88 217q0 131 86 223q89 95 215 95l510 2q-15 592 -436 616q-107 3 -184 -29q-18 -8 -51 -26t-39 -21l34 -77q149 64 238 55q130 -9 211 -96q91 -105 125 -318h-455q-160 0 -264 -131 q-102 -123 -102 -293zM518 1106h109v131h-109v-131z" />
<glyph unicode="&#x62f;" horiz-adv-x="942" d="M184 0h697q-3 353 -125 557q-108 176 -264 191v-93q108 -15 192 -170q89 -165 98 -385h-567z" />
<glyph unicode="&#x630;" horiz-adv-x="942" d="M184 0h697q-3 353 -125 557q-108 176 -264 191v-93q108 -15 192 -170q89 -165 98 -385h-567zM492 952h110v133h-110v-133z" />
<glyph unicode="&#x631;" horiz-adv-x="514" d="M-96 -350q25 -59 43 -92q227 21 366 198q140 178 140 434l-4 558h-109l2 -578q0 -213 -119 -356q-128 -155 -319 -164z" />
<glyph unicode="&#x632;" horiz-adv-x="514" d="M-96 -350q25 -59 43 -92q227 21 366 198q140 178 140 434l-4 558h-107v-578q0 -213 -119 -356q-128 -155 -319 -164zM338 954h108v133h-108v-133z" />
<glyph unicode="&#x633;" horiz-adv-x="2246" d="M70 553q6 -354 6 -418q0 -239 153 -409q156 -172 373 -172q218 0 371 170q156 169 153 411v8l2 -2q79 -163 263 -166q182 -3 256 187q71 -191 278 -191q113 0 183.5 74.5t70.5 192.5q0 199 -2 510h-109q1 -124 2 -242.5t2 -183.5t1 -84q0 -80 -50 -127q-45 -39 -112 -39 q-108 0 -185 71q-76 73 -79 185q-4 294 -2 356h-109q1 -99 2 -205t1.5 -161.5t0.5 -79.5q0 -78 -43.5 -122t-112.5 -44q-255 0 -258 256q-2 231 -2 356h-100v-547q3 -194 -123 -332q-127 -139 -299 -139q-176 0 -301 137q-123 138 -123 330l-2 420h-106z" />
<glyph unicode="&#x634;" horiz-adv-x="2246" d="M70 553q6 -354 6 -418q0 -239 153 -409q156 -172 373 -172q218 0 371 170q156 169 153 411v8l2 -2q79 -163 263 -166q182 -3 256 187q71 -191 278 -191q113 0 183.5 74.5t70.5 192.5q0 199 -2 510h-109q1 -124 2 -242.5t2 -183.5t1 -84q0 -80 -50 -127q-45 -39 -112 -39 q-108 0 -185 71q-76 73 -79 185q-4 294 -2 356h-109q1 -99 2 -205t1.5 -161.5t0.5 -79.5q0 -78 -43.5 -122t-112.5 -44q-255 0 -258 256q-2 231 -2 356h-100v-547q3 -194 -123 -332q-127 -139 -299 -139q-176 0 -301 137q-123 138 -123 330l-2 420h-106zM1423 954h111v133 h-111v-133zM1532 1155h108v131h-108v-131zM1638 954h111v133h-111v-133z" />
<glyph unicode="&#x635;" horiz-adv-x="2246" d="M70 553q6 -354 6 -418q0 -239 153 -409q156 -172 373 -172q218 0 371 170q111 120 141 276h1055q-6 315 -66 475q-94 248 -356 275q-142 15 -293 -74q-210 -122 -330 -414l-2 291h-104l6 -416q3 -194 -123 -332q-127 -139 -299 -139q-176 0 -301 137q-123 138 -123 330 l-2 420h-106zM1126 100v11q219 548 582 548q357 0 354 -559h-936z" />
<glyph unicode="&#x636;" horiz-adv-x="2246" d="M70 553q6 -354 6 -418q0 -239 153 -409q156 -172 373 -172q218 0 371 170q111 120 141 276h1055q-6 315 -66 475q-94 248 -356 275q-142 15 -293 -74q-210 -122 -330 -414l-2 291h-104l6 -416q3 -194 -123 -332q-127 -139 -299 -139q-176 0 -301 137q-123 138 -123 330 l-2 420h-106zM1126 100v11q219 548 582 548q357 0 354 -559h-936zM1626 967h109v133h-109v-133z" />
<glyph unicode="&#x637;" horiz-adv-x="1486" d="M70 0h1355q-3 315 -73 483q-102 240 -348 267q-10 2 -37 2q-143 0 -283 -93q-195 -131 -319 -432l16 987h-107l7 -1114h-156zM377 100q135 340 340 475q137 91 287 82q204 -15 280 -288q31 -119 37 -269h-944z" />
<glyph unicode="&#x638;" horiz-adv-x="1486" d="M70 0h1355q-3 315 -73 483q-102 240 -348 267q-10 2 -37 2q-143 0 -283 -93q-195 -131 -319 -432l16 987h-107l7 -1114h-156zM377 100q135 340 340 475q137 91 287 82q204 -15 280 -288q31 -119 37 -269h-944zM799 967h110v133h-110v-133z" />
<glyph unicode="&#x639;" horiz-adv-x="903" d="M70 78q0 -167 112 -285q113 -125 283 -125h258v109l-258 -2q-124 0 -203.5 86t-79.5 217q0 132 75.5 219.5t201.5 97.5h381v99h-152q-80 0 -145 53q-73 64 -76 158q-3 113 65 172q50 44 119 38q83 -3 135 -61l56 70q-83 95 -211 92q-107 -3 -187 -80q-88 -85 -88 -213 q0 -61 35 -133q25 -56 70 -98q-184 -6 -293 -130q-98 -113 -98 -284z" />
<glyph unicode="&#x63a;" horiz-adv-x="903" d="M70 78q0 -167 112 -285q113 -125 283 -125h258v109l-258 -2q-124 0 -203.5 86t-79.5 217q0 132 75.5 219.5t201.5 97.5h381v99h-152q-80 0 -145 53q-73 64 -76 158q-3 113 65 172q50 44 119 38q83 -3 135 -61l56 70q-83 95 -211 92q-107 -3 -187 -80q-88 -85 -88 -213 q0 -61 35 -133q25 -56 70 -98q-184 -6 -293 -130q-98 -113 -98 -284zM573 1178h111v133h-111v-133z" />
<glyph unicode="&#x640;" horiz-adv-x="243" d="M-18 0h280v100h-280v-100z" />
<glyph unicode="&#x641;" horiz-adv-x="1382" d="M70 748l4 -134q9 -264 106 -424q117 -190 357 -190h600q175 0 184 160v499q0 323 -305 320q-117 0 -205 -82q-114 -102 -123 -299q-3 -147 80 -256q82 -104 215 -104h238v-33q0 -105 -103 -105h-575q-132 0 -230 88q-140 131 -149 426l-4 134h-90zM807 610 q6 140 68.5 222.5t156.5 82.5q176 0 176 -206l4 -373h-192q-100 0 -158 82q-58 76 -55 192zM977 1143h108v131h-108v-131z" />
<glyph unicode="&#x642;" horiz-adv-x="1273" d="M70 193q0 -287 186 -467q170 -170 393 -170q248 0 404 153q159 150 159 391v336q0 316 -305 316q-116 0 -205 -80q-111 -99 -120 -297q-3 -149 80 -264q82 -111 215 -111h217q-38 -164 -154.5 -252t-286.5 -88q-199 0 -338 154t-139 379v249h-106v-249zM698 385 q6 142 74 225q63 78 154 78q173 0 176 -205l4 -383h-193q-98 0 -157 86q-61 89 -58 199zM762 915h108v134h-108v-134zM975 915h108v134h-108v-134z" />
<glyph unicode="&#x643;" horiz-adv-x="1382" d="M70 748l4 -134q9 -264 106 -424q117 -190 357 -190h598q186 0 186 211q0 1018 -2 1118h-113q2 -111 2 -1091q0 -138 -108 -138h-557q-132 0 -230 88q-140 131 -149 426l-4 134h-90zM483 653h381v70h-90q-60 0 -94 37q-28 28 -31 69q-3 108 92 111q52 0 86 -49l33 61 q-49 52 -121 52q-76 0 -121 -46t-45 -116q0 -68 45 -119h-96z" />
<glyph unicode="&#x644;" horiz-adv-x="1187" d="M70 553q6 -354 6 -418q0 -239 153 -409q156 -172 373 -172t373 170q154 167 151 411l-12 1194h-104l14 -1192q3 -194 -123 -332q-127 -139 -299 -139q-176 0 -301 137q-123 138 -123 330l-2 420h-106z" />
<glyph unicode="&#x645;" horiz-adv-x="1193" d="M70 270l10 -712h108l-8 678q-3 186 131 186h154q-9 -170 76 -289q95 -133 264 -133q154 0 241 102t87 285q0 149 -91 260q-95 121 -251 121q-251 0 -312 -242q-59 0 -98 2h-66q-248 0 -245 -258zM582 385q0 144 59.5 227.5t157.5 83.5q88 0 153 -80q72 -87 72 -231 q0 -145 -60.5 -230t-154.5 -85q-92 0 -156 82q-71 89 -71 233z" />
<glyph unicode="&#x646;" horiz-adv-x="1187" d="M70 553q6 -354 6 -418q0 -239 153 -409q156 -172 373 -172t373 170q154 167 151 411l-4 418h-104l6 -416q3 -194 -123 -332q-127 -139 -299 -139q-176 0 -301 137q-123 138 -123 330l-2 420h-106zM541 858h108v133h-108v-133z" />
<glyph unicode="&#x647;" horiz-adv-x="800" d="M70 385q0 -151 90 -264q95 -121 254 -121q154 0 239.5 101t85.5 284q0 155 -88 262q-95 121 -254 121q-154 0 -240.5 -101.5t-86.5 -281.5zM190 383q0 145 60 229t156 84q91 0 155 -82q72 -87 72 -231t-60.5 -228.5t-156.5 -84.5q-89 0 -154 80q-72 90 -72 233z" />
<glyph unicode="&#x648;" horiz-adv-x="897" d="M207 354q0 -144 84.5 -249t210.5 -105h200q-39 -141 -159 -244t-256 -106q19 -45 45 -92q213 21 364 204q39 46 64.5 88.5t40 78t21.5 86t9 90.5t4 115q1 34 1 52v164q0 316 -304 316q-140 0 -232.5 -110.5t-92.5 -287.5zM324 375q0 137 63 224t162 87q169 0 172 -203 q4 -246 4 -299q0 -59 -2 -84h-184q-96 0 -155.5 81.5t-59.5 193.5z" />
<glyph unicode="&#x649;" horiz-adv-x="1189" d="M70 371q2 -70 2 -238q0 -238 157 -409q156 -170 375 -170q217 0 373 170q154 167 151 405l-6 248h-501q-3 297 206 297q123 0 170 -117l84 39q-83 170 -256 170q-330 0 -315 -494h506l2 -137q0 -195 -121 -334t-295 -139q-175 0 -297 137q-122 140 -125 330 q-4 160 -4 242h-106z" />
<glyph unicode="&#x64a;" horiz-adv-x="1189" d="M70 371q2 -70 2 -238q0 -238 157 -409q156 -170 375 -170q217 0 373 170q154 167 151 405l-6 248h-501q-3 297 206 297q123 0 170 -117l84 39q-83 170 -256 170q-330 0 -315 -494h506l2 -137q0 -195 -121 -334t-295 -139q-175 0 -297 137q-122 140 -125 330 q-4 160 -4 242h-106zM467 -649v-133h111v133h-111zM684 -649v-133h109v133h-109z" />
<glyph unicode="&#x64b;" d="M20 1458q269 0 269 -2q87 3 100 64l-280 -4q-65 -9 -89 -58zM61 1575h269q86 3 98 63l-281 -6q-63 -6 -86 -57z" />
<glyph unicode="&#x64c;" d="M-70 1520q40 34 76 34q23 0 39 -20t16 -45q0 -54 -77 -113q24 -61 26 -61q46 -6 90 -6q127 0 197 49q68 44 68 104q0 30 -21 60q-30 47 -88 47q-28 0 -49 -15q-47 -38 -47 -84q0 -10 4 -30q7 -21 37 -66q-73 -25 -174 -4q90 53 90 135q0 65 -68 86q-8 2 -22 2 q-57 0 -97 -73zM211 1460q0 34 31 49q21 9 37 9q45 0 45 -43q0 -53 -84 -80q-25 35 -28 51q-1 7 -1 14z" />
<glyph unicode="&#x64d;" d="M-6 -647q268 0 268 -2q85 3 100 65l-280 -6q-65 -9 -88 -57zM35 -530h266q87 3 102 63l-282 -4q-63 -9 -86 -59z" />
<glyph unicode="&#x64e;" d="M51 1522q268 0 268 -2q84 3 99 63l-281 -4q-63 -9 -86 -57z" />
<glyph unicode="&#x64f;" d="M-20 1477q21 -64 24 -64q64 -12 117 -12q110 0 170 45q69 51 69 108q0 25 -16 54q-29 51 -92 51q-23 0 -43 -14q-49 -30 -49 -86v-25q6 -30 37 -66q-30 -10 -76 -10q-60 0 -141 19zM207 1548q0 40 33 54q18 6 34 6q36 0 45 -33q16 -61 -83 -88q-1 2 -6 8t-6 7.5t-5 6.5 t-4.5 7t-3 6.5t-3 8t-1 8t-0.5 9.5z" />
<glyph unicode="&#x650;" d="M-18 -522h268q85 3 100 63l-280 -6q-65 -6 -88 -57z" />
<glyph unicode="&#x651;" d="M53 1522q0 -38 23 -68q29 -32 78 -29q57 0 84 68q35 -71 86 -74q49 0 75 33q23 30 23 70v159h-60l3 -143q0 -31 -12 -44t-36 -13q-51 0 -51 88v112h-59v-112q0 -88 -49 -88q-47 -3 -47 59v141h-58v-159z" />
<glyph unicode="&#x652;" d="M55 1575q2 -58 38 -97.5t95 -39.5q126 3 123 141q0 55 -35 96q-40 46 -98 43q-126 -3 -123 -143zM121 1577q0 85 61 88q27 0 47 -24.5t21 -61.5q0 -88 -62 -88q-27 0 -46.5 23t-20.5 63z" />
<glyph unicode="&#x653;" d="M-68 1450h74q12 70 72 70q25 0 104 -29q74 -27 117 -27q67 0 113 52q37 37 47 112h-80q-6 -72 -80 -72q-18 0 -100 29q-79 29 -121 29q-59 0 -98.5 -46.5t-47.5 -117.5z" />
<glyph unicode="&#x654;" d="M-23 1452h330v64h-76q-86 0 -86 90q0 94 64 94q34 0 61 -35l31 45q-38 47 -94 47q-57 0 -96 -41t-39 -102q0 -55 34 -98h-92z" />
<glyph unicode="&#x655;" d="M-23 -426h330v64h-76q-86 0 -86 90q0 94 64 94q34 0 61 -35l31 45q-38 47 -94 47q-57 0 -96 -41t-39 -102q0 -55 34 -98h-92z" />
<glyph unicode="&#x660;" horiz-adv-x="507" d="M180 197l148 73v197l-148 -74v-196z" />
<glyph unicode="&#x661;" horiz-adv-x="387" d="M135 1268l10 -1268l107 45l-8 1223h-109z" />
<glyph unicode="&#x662;" horiz-adv-x="888" d="M137 883l6 -883l107 45q-9 601 0 813q0 202 76 266q64 58 249 58q71 -3 179 0v88h-230q-200 0 -291 -88q-99 -92 -96 -299z" />
<glyph unicode="&#x663;" horiz-adv-x="1017" d="M135 1268l12 -1268l105 47l-4 688q56 -59 133 -59q93 0 151 94q55 -94 166 -94q185 0 185 256l-4 336h-86q4 -308 4 -336q0 -172 -111 -172q-71 0 -98 53q-17 43 -17 119l-4 336h-96q4 -308 4 -336q0 -172 -106 -172q-82 0 -121 57l-4 451h-109z" />
<glyph unicode="&#x664;" horiz-adv-x="892" d="M135 365q0 -154 111 -256q115 -109 307 -109h137l68 98l-205 2q-132 0 -219.5 74t-87.5 191q0 197 145 268q88 42 305 45v100q-18 -1 -55 -4t-57 -4q-67 -8 -131 -4q-186 12 -183 164q3 198 242 256q71 16 184 10v78h-73q-57 3 -125 -4q-149 -20 -243.5 -112t-94.5 -220 q0 -183 166 -238q-122 -64 -168 -204q-20 -55 -23 -131z" />
<glyph unicode="&#x665;" horiz-adv-x="999" d="M135 506q0 -158 82 -258.5t217 -114.5q29 -8 123 2q136 12 221.5 115t85.5 256q0 126 -86 268q-106 172 -282 250q-170 -77 -275 -246q-86 -145 -86 -272zM242 522q0 109 80 236q78 124 178 174q99 -49 176 -174q82 -125 82 -238q0 -118 -60 -203q-54 -72 -135 -90 q-81 -15 -127 0q-81 21 -133 90q-64 82 -61 205z" />
<glyph unicode="&#x666;" horiz-adv-x="899" d="M135 1270l2 -88q104 -3 180 0q178 0 252 -68q77 -71 80 -256l6 -858l109 45q-1 225 -2 429.5t-1.5 302t-0.5 112.5q-1 201 -95.5 291t-297.5 90h-232z" />
<glyph unicode="&#x667;" horiz-adv-x="1044" d="M135 1217l318 -1217h108l348 1212l-108 48q-291 -1042 -291 -1074h2q2 0 2 9l-266 1065z" />
<glyph unicode="&#x668;" horiz-adv-x="1044" d="M135 45l113 -45l266 1067q0 4 -2 8h-2l291 -1073l108 45l-348 1213h-108z" />
<glyph unicode="&#x669;" horiz-adv-x="1021" d="M135 905q0 -158 115 -264q107 -101 256 -98q97 0 176 55q76 54 96 121l2 -717l107 45l-4 739q0 216 -90 347q-102 141 -304 141q-141 0 -249 -111q-105 -108 -105 -258zM252 899q-2 131 66 211t184 80q115 3 184 -90q57 -80 57 -201q0 -103 -63 -178q-71 -86 -178 -86 q-95 -3 -172 74q-75 75 -78 190z" />
<glyph unicode="&#x66a;" horiz-adv-x="991" d="M70 -18l80 -48l778 1289l-80 49zM414 1026h135v170h-135v-170zM500 45h135v166h-135v-166z" />
<glyph unicode="&#x66b;" horiz-adv-x="241" d="M8 -176q69 37 111 90q53 71 53 147v175h-152v-134q65 -3 68 -82q3 -93 -80 -196z" />
<glyph unicode="&#x66c;" horiz-adv-x="241" d="M8 -176q69 37 111 90q53 71 53 147v175h-152v-134q65 -3 68 -82q3 -93 -80 -196z" />
<glyph unicode="&#x66d;" horiz-adv-x="1024" d="M115 502l239 -191l-106 -284l35 -27l233 193l232 -193l34 31l-104 282l237 189l-18 41l-283 -41l-77 293h-41l-80 -293l-283 43z" />
<glyph unicode="&#x670;" d="M47 1524h70v356h-70v-356z" />
<glyph unicode="&#x67e;" horiz-adv-x="1382" d="M70 748l4 -134q9 -264 106 -424q117 -190 357 -190h598q186 0 186 211q0 437 -2 537h-113q2 -111 2 -510q0 -138 -108 -138h-557q-132 0 -230 88q-140 131 -149 426l-4 134h-90zM633 -168v-133h110v133h-110zM725 -344v-133h111v133h-111zM815 -168v-133h111v133h-111z " />
<glyph unicode="&#x686;" horiz-adv-x="1054" d="M70 -35q0 -170 116 -289q117 -120 281 -120h268v104h-252q-125 0 -213 88t-88 217q0 131 86 223q89 95 215 95l510 2q-15 592 -436 616q-107 3 -184 -29q-18 -8 -51 -26t-39 -21l34 -77q149 64 238 55q130 -9 211 -96q91 -105 125 -318h-455q-160 0 -264 -131 q-102 -123 -102 -293zM416 -18h108v131h-108v-131zM506 -66v-133h110v133h-110zM596 -18h111v131h-111v-131z" />
<glyph unicode="&#x698;" horiz-adv-x="514" d="M-96 -350q25 -59 43 -92q227 21 366 198q140 178 140 434l-4 558h-109l2 -578q0 -213 -119 -356q-128 -155 -319 -164zM123 956h110v131h-110v-131zM231 1155h109v133h-109v-133zM338 956h111v131h-111v-131z" />
<glyph unicode="&#x6a4;" horiz-adv-x="1382" d="M70 748l4 -134q9 -264 106 -424q117 -190 357 -190h600q175 0 184 160v499q0 323 -305 320q-117 0 -205 -82q-114 -102 -123 -299q-3 -147 80 -256q82 -104 215 -104h238v-33q0 -105 -103 -105h-575q-132 0 -230 88q-140 131 -149 426l-4 134h-90zM807 610 q6 140 68.5 222.5t156.5 82.5q176 0 176 -206l4 -373h-192q-100 0 -158 82q-58 76 -55 192zM852 1145h111v131h-111v-131zM961 1343h108v134h-108v-134zM1069 1145h109v131h-109v-131z" />
<glyph unicode="&#x6f0;" horiz-adv-x="507" d="M180 197l148 73v197l-148 -74v-196z" />
<glyph unicode="&#x6f1;" horiz-adv-x="387" d="M135 1268l10 -1268l107 45l-8 1223h-109z" />
<glyph unicode="&#x6f2;" horiz-adv-x="888" d="M137 883l6 -883l107 45q-9 601 0 813q0 202 76 266q64 58 249 58q71 -3 179 0v88h-230q-200 0 -291 -88q-99 -92 -96 -299z" />
<glyph unicode="&#x6f3;" horiz-adv-x="1017" d="M135 1268l12 -1268l105 47l-4 688q56 -59 133 -59q93 0 151 94q55 -94 166 -94q185 0 185 256l-4 336h-86q4 -308 4 -336q0 -172 -111 -172q-71 0 -98 53q-17 43 -17 119l-4 336h-96q4 -308 4 -336q0 -172 -106 -172q-82 0 -121 57l-4 451h-109z" />
<glyph unicode="&#x6f4;" horiz-adv-x="892" d="M135 365q0 -154 111 -256q115 -109 307 -109h137l68 98l-205 2q-132 0 -219.5 74t-87.5 191q0 197 145 268q88 42 305 45v100q-18 -1 -55 -4t-57 -4q-67 -8 -131 -4q-186 12 -183 164q3 198 242 256q71 16 184 10v78h-73q-57 3 -125 -4q-149 -20 -243.5 -112t-94.5 -220 q0 -183 166 -238q-122 -64 -168 -204q-20 -55 -23 -131z" />
<glyph unicode="&#x6f5;" horiz-adv-x="999" d="M135 506q0 -158 82 -258.5t217 -114.5q29 -8 123 2q136 12 221.5 115t85.5 256q0 126 -86 268q-106 172 -282 250q-170 -77 -275 -246q-86 -145 -86 -272zM242 522q0 109 80 236q78 124 178 174q99 -49 176 -174q82 -125 82 -238q0 -118 -60 -203q-54 -72 -135 -90 q-81 -15 -127 0q-81 21 -133 90q-64 82 -61 205z" />
<glyph unicode="&#x6f6;" horiz-adv-x="899" d="M135 1270l2 -88q104 -3 180 0q178 0 252 -68q77 -71 80 -256l6 -858l109 45q-1 225 -2 429.5t-1.5 302t-0.5 112.5q-1 201 -95.5 291t-297.5 90h-232z" />
<glyph unicode="&#x6f7;" horiz-adv-x="1044" d="M135 1217l318 -1217h108l348 1212l-108 48q-291 -1042 -291 -1074h2q2 0 2 9l-266 1065z" />
<glyph unicode="&#x6f8;" horiz-adv-x="1044" d="M135 45l113 -45l266 1067q0 4 -2 8h-2l291 -1073l108 45l-348 1213h-108z" />
<glyph unicode="&#x6f9;" horiz-adv-x="1021" d="M135 905q0 -158 115 -264q107 -101 256 -98q97 0 176 55q76 54 96 121l2 -717l107 45l-4 739q0 216 -90 347q-102 141 -304 141q-141 0 -249 -111q-105 -108 -105 -258zM252 899q-2 131 66 211t184 80q115 3 184 -90q57 -80 57 -201q0 -103 -63 -178q-71 -86 -178 -86 q-95 -3 -172 74q-75 75 -78 190z" />
<glyph unicode="&#x2000;" horiz-adv-x="994" />
<glyph unicode="&#x2001;" horiz-adv-x="1989" />
<glyph unicode="&#x2002;" horiz-adv-x="994" />
<glyph unicode="&#x2003;" horiz-adv-x="1989" />
<glyph unicode="&#x2004;" horiz-adv-x="663" />
<glyph unicode="&#x2005;" horiz-adv-x="497" />
<glyph unicode="&#x2006;" horiz-adv-x="331" />
<glyph unicode="&#x2007;" horiz-adv-x="331" />
<glyph unicode="&#x2008;" horiz-adv-x="248" />
<glyph unicode="&#x2009;" horiz-adv-x="397" />
<glyph unicode="&#x200a;" horiz-adv-x="110" />
<glyph unicode="&#x200c;" horiz-adv-x="40" d="M0 0h41v1479h-41v-1479z" />
<glyph unicode="&#x200d;" horiz-adv-x="40" d="M-104 1358l28 -27l76 76v-1407h41v1407l76 -76l28 27l-96 98l96 96l-28 29l-97 -98l-96 98l-28 -29l98 -96z" />
<glyph unicode="&#x200e;" horiz-adv-x="40" d="M0 0h41v1438h160l-78 -78l29 -29l122 125l-122 125l-29 -29l74 -73h-197v-1479z" />
<glyph unicode="&#x200f;" horiz-adv-x="40" d="M-233 1456l122 -125l29 29l-78 78h160v-1438h41v1479h-197l74 73l-29 29z" />
<glyph unicode="&#x2010;" horiz-adv-x="929" d="M49 393h862v80h-862v-80z" />
<glyph unicode="&#x2011;" horiz-adv-x="1017" d="M80 403h858v84h-858v-84z" />
<glyph unicode="&#x2012;" horiz-adv-x="1017" d="M80 403h858v84h-858v-84z" />
<glyph unicode="&#x2013;" horiz-adv-x="1183" d="M80 403h1024v84h-1024v-84z" />
<glyph unicode="&#x2014;" horiz-adv-x="2207" d="M80 403h2048v84h-2048v-84z" />
<glyph unicode="&#x201c;" horiz-adv-x="546" d="M82 938h151v131q-64 6 -67 84q-3 97 78 197q-61 -33 -109 -93q-53 -71 -53 -145v-174zM299 1112l2 -174h152v131q-67 6 -70 84q-3 94 80 197q-65 -34 -111 -93q-53 -71 -53 -145z" />
<glyph unicode="&#x201d;" horiz-adv-x="546" d="M82 938q58 24 108 90q54 69 54 146v176h-152v-133q65 -9 68 -84q3 -91 -78 -195zM299 938q63 26 111 90q53 68 53 146v176h-152v-133q66 -9 66 -84q3 -95 -78 -195z" />
<glyph unicode="&#x202f;" horiz-adv-x="397" />
<glyph unicode="&#x205f;" horiz-adv-x="497" />
<glyph unicode="&#x2421;" horiz-adv-x="1452" d="M78 117h194q42 0 84 10q162 40 162 260q0 217 -162 254q-27 8 -94 8h-184v-532zM150 180v406h112q57 0 90 -11q94 -37 94 -188q0 -114 -53 -170q-40 -37 -129 -37h-114zM582 117h399v63h-326v180h293v64h-293v162h314v63h-387v-532zM1047 117h333v63h-260v469h-73v-532z " />
<glyph unicode="&#x25fc;" horiz-adv-x="1024" d="M0 0z" />
<glyph unicode="&#xfd3e;" horiz-adv-x="557" d="M88 543q0 -222 88 -408q69 -149 238 -346l57 57q-276 292 -276 711q0 344 260 662l-62 57q-305 -367 -305 -733z" />
<glyph unicode="&#xfd3f;" horiz-adv-x="557" d="M96 1221q277 -294 277 -711q0 -344 -260 -662l59 -59q307 368 307 733q0 224 -88 410q-71 154 -237 344z" />
<glyph unicode="&#xfeff;" />
<glyph horiz-adv-x="681" />
<glyph horiz-adv-x="573" />
<glyph horiz-adv-x="559" />
<glyph />
</font>
</defs>
</svg>
